<?xml version="1.0" encoding="utf-8"?>
<!-- Generator: Adobe Illustrator 16.0.0, SVG Export Plug-In . SVG Version: 6.00 Build 0)  -->
<!DOCTYPE svg PUBLIC "-//W3C//DTD SVG 1.1//EN" "http://www.w3.org/Graphics/SVG/1.1/DTD/svg11.dtd">
<svg version="1.1" id="Layer_1" xmlns="http://www.w3.org/2000/svg" xmlns:xlink="http://www.w3.org/1999/xlink" x="0px" y="0px"
	 width="384px" height="334px" viewBox="0 0 384 334" style="enable-background:new 0 0 384 334;" xml:space="preserve">
<style type="text/css">
<![CDATA[
	.st0{fill:none;stroke:#000000;stroke-width:7.6493;stroke-linecap:round;stroke-linejoin:round;stroke-miterlimit:10;}
	.st1{fill:#FFD350;}
	.st2{fill:#FFFFFF;}
]]>
</style>
<g>
	<g>
		<g>
			<polygon class="st2" points="45.1,191.7 6.1,328.1 150.3,319.3 145.5,252.5 100.8,202 			"/>
		</g>
		<g>
			<path d="M3.7,332.8C3,332.5,2.5,332,2,331.4c-1-1.3-1.4-3.1-0.9-4.7l39.1-136.5c0.8-2.6,3.3-4.2,6-3.7l55.7,10.3
				c1.2,0.2,2.2,0.8,3,1.7l44.7,50.6c0.8,0.9,1.2,1.9,1.3,3.1l4.9,66.8c0.1,1.4-0.4,2.8-1.3,3.8c-0.9,1.1-2.2,1.7-3.6,1.8L6.4,333.4
				C5.4,333.4,4.5,333.2,3.7,332.8z M48.8,197.7L13.1,322.5l131.7-8.1l-4.3-59.8l-42.3-47.9L48.8,197.7z"/>
		</g>
	</g>
	<g>
		<polygon class="st1" points="45.8,189.2 97.1,208.1 102.3,246.4 141,259.8 150.3,319.3 378.1,136.4 273.5,6.3 		"/>
		<path d="M148,324c-1.5-0.8-2.5-2.2-2.8-3.9l-8.8-56.4l-35.8-12.4c-1.9-0.6-3.2-2.3-3.5-4.2l-4.8-35.2L44,194.1
			c-1.8-0.6-3-2.2-3.4-4.1c-0.3-1.9,0.4-3.7,1.9-4.9L270.3,2.2c2.2-1.8,5.5-1.5,7.3,0.8l104.5,130.1c0.9,1.1,1.3,2.5,1.1,3.8
			c-0.2,1.4-0.9,2.6-1.9,3.5L153.6,323.4c-1.5,1.2-3.4,1.5-5.2,0.8C148.3,324.1,148.2,324,148,324z M143.4,255.2
			c1.5,0.7,2.5,2.2,2.8,3.9l7.9,50.6l216.6-174l-98-122L56.3,187.5l42.6,15.7c1.8,0.7,3.1,2.3,3.4,4.2l4.8,35.1l35.7,12.4
			C143,255,143.2,255.1,143.4,255.2z"/>
	</g>
	<g>
		<path d="M22.5,270.6c12.6,3.8,43.3,25.4,45.7,53.8c-12.1,0.7-62.1,3.8-62.1,3.8S16.6,287.8,22.5,270.6z"/>
	</g>
	<g>
		<path d="M94.7,212.7c-0.7-0.3-1.3-0.8-1.7-1.4c-1.8-2.3-1.4-5.5,0.9-7.3L301.8,41.3c2.3-1.8,5.6-1.4,7.3,0.9
			c1.8,2.3,1.4,5.6-0.9,7.3L100.3,212.2C98.7,213.5,96.5,213.6,94.7,212.7z"/>
	</g>
	<g>
		<path d="M138.7,264.5c-0.7-0.3-1.2-0.8-1.7-1.4c-1.8-2.2-1.5-5.5,0.8-7.3L341.6,91c2.2-1.8,5.5-1.5,7.3,0.8
			c1.8,2.2,1.5,5.5-0.8,7.3L144.3,263.9C142.7,265.2,140.5,265.4,138.7,264.5z"/>
	</g>
	<g>
		<path class="st0" d="M45.1,191.7"/>
	</g>
</g>
</svg>
