<?xml version="1.0" encoding="utf-8"?>
<!-- Generator: Adobe Illustrator 16.0.0, SVG Export Plug-In . SVG Version: 6.00 Build 0)  -->
<!DOCTYPE svg PUBLIC "-//W3C//DTD SVG 1.1//EN" "http://www.w3.org/Graphics/SVG/1.1/DTD/svg11.dtd">
<svg version="1.1" id="Layer_1" xmlns="http://www.w3.org/2000/svg" xmlns:xlink="http://www.w3.org/1999/xlink" x="0px" y="0px"
	 width="384px" height="238.5px" viewBox="0 0 384 238.5" style="enable-background:new 0 0 384 238.5;" xml:space="preserve">
<style type="text/css">
<![CDATA[
	.st0{fill:none;stroke:#000000;stroke-width:10.4729;stroke-miterlimit:10;}
	.st1{fill:url(#SVGID_1_);}
	.st2{fill:url(#SVGID_2_);}
	.st3{fill:none;}
	.st4{fill-rule:evenodd;clip-rule:evenodd;fill:#5F75A0;}
	.st5{fill-rule:evenodd;clip-rule:evenodd;fill:#FFD350;}
]]>
</style>
<pattern  x="-16.8" y="-44.5" width="95" height="96" patternUnits="userSpaceOnUse" id="New_Pattern_Swatch_3" viewBox="0 -96 95 96" style="overflow:visible;">
	<g>
		<polygon class="st3" points="0,0 95,0 95,-96 0,-96 		"/>
		<polygon class="st5" points="0,0 0,-96 95,-96 95,0 		"/>
	</g>
</pattern>
<pattern  x="-16.8" y="-44.5" width="95" height="95" patternUnits="userSpaceOnUse" id="New_Pattern_Swatch_4" viewBox="0 -95 95 95" style="overflow:visible;">
	<g>
		<polygon class="st3" points="0,0 95,0 95,-95 0,-95 		"/>
		<polygon class="st4" points="0,0 0,-95 95,-95 95,0 		"/>
	</g>
</pattern>
<g>
	<g>
		<pattern  id="SVGID_1_" xlink:href="#New_Pattern_Swatch_4" patternTransform="matrix(4.6435 0 0 4.6435 28468.0625 27815.582)">
		</pattern>
		<path class="st1" d="M377.7,209.1c0,12.5-10.2,22.8-22.8,22.8H29c-12.5,0-22.8-10.2-22.8-22.8V29.4C6.3,16.9,16.5,6.6,29,6.6h326
			c12.5,0,22.8,10.2,22.8,22.8V209.1z"/>
		<path class="st0" d="M377.7,209.1c0,12.5-10.2,22.8-22.8,22.8H29c-12.5,0-22.8-10.2-22.8-22.8V29.4C6.3,16.9,16.5,6.6,29,6.6h326
			c12.5,0,22.8,10.2,22.8,22.8V209.1z"/>
	</g>
	<g>
		<pattern  id="SVGID_2_" xlink:href="#New_Pattern_Swatch_3" patternTransform="matrix(4.6435 0 0 4.6435 28468.0625 27828.5117)">
		</pattern>
		<path class="st2" d="M377.7,40.4c0,12.5-8.9,27.8-19.8,33.9l-148,83.2c-10.9,6.1-28.7,6.1-39.6-0.2L26,74.5
			C15.1,68.3,6.3,52.9,6.3,40.4v-11C6.3,16.9,16.5,6.6,29,6.6h326c12.5,0,22.8,10.2,22.8,22.8V40.4z"/>
		<path class="st0" d="M377.7,40.4c0,12.5-8.9,27.8-19.8,33.9l-148,83.2c-10.9,6.1-28.7,6.1-39.6-0.2L26,74.5
			C15.1,68.3,6.3,52.9,6.3,40.4v-11C6.3,16.9,16.5,6.6,29,6.6h326c12.5,0,22.8,10.2,22.8,22.8V40.4z"/>
	</g>
	<line class="st0" x1="16" y1="222.4" x2="114.8" y2="123.6"/>
	<line class="st0" x1="369.8" y1="223.9" x2="271" y2="125.1"/>
</g>
</svg>
