<?xml version="1.0" encoding="utf-8"?>
<!-- Generator: Adobe Illustrator 16.0.0, SVG Export Plug-In . SVG Version: 6.00 Build 0)  -->
<!DOCTYPE svg PUBLIC "-//W3C//DTD SVG 1.1//EN" "http://www.w3.org/Graphics/SVG/1.1/DTD/svg11.dtd">
<svg version="1.1" id="Layer_1" xmlns="http://www.w3.org/2000/svg" xmlns:xlink="http://www.w3.org/1999/xlink" x="0px" y="0px"
	 width="384px" height="322.8px" viewBox="0 0 384 322.8" enable-background="new 0 0 384 322.8" xml:space="preserve">
<g>
	<g>
		<path d="M314.2,110c-6.101-4.8-11.2-8.6-16.101-11.9C287.7,91.1,275.9,86.2,260.9,82.6C240.4,77.7,217.1,75.1,191.8,75
			c-25.4,0.1-48.6,2.6-69.1,7.6c-14.9,3.6-26.7,8.5-37.2,15.5c-4.9,3.3-10,7-16.1,11.9c-8.1,6.4-18.6,15.2-26.9,25.4
			c-5,6.2-11.5,15.2-8.6,21.6l0.1,0.4c2,6,10.3,20.9,27.1,34.6C73.5,202.1,88.5,210.1,105.9,215.8c21.8,7.3,64.2,11.1,85.9,11.1
			c21,0,64-3.8,85.9-11.1C295.1,210.1,310.1,202,322.5,192c16.8-13.699,25.1-28.6,27.1-34.6l0.101-0.4
			c2.8-6.5-3.601-15.5-8.601-21.6C332.8,125.1,322.4,116.4,314.2,110"/>
		<path fill="#FFD350" d="M77.3,214.701c0,0,90.3,53.699,230.601,4.699c0,0-44.301-62.7-113-29.699
			C194.8,189.701,124.2,154.4,77.3,214.701"/>
		<path d="M185.8,202.6c0,0,12.3-25.5,55.101-27.899l-7-19.801C233.9,154.9,196.1,168.4,185.8,202.6"/>
		<path fill="#FFFFFF" d="M189.4,105c0,3.8-3,6.8-6.8,6.8h-44.3c-3.7,0-6.7-3-6.7-6.8V66.5c0-3.7,3-6.8,6.7-6.8h44.3
			c3.7,0,6.8,3,6.8,6.8V105z"/>
		<path fill="#FFFFFF" d="M127.2,98.6c0,3.7-3,6.8-6.8,6.8H76.2c-3.7,0-6.8-3-6.8-6.8V60.1c0-3.7,3.1-6.8,6.8-6.8h44.3
			c3.7,0,6.8,3,6.8,6.8v38.5H127.2z"/>
		<path fill="#FFFFFF" d="M194.3,105c0,3.8,3.101,6.8,6.8,6.8H245.4c3.699,0,6.699-3,6.699-6.8V66.5c0-3.7-3-6.8-6.699-6.8H201.1
			c-3.699,0-6.8,3-6.8,6.8V105z"/>
		<path fill="#FFFFFF" d="M256.5,98.6c0,3.7,3,6.8,6.8,6.8h44.3c3.7,0,6.801-3,6.801-6.8V60.1c0-3.7-3-6.8-6.801-6.8h-44.3
			c-3.7,0-6.8,3-6.8,6.8V98.6z"/>
		<path fill="#EB6D82" d="M369.4,105.7C352,66.9,305.5,41.2,268.2,20.6L267.1,20C251.7,11.5,239.4,6.2,225.8,6.2
			c-8,0-16.399,1.8-26.5,5.6c-2.2,0.8-4.6,1.2-7.1,1.2h-0.9c-2.5,0-4.9-0.4-7.1-1.2c-10.1-3.8-18.5-5.6-26.5-5.6
			c-13.6,0-25.9,5.3-41.3,13.8l-1.1,0.6C78.2,41.2,31.8,66.9,14.4,105.7C5.9,124.5,4.1,147.6,9,174.3c5,27.6,15.8,52,24,67.6
			c12.6,24,34.6,42.7,65.6,55.4c26.8,11,59,16.9,93.3,17.1c34.3-0.199,66.5-6.1,93.3-17.1c30.899-12.7,53-31.301,65.6-55.4
			c8.2-15.6,19-40,24-67.6C379.7,147.6,377.8,124.5,369.4,105.7 M349.8,157l-0.1,0.4c-2,6-10.3,20.9-27.101,34.6
			C310.2,202.1,295.2,210.1,277.8,215.8c-21.899,7.3-64.899,11.1-85.9,11.1c-21.7,0-64.1-3.8-85.9-11.1
			C88.6,210.1,73.6,202,61.2,192c-16.8-13.699-25.1-28.6-27.1-34.6L34,157c-2.8-6.5,3.6-15.5,8.6-21.6c8.4-10.2,18.8-19,26.9-25.4
			c6.1-4.8,11.2-8.6,16.1-11.9c10.4-7,22.2-11.9,37.2-15.5c20.5-4.9,43.8-7.5,69.1-7.6c25.4,0.1,48.6,2.6,69.1,7.6
			c14.9,3.6,26.7,8.5,37.2,15.5c4.899,3.3,10,7,16.1,11.9c8.101,6.4,18.601,15.2,26.9,25.4C346.2,141.6,352.6,150.5,349.8,157"/>
		<path d="M195.2,319.5c0.3,0,0.5,0,0.8,0c33.1-0.6,64.2-6.5,90.3-17.299C318.5,289,341.5,269.4,354.9,244
			c8.3-15.799,19.199-40.399,24.3-68.399c5.1-27.9,3.1-52.2-5.9-72.3c-8.2-18.1-22.8-35-44.8-51.6c-18.7-14.1-39.4-25.5-57.7-35.6
			l-1-0.6C253.8,6.8,240.2,1,225,1c-8.9,0-18.2,1.9-29.1,6C194.8,7.4,193.6,7.6,192.3,7.6h-0.8c-1.3,0-2.5-0.2-3.6-0.6
			c-10.9-4.1-20.1-6-29.1-6c-15.2,0-28.9,5.8-44.7,14.6l-1,0.6C94.7,26.3,74,37.7,55.3,51.8c-22,16.6-36.6,33.4-44.8,51.6
			c-9,20-11,44.3-5.9,72.301c5.1,28,16,52.699,24.3,68.399c13.3,25.399,36.4,45,68.6,58.2c26,10.699,56.9,16.6,89.7,17.3
			C187.2,319.5,195,319.5,195.2,319.5 M369.9,173.9c-4.9,26.801-15.4,50.6-23.4,65.801c-12.3,23.399-33.7,41.5-63.8,53.899
			C256.6,304.3,225.2,310,191.9,310.201c-33.4-0.201-64.8-5.9-90.8-16.601c-30.1-12.3-51.6-30.5-63.8-53.899
			C29.4,224.5,18.8,200.8,13.9,173.9c-4.7-26-2.9-48.5,5.2-66.8c17-37.8,62.2-62.8,98.5-82.9l1-0.6c15-8.3,26.9-13.4,40.2-13.4
			c7.8,0,16,1.7,25.8,5.4c2.1,0.8,4.5,1.2,6.9,1.2h0.8c2.5,0,4.8-0.4,6.9-1.2c9.8-3.7,18-5.4,25.8-5.4c13.2,0,25.2,5.1,40.2,13.4
			l1,0.6c36.3,20.1,81.5,45.1,98.5,82.9C372.8,125.5,374.6,147.9,369.9,173.9"/>
		<path d="M342.4,130.1c-8.5-10.5-18.9-19.3-27-25.8c-6-4.8-11-8.5-15.801-11.8c-10.8-7.4-23-12.5-38.199-16.2
			c-20.601-5-44-7.5-69.4-7.5h-0.1h-0.1c-25.4,0-48.8,2.5-69.4,7.5C107.1,80,95,85.2,84.2,92.5c-4.8,3.3-9.8,7-15.8,11.8
			c-8.1,6.5-18.4,15.3-27,25.8c-4.4,5.4-14.7,18.1-9.6,30.2c0.8,2.2,7.3,19.5,28,36.8c12.6,10.5,27.9,18.8,45.4,24.8
			c21.8,7.4,56.2,12.1,86.6,12.1c30,0,64.8-4.699,86.601-12.1c17.6-6,32.899-14.3,45.399-24.8c20.7-17.3,27.3-34.601,28-36.8
			C357,148.2,346.7,135.5,342.4,130.1 M343.3,156.8l-0.1,0.4c-1.9,5.7-9.9,20-26,33.1c-11.9,9.699-26.3,17.3-42.9,22.9
			c-20.899,6.899-62.2,10.6-82.3,10.6c-20.8,0-61.4-3.7-82.3-10.6c-16.6-5.5-31.1-13.201-42.9-22.9c-16.1-13.1-24.1-27.4-26-33.1
			l-0.2-0.4c-2.7-6.2,3.4-14.8,8.3-20.7c8-9.8,18-18.2,25.8-24.4c5.8-4.6,10.7-8.2,15.4-11.4c10-6.7,21.3-11.4,35.6-14.9
			c19.7-4.7,42-7.2,66.3-7.2c24.3,0.1,46.6,2.5,66.3,7.2c14.3,3.4,25.601,8.2,35.601,14.9c4.699,3.2,9.6,6.7,15.399,11.4
			c7.8,6.2,17.8,14.6,25.8,24.4C339.8,142,346,150.5,343.3,156.8"/>
	</g>
</g>
</svg>
