<?xml version="1.0" encoding="utf-8"?>
<!-- Generator: Adobe Illustrator 16.0.0, SVG Export Plug-In . SVG Version: 6.00 Build 0)  -->
<!DOCTYPE svg PUBLIC "-//W3C//DTD SVG 1.1//EN" "http://www.w3.org/Graphics/SVG/1.1/DTD/svg11.dtd">
<svg version="1.1" id="Layer_1" xmlns="http://www.w3.org/2000/svg" xmlns:xlink="http://www.w3.org/1999/xlink" x="0px" y="0px"
	 width="384px" height="384px" viewBox="0 0 384 384" style="enable-background:new 0 0 384 384;" xml:space="preserve">
<style type="text/css">
<![CDATA[
	.st0{fill:none;stroke:#000000;stroke-width:6.6318;stroke-miterlimit:10;}
	.st1{clip-path:url(#SVGID_2_);fill:#5ED395;stroke:#000000;stroke-width:6.6318;stroke-miterlimit:10;}
	.st2{fill:#5F75A0;stroke:#000000;stroke-width:6.6318;stroke-miterlimit:10;}
]]>
</style>
<g>
	<path class="st2" d="M378.4,192c0,102.9-83.5,186.4-186.4,186.4C89.1,378.4,5.6,294.9,5.6,192C5.6,89.1,89.1,5.6,192,5.6
		C294.9,5.6,378.4,89.1,378.4,192z"/>
	<g>
		<defs>
			<path id="SVGID_1_" d="M378.4,192c0,102.9-83.5,186.4-186.4,186.4C89.1,378.4,5.6,294.9,5.6,192C5.6,89.1,89.1,5.6,192,5.6
				C294.9,5.6,378.4,89.1,378.4,192z"/>
		</defs>
		<clipPath id="SVGID_2_">
			<use xlink:href="#SVGID_1_"  style="overflow:visible;"/>
		</clipPath>
		<path class="st1" d="M360.7,90.5c-3.7-4.9-8.7-8.9-14.3-11.3c-7-3-17.2-3.4-23.9,0.4c-9.3,5.2-12.7,20.7-17.4,29.7
			c-5.7,10.8-11.5,22-11.8,34.4c-0.3,14.2,5.1,30.8,16.2,40.2c6.1,5.2,12.8,5.8,20.5,4.9c5.3-0.6,18.2-4,22.9-0.3
			c0,0,14.3,11.3,8.9,34c0,0-10.8,58.1-11.3,71.4c0,0,27.1-5.9,37.9-36.4c0,0,31-142.8-8.9-156.1C379.5,101.4,365.2,96.5,360.7,90.5
			z"/>
		<path class="st1" d="M108.4,228.6c-1.9-2.4-3.6-4.8-5.3-7.4c-2.5-3.8-4.8-7.7-7.8-11.1c-1.7-2-3.6-3.8-5.7-5.2
			c-3.3-2.3-6.8-3.8-9.9-6.5c-7.3-6.3-13.1-14.3-17.7-22.8c-3.5-6.5-5.6-16.9-12.2-20.9c-5.7-3.4-7.5-4.7-9.9-11
			c-1.5-3.9-2.1-8.1-2.2-12.2c-0.2-5.3,1.7-10.5,1.6-15.8c-0.1-4.5-0.8-9.2-2.3-13.4c-0.5-1.5-0.8-2.9-0.8-4.6
			c-0.1-8,5.5-14.4,10.6-19.9c5-5.4,10.2-10.6,16.9-14c7.2-3.6,15-5.7,22.7-7.7c6-1.5,12.3-1.8,18.1-4.1c3.3-1.3,8.2-4.2,8.3,1.8
			c0.1,5.2-3.2,7.7-6.6,11c-5.2,5-5.5,9.5,0.9,13.2c5.4,3.2,10.4,3.5,16.2,5.2c5.4,1.6,12.9,4.2,16.6-2.2c2.6-4.5,0.4-5.5-1.6-9.1
			c-1.2-2.2-1.8-6.1-0.4-8.3c2.6-4.1,8.6-3.1,12.5-1.9c5.4,1.7,6.9,6.2,11.4,8.9c4.6,2.7,10.5,0.5,15.5,3.2
			c4.4,2.4,27.3,22.3,11,22.6c-3.7,0.1-27.4-4.2-18.6,5.5c1.6,1.8,2.7,2.9,2.6,5.6c-0.2,4.3-4.5,4.8-7.6,6.3
			c-3.3,1.6-6.4,3.3-9.4,5.4c-6.5,4.5-12.8,11.2-12.7,19.5c0.1,6.6-0.4,13.3-1.9,19.7c-1,4.2-2.2,11.1-6.4,13.2
			c-3.3,1.6-6.3,1.2-8.6-1.2c-3.3-3.5-1.8-7.6-3.9-11.3c-1.7-3.1-5.9-3.5-8.9-3c-7.3,1-21.6,2.3-25.2,10.1c-2.8,6.1-2,15,1.6,20.7
			c3,4.6,9.6,7.9,13.3,2.6c1.4-2,1-4.9,2.9-6.1c1.7-1.1,4.6-0.5,6.1,0.4c6,3.8,6.5,13.6,6.6,20.2c0.1,3.7-1.5,8.4,0.9,11.5
			c3.5,4.6,24.7,17.5,24,15.8c1.1-3,2.7-12.5,13.1-14.6c0,0,36.4-8.3,66,7.4c0,0,17.2,9,29.8,8.3c0,0,21.2,1,17.9,17.6
			c-1.9,9.6-3.1,20.4-6,29.7c-4.6,14.7-15.2,23.4-24.2,35.1c-7.5,9.8-14.2,20.2-20.2,31c-5.2,9.5-7.8,20.6-13.4,29.7
			c-2.2,3.6-7.6,5.4-13.1,1.8c0,0-6-2.9-3.6-29.6c0,0,1.4-38.9-14-42.2c0,0-31-5.7-36.7-27.2c-1.4-5.1-2.2-11.4-2.1-16.7
			c0.1-3.9,1.6-9.3-2-12.1c-4.7-3.6-10.3-5.8-15-9.4C115.4,236.7,111.7,232.8,108.4,228.6z"/>
	</g>
	<path class="st0" d="M378.4,192c0,102.9-83.5,186.4-186.4,186.4C89.1,378.4,5.6,294.9,5.6,192C5.6,89.1,89.1,5.6,192,5.6
		C294.9,5.6,378.4,89.1,378.4,192z"/>
</g>
</svg>
