<?xml version="1.0" encoding="utf-8"?>
<!-- Generator: Adobe Illustrator 16.0.0, SVG Export Plug-In . SVG Version: 6.00 Build 0)  -->
<!DOCTYPE svg PUBLIC "-//W3C//DTD SVG 1.1//EN" "http://www.w3.org/Graphics/SVG/1.1/DTD/svg11.dtd">
<svg version="1.1" id="Layer_1" xmlns="http://www.w3.org/2000/svg" xmlns:xlink="http://www.w3.org/1999/xlink" x="0px" y="0px"
	 width="501px" height="104px" viewBox="0 0 501 104" enable-background="new 0 0 501 104" xml:space="preserve">
<pattern  x="-55" y="448.5" width="95" height="96" patternUnits="userSpaceOnUse" id="SVGID_1_" viewBox="0 -96 95 96" overflow="visible">
	<g>
		<polygon fill="none" points="0,0 95,0 95,-96 0,-96 		"/>
		<g>
			<polygon fill="none" points="0,-96 95,-96 95,0 0,0 			"/>
			<polygon fill="#6BD598" points="0,-96 0,0 95,0 95,-96 			"/>
		</g>
	</g>
</pattern>
<pattern  x="-55" y="448.5" width="95" height="96" patternUnits="userSpaceOnUse" id="SVGID_2_" viewBox="0 -96 95 96" overflow="visible">
	<g>
		<polygon fill="none" points="0,0 95,0 95,-96 0,-96 		"/>
		<g>
			<polygon fill="none" points="0,-96 95,-96 95,0 0,0 			"/>
			<polygon fill="#6BD598" points="0,-96 0,0 95,0 95,-96 			"/>
		</g>
	</g>
</pattern>
<g>
	<g>
		<path d="M141.9,31.4h3.8v11.1h6.1v3.3h-6.1v26.5h-3.8V45.8h-5.2v-3.3h5.2V31.4z"/>
		<path d="M163.2,30.9h3.8v16.8c1.6-2,3.3-3.6,5.1-4.6c1.9-1,3.9-1.5,6-1.5c2.2,0,4.2,0.6,5.9,1.7c1.7,1.1,3,2.7,3.8,4.6
			c0.8,1.9,1.2,4.9,1.2,9v15.3h-3.8V58c0-3.4-0.1-5.7-0.4-6.9c-0.5-2-1.3-3.5-2.6-4.4c-1.2-1-2.9-1.5-4.9-1.5
			c-2.3,0-4.4,0.8-6.2,2.3c-1.8,1.5-3,3.4-3.6,5.7c-0.4,1.5-0.5,4.2-0.5,8.1v10.9h-3.8V30.9z"/>
		<path d="M226.2,62.3l3.2,1.7c-1.1,2.1-2.3,3.8-3.7,5c-1.4,1.3-2.9,2.3-4.7,2.9c-1.7,0.699-3.7,1-5.9,1
			c-4.9,0-8.7-1.601-11.4-4.801c-2.7-3.199-4.1-6.8-4.1-10.8c0-3.8,1.2-7.1,3.5-10.1c2.9-3.8,6.9-5.6,11.8-5.6
			c5.1,0,9.1,1.9,12.2,5.8c2.2,2.7,3.3,6.1,3.3,10.2h-26.8c0.1,3.5,1.2,6.301,3.3,8.5c2.1,2.2,4.8,3.301,7.9,3.301
			c1.5,0,3-0.301,4.4-0.801c1.4-0.5,2.7-1.199,3.7-2.1C223.9,65.7,225,64.3,226.2,62.3z M226.2,54.3c-0.5-2-1.3-3.7-2.2-4.9
			c-1-1.2-2.3-2.2-3.9-3c-1.6-0.7-3.3-1.1-5.1-1.1c-2.9,0-5.4,0.9-7.5,2.8c-1.5,1.4-2.7,3.4-3.5,6.2H226.2z"/>
		<path d="M252.4,42.4v3.3c1.399-1.4,2.8-2.4,4.399-3c1.601-0.7,3.2-1,5-1c3.9,0,7.2,1.5,9.9,4.4s4.1,6.7,4.1,11.3
			c0,4.399-1.399,8.1-4.2,11.1c-2.8,3-6.1,4.5-10,4.5c-1.699,0-3.3-0.3-4.8-0.9c-1.5-0.6-2.899-1.6-4.399-3v14H245V42.4H252.4z
			 M260.2,48.6c-2.4,0-4.3,0.8-5.9,2.4c-1.6,1.6-2.3,3.7-2.3,6.3c0,2.601,0.8,4.8,2.3,6.4c1.601,1.6,3.5,2.399,5.9,2.399
			c2.3,0,4.2-0.8,5.8-2.5c1.6-1.699,2.3-3.8,2.3-6.3c0-2.6-0.8-4.6-2.3-6.3C264.5,49.4,262.6,48.6,260.2,48.6z"/>
		<path d="M300,41.7c2.8,0,5.4,0.7,7.9,2.1c2.5,1.4,4.399,3.3,5.8,5.7c1.399,2.4,2.1,5,2.1,7.8s-0.7,5.4-2.1,7.9
			c-1.4,2.399-3.3,4.399-5.7,5.7c-2.4,1.399-5.1,2.1-8,2.1c-4.3,0-7.9-1.5-10.9-4.6c-3-3-4.5-6.7-4.5-11.101
			c0-4.7,1.7-8.5,5.101-11.6C292.7,43,296.1,41.7,300,41.7z M300.2,48.7c-2.3,0-4.3,0.8-5.8,2.4s-2.301,3.7-2.301,6.2
			c0,2.601,0.801,4.7,2.301,6.3c1.5,1.601,3.5,2.4,5.8,2.4s4.3-0.8,5.8-2.4c1.6-1.6,2.3-3.699,2.3-6.3c0-2.6-0.8-4.6-2.3-6.2
			S302.5,48.7,300.2,48.7z"/>
		<path d="M326.7,30.9h7.5v41.3h-7.5V30.9z"/>
		<path d="M343.3,42.4h7.601l7.699,18.7l8.5-18.7h7.7l-18.7,40.7H348.4l6.1-13.1L343.3,42.4z"/>
		<path d="M405,42.4h7.4V68c0,5-1,8.7-3,11.1C406.7,82.3,402.6,83.9,397.1,83.9c-2.899,0-5.399-0.4-7.399-1.101s-3.7-1.8-5-3.2
			c-1.4-1.399-2.4-3.1-3-5.199h8.2c0.699,0.8,1.699,1.5,2.8,1.899c1.1,0.4,2.5,0.601,4.1,0.601c2,0,3.601-0.301,4.8-0.9
			c1.2-0.6,2.101-1.4,2.601-2.4s0.8-2.699,0.8-5.1c-1.3,1.3-2.7,2.3-4.1,2.8c-1.4,0.601-3.101,0.9-4.9,0.9c-4,0-7.4-1.4-10.1-4.3
			c-2.801-2.9-4.101-6.5-4.101-11c0-4.7,1.5-8.5,4.4-11.4c2.6-2.6,5.8-3.9,9.5-3.9c1.7,0,3.3,0.3,4.899,0.9
			c1.5,0.6,3.101,1.7,4.601,3.1v-3.2H405z M397.3,48.7c-2.399,0-4.3,0.8-5.8,2.4s-2.3,3.6-2.3,6c0,2.5,0.8,4.5,2.399,6.101
			c1.601,1.6,3.5,2.399,5.9,2.399c2.3,0,4.2-0.8,5.7-2.3c1.5-1.6,2.3-3.6,2.3-6.1s-0.8-4.5-2.3-6C401.6,49.4,399.7,48.7,397.3,48.7z
			"/>
		<path d="M424.8,30.9h7.5v41.3h-7.5V30.9z"/>
		<path d="M458.7,41.7c2.8,0,5.5,0.7,7.899,2.1c2.5,1.4,4.4,3.3,5.801,5.7c1.399,2.4,2.1,5,2.1,7.8s-0.7,5.4-2.1,7.9
			c-1.4,2.399-3.301,4.399-5.7,5.7c-2.4,1.399-5.101,2.1-8,2.1c-4.3,0-7.9-1.5-10.9-4.6c-3-3-4.5-6.7-4.5-11.101
			c0-4.7,1.7-8.5,5.101-11.6C451.4,43,454.8,41.7,458.7,41.7z M458.8,48.7c-2.3,0-4.3,0.8-5.8,2.4s-2.3,3.7-2.3,6.2
			c0,2.601,0.8,4.7,2.3,6.3c1.5,1.601,3.5,2.4,5.8,2.4s4.3-0.8,5.8-2.4C466.2,62,466.9,59.9,466.9,57.3c0-2.6-0.801-4.6-2.301-6.2
			S461.2,48.7,458.8,48.7z"/>
		<path d="M487.1,31.5h7.5v11h4.4v6.4h-4.4v23.3h-7.5V48.9h-3.8v-6.4h3.8V31.5z"/>
	</g>
	<g>
		<pattern  id="SVGID_3_" xlink:href="#SVGID_1_" patternTransform="matrix(-0.7283 0 0 -0.7283 -26557.2871 -12752.0479)">
		</pattern>
		<circle fill="url(#SVGID_3_)" cx="51.1" cy="52" r="49.5"/>
		<pattern  id="SVGID_4_" xlink:href="#SVGID_2_" patternTransform="matrix(-0.7283 0 0 -0.7283 -26557.2871 -12752.0479)">
		</pattern>
		<path fill="url(#SVGID_4_)" d="M97,98c-1.3-3.7-5-14.6-5.4-15.7c-0.4-1.2,0.3-2.3,0.3-2.3L77.5,93.9c0,0,1.1-0.7,2.4-0.301
			c1.1,0.301,12.4,4,16.3,5.301C96.2,98.8,97.4,99.3,97,98z"/>
		<g>
			<path d="M75.6,42.1c-1.2-0.9-2.2-1.7-3.2-2.3c-2-1.4-4.4-2.3-7.3-3c-4-1-8.6-1.5-13.6-1.5s-9.5,0.5-13.6,1.5
				c-2.9,0.7-5.2,1.7-7.3,3c-1,0.6-2,1.4-3.2,2.3c-1.6,1.3-3.6,3-5.3,5c-1,1.2-2.2,3-1.7,4.2v0.1c0.4,1.2,2,4.1,5.3,6.8
				c2.4,2,5.4,3.6,8.8,4.7C38.8,64.3,47.1,65.1,51.4,65.1c4.1,0,12.6-0.699,16.9-2.199c3.4-1.101,6.4-2.7,8.8-4.7
				c3.3-2.7,4.9-5.601,5.3-6.8v-0.1c0.6-1.3-0.7-3-1.7-4.2C79.2,45.1,77.2,43.4,75.6,42.1"/>
			<path fill="#FFD350" d="M29.1,62.7c0,0,17.7,10.5,45.2,0.899c0,0-8.7-12.3-22.2-5.8C52.1,57.8,38.3,50.9,29.1,62.7"/>
			<path d="M50.3,60.3c0,0,2.4-5,10.8-5.5l-1.4-3.9C59.8,50.9,52.4,53.6,50.3,60.3"/>
			<path fill="#FFFFFF" d="M51.1,41.2c0,0.7-0.6,1.3-1.3,1.3H41c-0.7,0-1.3-0.6-1.3-1.3v-7.6c0-0.7,0.6-1.3,1.3-1.3h8.7
				c0.7,0,1.3,0.6,1.3,1.3v7.6H51.1z"/>
			<path fill="#FFFFFF" d="M38.9,39.9c0,0.7-0.6,1.3-1.3,1.3h-8.7c-0.7,0-1.3-0.6-1.3-1.3v-7.6c0-0.7,0.6-1.3,1.3-1.3h8.7
				c0.7,0,1.3,0.6,1.3,1.3V39.9z"/>
			<path fill="#FFFFFF" d="M52,41.2c0,0.7,0.6,1.3,1.3,1.3H62c0.7,0,1.3-0.6,1.3-1.3v-7.6c0-0.7-0.6-1.3-1.3-1.3h-8.7
				c-0.7,0-1.3,0.6-1.3,1.3V41.2z"/>
			<path fill="#FFFFFF" d="M64.2,39.9c0,0.7,0.6,1.3,1.3,1.3h8.7c0.7,0,1.3-0.6,1.3-1.3v-7.6c0-0.7-0.6-1.3-1.3-1.3h-8.7
				c-0.7,0-1.3,0.6-1.3,1.3V39.9z"/>
			<path fill="#EB6D82" d="M86.4,41.3C83,33.7,73.8,28.6,66.5,24.6l-0.2-0.1c-3-1.7-5.4-2.7-8.1-2.7c-1.6,0-3.2,0.3-5.2,1.1
				c-0.4,0.2-0.9,0.2-1.4,0.2h-0.2c-0.5,0-1-0.1-1.4-0.2c-2-0.7-3.6-1.1-5.2-1.1c-2.7,0-5.1,1-8.1,2.7l-0.2,0.1
				c-7.3,4-16.4,9.1-19.9,16.7c-1.7,3.7-2,8.2-1.1,13.5c1,5.4,3.1,10.2,4.7,13.3c2.5,4.7,6.8,8.4,12.9,10.9
				c5.3,2.2,11.6,3.3,18.3,3.3c6.7,0,13.1-1.2,18.3-3.3c6.1-2.5,10.4-6.1,12.9-10.9c1.6-3.1,3.7-7.8,4.7-13.3
				C88.4,49.5,88,45,86.4,41.3 M82.5,51.4L82.5,51.4c-0.4,1.2-2.1,4.2-5.3,6.9c-2.4,2-5.4,3.601-8.8,4.7c-4.3,1.4-12.7,2.2-16.9,2.2
				c-4.3,0-12.6-0.7-16.9-2.2c-3.4-1.1-6.4-2.7-8.8-4.7c-3.3-2.7-4.9-5.6-5.3-6.8v-0.1c-0.6-1.3,0.7-3,1.7-4.2c1.6-2,3.7-3.7,5.3-5
				c1.2-0.9,2.2-1.7,3.2-2.3c2-1.4,4.4-2.3,7.3-3c4-1,8.6-1.5,13.6-1.5s9.5,0.5,13.6,1.5c2.9,0.7,5.2,1.7,7.3,3c1,0.6,2,1.4,3.2,2.3
				c1.6,1.3,3.6,3,5.3,5C81.8,48.3,83.1,50.1,82.5,51.4"/>
			<path d="M52.2,83.3c0,0,0.1,0,0.2,0C58.9,83.2,65,82,70.1,79.9c6.3-2.601,10.8-6.4,13.5-11.4c1.6-3.1,3.8-7.9,4.8-13.4
				c1-5.5,0.6-10.3-1.2-14.2c-1.6-3.6-4.5-6.9-8.8-10.1c-3.7-2.8-7.7-5-11.3-7l-0.2-0.1c-3.1-1.7-5.8-2.9-8.8-2.9
				c-1.8,0-3.6,0.4-5.7,1.2c-0.3,0-0.5,0-0.8,0h-0.2c-0.3,0-0.5,0-0.7-0.1c-2.1-0.8-4-1.2-5.7-1.2c-3,0-5.7,1.1-8.8,2.9L36,23.7
				c-3.6,2-7.7,4.2-11.3,7c-4.3,3.2-7.2,6.6-8.8,10.1c-1.8,3.9-2.2,8.7-1.2,14.2s3.1,10.3,4.8,13.4c2.6,5,7.1,8.8,13.5,11.399
				c5.1,2.101,11.2,3.3,17.6,3.4L52.2,83.3 M86.5,54.7c-1,5.3-3,9.899-4.6,12.899C79.5,72.2,75.3,75.8,69.4,78.2
				c-5.1,2.1-11.3,3.2-17.8,3.3c-6.6,0-12.7-1.2-17.8-3.3c-5.9-2.4-10.1-6-12.5-10.601c-1.6-3-3.6-7.6-4.6-12.899
				c-0.9-5.1-0.6-9.5,1-13.1C21,34.2,29.8,29.3,37,25.3l0.2-0.1c2.9-1.6,5.3-2.6,7.9-2.6c1.5,0,3.1,0.3,5.1,1.1
				c0.4,0.2,0.9,0.2,1.4,0.2h0.2c0.5,0,0.9-0.1,1.4-0.2c1.9-0.7,3.5-1.1,5.1-1.1c2.6,0,4.9,1,7.9,2.6l0.2,0.1
				c7.1,3.9,16,8.8,19.3,16.3C87.1,45.2,87.4,49.6,86.5,54.7"/>
			<path d="M81.1,46.1c-1.7-2.1-3.7-3.8-5.3-5.1c-1.2-0.9-2.2-1.7-3.1-2.3c-2.1-1.4-4.5-2.5-7.5-3.2c-4-1-8.6-1.5-13.6-1.5l0,0l0,0
				c-5,0-9.6,0.5-13.6,1.5c-3,0.7-5.4,1.7-7.5,3.2c-0.9,0.6-1.9,1.4-3.1,2.3c-1.6,1.3-3.6,3-5.3,5.1c-0.9,1.1-2.9,3.5-1.9,5.9
				c0.2,0.4,1.4,3.8,5.5,7.2c2.5,2.1,5.5,3.7,8.9,4.899c4.3,1.4,11,2.4,17,2.4c5.9,0,12.7-0.9,17-2.4c3.5-1.199,6.4-2.8,8.9-4.899
				c4.1-3.4,5.4-6.8,5.5-7.2C83.9,49.6,81.9,47.1,81.1,46.1 M81.2,51.3L81.2,51.3c-0.4,1.2-2,4-5.1,6.601
				c-2.3,1.899-5.2,3.399-8.4,4.5c-4.1,1.399-12.2,2.1-16.2,2.1c-4.1,0-12-0.7-16.2-2.1C32,61.3,29.2,59.8,26.9,57.9
				c-3.2-2.601-4.7-5.4-5.1-6.5v-0.1c-0.5-1.2,0.7-2.9,1.6-4.1c1.6-1.9,3.5-3.6,5.1-4.8c1.1-0.9,2.1-1.6,3-2.2c2-1.3,4.2-2.2,7-2.9
				c3.9-0.9,8.2-1.4,13-1.4s9.1,0.5,13,1.4c2.8,0.7,5,1.6,7,2.9c0.9,0.6,1.9,1.3,3,2.2c1.5,1.2,3.5,2.9,5.1,4.8
				C80.6,48.4,81.8,50.1,81.2,51.3"/>
		</g>
	</g>
</g>
</svg>
