<?xml version="1.0" encoding="utf-8"?>
<!-- Generator: Adobe Illustrator 16.0.0, SVG Export Plug-In . SVG Version: 6.00 Build 0)  -->
<!DOCTYPE svg PUBLIC "-//W3C//DTD SVG 1.1//EN" "http://www.w3.org/Graphics/SVG/1.1/DTD/svg11.dtd">
<svg version="1.1" id="Layer_1" xmlns="http://www.w3.org/2000/svg" xmlns:xlink="http://www.w3.org/1999/xlink" x="0px" y="0px"
	 width="501px" height="104px" viewBox="0 0 501 104" style="enable-background:new 0 0 501 104;" xml:space="preserve">
<style type="text/css">
<![CDATA[
	.st0{fill:#EB6D82;}
	.st1{fill:#FFD350;}
	.st2{fill:#FFFFFF;}
	.st3{fill:#6BD598;}
]]>
</style>
<g>
	<g>
		<path class="st3" d="M103.3,52c0,28.3-22.9,51.2-51.2,51.2C23.8,103.2,0.9,80.3,0.9,52c0-28.3,22.9-51.2,51.2-51.2
			C80.4,0.8,103.3,23.7,103.3,52"/>
		<path d="M78.7,41.1c-1.3-1-2.4-1.9-3.5-2.6c-2.3-1.5-4.8-2.6-8.1-3.4c-4.5-1.1-9.5-1.6-15-1.6c-5.5,0-10.6,0.6-15,1.6
			c-3.2,0.8-5.8,1.8-8.1,3.4c-1.1,0.7-2.2,1.5-3.5,2.6c-1.8,1.4-4,3.3-5.9,5.5c-1.1,1.3-2.5,3.3-1.9,4.7l0,0.1
			c0.4,1.3,2.2,4.5,5.9,7.5c2.7,2.2,6,3.9,9.7,5.2c4.7,1.6,13.9,2.4,18.7,2.4c4.6,0,13.9-0.8,18.7-2.4c3.8-1.2,7-3,9.7-5.2
			c3.7-3,5.4-6.2,5.9-7.5l0-0.1c0.6-1.4-0.8-3.4-1.9-4.7C82.7,44.4,80.4,42.5,78.7,41.1"/>
		<path class="st1" d="M27.2,63.8c0,0,19.6,11.7,50.1,1c0,0-9.6-13.6-24.5-6.5C52.8,58.4,37.4,50.7,27.2,63.8"/>
		<path d="M50.8,61.2c0,0,2.7-5.5,12-6.1l-1.5-4.3C61.2,50.8,53,53.8,50.8,61.2"/>
		<path class="st2" d="M51.6,40c0,0.8-0.7,1.5-1.5,1.5h-9.6c-0.8,0-1.5-0.7-1.5-1.5v-8.4c0-0.8,0.7-1.5,1.5-1.5h9.6
			c0.8,0,1.5,0.7,1.5,1.5V40z"/>
		<path class="st2" d="M38.1,38.6c0,0.8-0.7,1.5-1.5,1.5H27c-0.8,0-1.5-0.7-1.5-1.5v-8.4c0-0.8,0.7-1.5,1.5-1.5h9.6
			c0.8,0,1.5,0.7,1.5,1.5V38.6z"/>
		<path class="st2" d="M52.6,40c0,0.8,0.7,1.5,1.5,1.5h9.6c0.8,0,1.5-0.7,1.5-1.5v-8.4c0-0.8-0.7-1.5-1.5-1.5h-9.6
			c-0.8,0-1.5,0.7-1.5,1.5V40z"/>
		<path class="st2" d="M66.1,38.6c0,0.8,0.7,1.5,1.5,1.5h9.6c0.8,0,1.5-0.7,1.5-1.5v-8.4c0-0.8-0.7-1.5-1.5-1.5h-9.6
			c-0.8,0-1.5,0.7-1.5,1.5V38.6z"/>
		<path class="st0" d="M90.7,40.2c-3.8-8.4-13.9-14-22-18.5l-0.2-0.1c-3.3-1.8-6-3-9-3c-1.7,0-3.6,0.4-5.7,1.2
			c-0.5,0.2-1,0.3-1.5,0.3H52c-0.5,0-1.1-0.1-1.5-0.3c-2.2-0.8-4-1.2-5.7-1.2c-3,0-5.6,1.1-9,3l-0.2,0.1c-8.1,4.5-18.2,10.1-22,18.5
			c-1.8,4.1-2.2,9.1-1.2,14.9c1.1,6,3.4,11.3,5.2,14.7c2.7,5.2,7.5,9.3,14.2,12c5.8,2.4,12.8,3.7,20.3,3.7c7.4,0,14.5-1.3,20.3-3.7
			c6.7-2.8,11.5-6.8,14.2-12c1.8-3.4,4.1-8.7,5.2-14.7C92.9,49.2,92.5,44.2,90.7,40.2 M86.4,51.3L86.4,51.3
			c-0.5,1.4-2.3,4.6-5.9,7.6c-2.7,2.2-6,3.9-9.7,5.2c-4.7,1.6-14.1,2.4-18.7,2.4c-4.7,0-13.9-0.8-18.7-2.4c-3.8-1.2-7-3-9.7-5.2
			c-3.7-3-5.4-6.2-5.9-7.5l0-0.1c-0.6-1.4,0.8-3.4,1.9-4.7c1.8-2.2,4.1-4.1,5.9-5.5c1.3-1,2.4-1.9,3.5-2.6c2.3-1.5,4.8-2.6,8.1-3.4
			c4.5-1.1,9.5-1.6,15-1.6c5.5,0,10.6,0.6,15,1.6c3.2,0.8,5.8,1.8,8.1,3.4c1.1,0.7,2.2,1.5,3.5,2.6c1.8,1.4,4,3.3,5.9,5.5
			C85.6,47.9,87,49.9,86.4,51.3"/>
		<path d="M52.8,86.6c0.1,0,0.1,0,0.2,0c7.2-0.1,13.9-1.4,19.6-3.8c7-2.9,12-7.1,14.9-12.6c1.8-3.4,4.2-8.8,5.3-14.9
			c1.1-6.1,0.7-11.3-1.3-15.7c-1.8-3.9-5-7.6-9.7-11.2c-4.1-3.1-8.6-5.5-12.5-7.7L69,20.6c-3.4-1.9-6.4-3.2-9.7-3.2
			c-1.9,0-3.9,0.4-6.3,1.3c-0.2,0.1-0.5,0.1-0.8,0.1H52c-0.3,0-0.5,0-0.8-0.1c-2.4-0.9-4.4-1.3-6.3-1.3c-3.3,0-6.3,1.3-9.7,3.2
			L35,20.7c-4,2.2-8.5,4.7-12.5,7.7c-4.8,3.6-8,7.3-9.7,11.2c-2,4.3-2.4,9.6-1.3,15.7c1.1,6.1,3.5,11.4,5.3,14.9
			c2.9,5.5,7.9,9.8,14.9,12.6c5.6,2.3,12.4,3.6,19.5,3.7C51.1,86.6,52.8,86.6,52.8,86.6 M90.8,55c-1.1,5.8-3.3,11-5.1,14.3
			c-2.7,5.1-7.3,9-13.9,11.7c-5.7,2.3-12.5,3.6-19.7,3.6c-7.2,0-14.1-1.3-19.7-3.6c-6.5-2.7-11.2-6.6-13.9-11.7
			c-1.7-3.3-4-8.5-5.1-14.3c-1-5.6-0.6-10.5,1.1-14.5c3.7-8.2,13.5-13.6,21.4-18l0.2-0.1c3.2-1.8,5.8-2.9,8.7-2.9
			c1.7,0,3.5,0.4,5.6,1.2c0.5,0.2,1,0.3,1.5,0.3h0.2c0.5,0,1-0.1,1.5-0.3c2.1-0.8,3.9-1.2,5.6-1.2c2.9,0,5.5,1.1,8.7,2.9l0.2,0.1
			c7.9,4.4,17.7,9.8,21.4,18C91.4,44.4,91.8,49.3,90.8,55"/>
		<path d="M84.8,45.5c-1.9-2.3-4.1-4.2-5.9-5.6c-1.3-1-2.4-1.9-3.4-2.6c-2.4-1.6-5-2.7-8.3-3.5c-4.5-1.1-9.5-1.6-15.1-1.6h0h0
			c-5.5,0-10.6,0.5-15.1,1.6c-3.3,0.8-6,1.9-8.3,3.5c-1,0.7-2.1,1.5-3.4,2.6c-1.8,1.4-4,3.3-5.9,5.6c-1,1.2-3.2,3.9-2.1,6.6
			c0.2,0.5,1.6,4.2,6.1,8c2.7,2.3,6.1,4.1,9.9,5.4C38,67,45.5,68,52.1,68c6.5,0,14.1-1,18.8-2.6c3.8-1.3,7.1-3.1,9.9-5.4
			c4.5-3.7,5.9-7.5,6.1-8C88,49.4,85.7,46.6,84.8,45.5 M85,51.2L85,51.2c-0.5,1.3-2.2,4.4-5.7,7.3c-2.6,2.1-5.7,3.8-9.3,5
			c-4.5,1.5-13.5,2.3-17.9,2.3c-4.5,0-13.3-0.8-17.9-2.3c-3.6-1.2-6.8-2.9-9.3-5c-3.5-2.8-5.2-6-5.6-7.2l0-0.1
			C18.6,49.9,20,48,21,46.7c1.7-2.1,3.9-3.9,5.6-5.3c1.3-1,2.3-1.8,3.3-2.5c2.2-1.5,4.6-2.5,7.7-3.2c4.3-1,9.1-1.6,14.4-1.6
			c5.3,0,10.1,0.6,14.4,1.6c3.1,0.7,5.6,1.8,7.7,3.2c1,0.7,2.1,1.5,3.3,2.5c1.7,1.3,3.9,3.2,5.6,5.3C84.2,48,85.6,49.9,85,51.2"/>
	</g>
	<g>
		<path d="M131.7,25.6h3.9v11.2h6.2v3.4h-6.2V67h-3.9V40.2h-5.3v-3.4h5.3V25.6z"/>
		<path d="M153.2,25.2h3.9v17.1c1.6-2.1,3.3-3.6,5.2-4.6c1.9-1,3.9-1.5,6.1-1.5c2.3,0,4.3,0.6,6,1.7c1.7,1.1,3,2.7,3.9,4.6
			c0.8,1.9,1.2,5,1.2,9.1V67h-3.9V52.6c0-3.5-0.1-5.8-0.4-7c-0.5-2-1.4-3.5-2.6-4.5c-1.3-1-2.9-1.5-5-1.5c-2.4,0-4.5,0.8-6.3,2.3
			c-1.9,1.6-3.1,3.5-3.7,5.8c-0.4,1.5-0.6,4.2-0.6,8.2V67h-3.9V25.2z"/>
		<path d="M217.1,57l3.3,1.7c-1.1,2.1-2.3,3.8-3.7,5.1c-1.4,1.3-3,2.3-4.8,3c-1.8,0.7-3.8,1-6,1c-4.9,0-8.8-1.6-11.6-4.8
			c-2.8-3.2-4.2-6.9-4.2-11c0-3.8,1.2-7.2,3.5-10.2c3-3.8,7-5.7,12-5.7c5.2,0,9.3,2,12.3,5.9c2.2,2.8,3.3,6.2,3.3,10.3h-27.2
			c0.1,3.5,1.2,6.4,3.4,8.6c2.2,2.2,4.8,3.4,8,3.4c1.5,0,3-0.3,4.5-0.8c1.5-0.5,2.7-1.2,3.7-2.1C214.9,60.4,216,59,217.1,57z
			 M217.1,48.9c-0.5-2.1-1.3-3.7-2.3-5c-1-1.2-2.3-2.2-3.9-3c-1.6-0.8-3.3-1.1-5.1-1.1c-3,0-5.5,1-7.6,2.9c-1.6,1.4-2.7,3.5-3.5,6.2
			H217.1z"/>
		<path d="M249.9,36.8v3.3c1.4-1.4,2.9-2.4,4.4-3.1c1.6-0.7,3.3-1,5.1-1c3.9,0,7.3,1.5,10.1,4.5c2.8,3,4.1,6.8,4.1,11.5
			c0,4.5-1.4,8.3-4.3,11.3c-2.8,3-6.2,4.5-10.1,4.5c-1.7,0-3.4-0.3-4.9-0.9c-1.5-0.6-3-1.6-4.5-3v14.2h-7.5V36.8H249.9z M257.9,43
			c-2.4,0-4.4,0.8-5.9,2.4c-1.6,1.6-2.4,3.8-2.4,6.4c0,2.7,0.8,4.9,2.4,6.5c1.6,1.7,3.6,2.5,5.9,2.5c2.3,0,4.3-0.8,5.8-2.5
			c1.6-1.7,2.4-3.8,2.4-6.4c0-2.6-0.8-4.7-2.3-6.4C262.2,43.9,260.2,43,257.9,43z"/>
		<path d="M298.3,36c2.9,0,5.5,0.7,8,2.1c2.5,1.4,4.5,3.4,5.9,5.8c1.4,2.4,2.1,5.1,2.1,7.9c0,2.9-0.7,5.5-2.1,8
			c-1.4,2.5-3.3,4.4-5.8,5.8c-2.4,1.4-5.1,2.1-8.1,2.1c-4.3,0-8-1.5-11.1-4.6c-3.1-3.1-4.6-6.8-4.6-11.2c0-4.7,1.7-8.7,5.2-11.8
			C290.8,37.4,294.3,36,298.3,36z M298.4,43.2c-2.4,0-4.3,0.8-5.9,2.5c-1.6,1.6-2.3,3.7-2.3,6.3c0,2.6,0.8,4.8,2.3,6.4
			c1.5,1.6,3.5,2.4,5.9,2.4s4.3-0.8,5.9-2.5c1.6-1.6,2.4-3.8,2.4-6.4c0-2.6-0.8-4.7-2.3-6.3C302.8,44,300.8,43.2,298.4,43.2z"/>
		<path d="M325.3,25.2h7.6V67h-7.6V25.2z"/>
		<path d="M342.1,36.8h7.7l7.8,19l8.7-19h7.8l-18.9,41.3h-7.8l6.2-13.3L342.1,36.8z"/>
		<path d="M404.8,36.8h7.6v25.9c0,5.1-1,8.9-3.1,11.3c-2.8,3.3-6.9,4.9-12.5,4.9c-3,0-5.5-0.4-7.5-1.1c-2-0.7-3.7-1.8-5.1-3.3
			c-1.4-1.4-2.4-3.2-3.1-5.2h8.4c0.7,0.8,1.7,1.5,2.9,1.9c1.2,0.4,2.5,0.7,4.1,0.7c2,0,3.7-0.3,4.9-0.9c1.2-0.6,2.1-1.4,2.6-2.4
			c0.5-1,0.8-2.7,0.8-5.2c-1.3,1.3-2.7,2.3-4.2,2.9c-1.5,0.6-3.1,0.9-5,0.9c-4.1,0-7.5-1.5-10.3-4.4c-2.8-2.9-4.2-6.6-4.2-11.1
			c0-4.8,1.5-8.6,4.4-11.5c2.7-2.6,5.9-3.9,9.6-3.9c1.7,0,3.4,0.3,4.9,1c1.5,0.6,3.1,1.7,4.7,3.2V36.8z M396.9,43.1
			c-2.4,0-4.4,0.8-5.9,2.4c-1.6,1.6-2.3,3.6-2.3,6c0,2.5,0.8,4.6,2.4,6.2c1.6,1.6,3.6,2.4,6,2.4c2.3,0,4.3-0.8,5.8-2.4
			c1.5-1.6,2.3-3.6,2.3-6.2c0-2.5-0.8-4.6-2.3-6.1C401.3,43.9,399.3,43.1,396.9,43.1z"/>
		<path d="M424.8,25.2h7.6V67h-7.6V25.2z"/>
		<path d="M459.2,36c2.9,0,5.5,0.7,8,2.1c2.5,1.4,4.5,3.4,5.9,5.8c1.4,2.4,2.1,5.1,2.1,7.9c0,2.9-0.7,5.5-2.1,8
			c-1.4,2.5-3.3,4.4-5.8,5.8c-2.4,1.4-5.1,2.1-8.1,2.1c-4.3,0-8-1.5-11.1-4.6c-3.1-3.1-4.6-6.8-4.6-11.2c0-4.7,1.7-8.7,5.2-11.8
			C451.8,37.4,455.2,36,459.2,36z M459.3,43.2c-2.4,0-4.3,0.8-5.9,2.5c-1.6,1.6-2.3,3.7-2.3,6.3c0,2.6,0.8,4.8,2.3,6.4
			c1.5,1.6,3.5,2.4,5.9,2.4c2.4,0,4.3-0.8,5.9-2.5c1.6-1.6,2.4-3.8,2.4-6.4c0-2.6-0.8-4.7-2.3-6.3C463.7,44,461.7,43.2,459.3,43.2z"
			/>
		<path d="M488,25.7h7.6v11.1h4.5v6.5h-4.5V67H488V43.3h-3.9v-6.5h3.9V25.7z"/>
	</g>
</g>
</svg>
