<?xml version="1.0" encoding="utf-8"?>
<!-- Generator: Adobe Illustrator 16.0.0, SVG Export Plug-In . SVG Version: 6.00 Build 0)  -->
<!DOCTYPE svg PUBLIC "-//W3C//DTD SVG 1.1//EN" "http://www.w3.org/Graphics/SVG/1.1/DTD/svg11.dtd">
<svg version="1.1" id="Layer_1" xmlns="http://www.w3.org/2000/svg" xmlns:xlink="http://www.w3.org/1999/xlink" x="0px" y="0px"
	 width="384px" height="384px" viewBox="0 0 384 384" style="enable-background:new 0 0 384 384;" xml:space="preserve">
<style type="text/css">
<![CDATA[
	.st0{fill:none;stroke:#000000;stroke-width:6.6318;stroke-miterlimit:10;}
	.st1{clip-path:url(#SVGID_2_);fill:#5ED395;stroke:#000000;stroke-width:6.6318;stroke-miterlimit:10;}
	.st2{clip-path:url(#SVGID_4_);}
	.st3{fill:#5F75A0;}
	.st4{fill:none;}
	.st5{fill:#5F75A0;stroke:#000000;stroke-width:6.6318;stroke-miterlimit:10;}
	.st6{clip-path:url(#SVGID_6_);fill-rule:evenodd;clip-rule:evenodd;fill:#231F20;}
]]>
</style>
<path class="st3" d="M383.2,48.2C383.2,22.1,362,1,336,1H48.3C22.3,1,1.2,22.1,1.2,48.2v287.6c0,26.1,21.1,47.2,47.2,47.2H336
	c26.1,0,47.2-21.1,47.2-47.2V48.2z M194.2,119.6c40.1,0,72.6,32.5,72.6,72.6c0,40.1-32.5,72.6-72.6,72.6
	c-40.1,0-72.6-32.5-72.6-72.6C121.6,152.1,154.1,119.6,194.2,119.6z M336.2,319.7c0,7.4-3.3,16.3-10.7,16.3H61
	c-7.4,0-15.8-8.9-15.8-16.3V162h36.5c-2.5,9-3.8,19.3-3.8,29.6c0,64.2,52.1,116.2,116.3,116.2c64.2,0,116.3-52,116.3-116.2
	c0-10.3-1.4-20.6-3.9-29.6h29.7V319.7z M340.2,105.6c0,7.4-6,13.4-13.4,13.4h-47.2c-7.4,0-13.4-6-13.4-13.4V58.4
	c0-7.4,6-13.4,13.4-13.4h47.2c7.4,0,13.4,6,13.4,13.4V105.6z"/>
</svg>
