<?xml version="1.0" encoding="utf-8"?>
<!-- Generator: Adobe Illustrator 16.0.0, SVG Export Plug-In . SVG Version: 6.00 Build 0)  -->
<!DOCTYPE svg PUBLIC "-//W3C//DTD SVG 1.1//EN" "http://www.w3.org/Graphics/SVG/1.1/DTD/svg11.dtd">
<svg version="1.1" id="Layer_1" xmlns="http://www.w3.org/2000/svg" xmlns:xlink="http://www.w3.org/1999/xlink" x="0px" y="0px"
	 width="365px" height="400px" viewBox="0 0 365 400" enable-background="new 0 0 365 400" xml:space="preserve">
<g>
	<g>
		<g>
			<defs>
				<path id="SVGID_1_" d="M181.169,165.533c-39.151,0-71.012,31.846-71.012,71.012c0,39.139,31.861,70.982,71.012,70.982
					c39.147,0,70.999-31.846,70.999-70.982C252.168,197.379,220.316,165.533,181.169,165.533z M175.809,210.908
					c-0.764,0.265-15.369,5.331-18.947,23.996c-0.764,4.027-4.311,6.838-8.279,6.838c-0.523,0-1.056-0.051-1.597-0.149
					c-4.584-0.862-7.579-5.292-6.697-9.86c5.541-29.047,29.53-36.646,30.554-36.955c4.442-1.36,9.179,1.151,10.526,5.621
					C182.706,204.85,180.227,209.532,175.809,210.908z"/>
			</defs>
			<clipPath id="SVGID_2_">
				<use xlink:href="#SVGID_1_"  overflow="visible"/>
			</clipPath>
			<g clip-path="url(#SVGID_2_)">
				<rect x="-285.031" y="-101.742" fill="none" width="871.15" height="871.15"/>
				<g>
					<polygon fill="none" points="-285.031,-101.742 586.119,-101.742 586.119,769.408 -285.031,769.408 					"/>
					<polygon fill="#5F75A0" points="-285.031,769.408 -285.031,-101.742 586.119,-101.742 586.119,769.408 					"/>
				</g>
			</g>
			<g clip-path="url(#SVGID_2_)">
				<rect x="-285.031" y="-101.742" fill="none" width="871.15" height="871.15"/>
				<g>
					<polygon fill="none" points="-285.031,-101.742 586.119,-101.742 586.119,769.408 -285.031,769.408 					"/>
					<polygon fill="#5F75A0" points="-285.031,769.408 -285.031,-101.742 586.119,-101.742 586.119,769.408 					"/>
				</g>
			</g>
		</g>
	</g>
	<g>
		<g>
			<defs>
				<path id="SVGID_3_" d="M336.525,37H164.034l-7.339-18.991C151.303,4.131,135.669,1,127.54,1H77.231
					C68.91,1,53.294,4.131,47.909,18.009L40.562,37H25.81C11.83,37,1,47.132,1,61.129v310.708C1,385.82,11.83,399,25.81,399h310.715
					C350.505,399,364,385.82,364,371.838V61.129C364,47.132,350.522,37,336.525,37z M181.169,339.848
					c-56.958,0-103.323-46.347-103.323-103.303c0-56.985,46.357-103.332,103.323-103.332c56.974,0,103.319,46.347,103.319,103.332
					C284.488,293.501,238.143,339.848,181.169,339.848z M317,111.104c0,6.542-4.146,11.896-10.693,11.896h-32.619
					c-6.557,0-11.688-5.354-11.688-11.896V87.39c0-6.572,5.131-9.39,11.688-9.39h32.619C312.854,78,317,80.817,317,87.39V111.104z"
					/>
			</defs>
			<clipPath id="SVGID_4_">
				<use xlink:href="#SVGID_3_"  overflow="visible"/>
			</clipPath>
			<g clip-path="url(#SVGID_4_)">
				<rect x="165.264" y="397.201" fill="none" width="1045.076" height="1045.076"/>
				<g>
					<polygon fill="none" points="165.264,397.201 1210.34,397.201 1210.34,1442.277 165.264,1442.277 					"/>
					<polygon fill="#5F75A0" points="165.264,1442.277 165.264,397.201 1210.34,397.201 1210.34,1442.277 					"/>
				</g>
			</g>
			<g clip-path="url(#SVGID_4_)">
				<rect x="165.264" y="-647.875" fill="none" width="1045.076" height="1045.076"/>
				<g>
					<polygon fill="none" points="165.264,-647.875 1210.34,-647.875 1210.34,397.201 165.264,397.201 					"/>
					<polygon fill="#5F75A0" points="165.264,397.201 165.264,-647.875 1210.34,-647.875 1210.34,397.201 					"/>
				</g>
			</g>
			<g clip-path="url(#SVGID_4_)">
				<rect x="-879.812" y="397.201" fill="none" width="1045.076" height="1045.076"/>
				<g>
					<polygon fill="none" points="-879.812,397.201 165.264,397.201 165.264,1442.277 -879.812,1442.277 					"/>
					<polygon fill="#5F75A0" points="-879.812,1442.277 -879.812,397.201 165.264,397.201 165.264,1442.277 					"/>
				</g>
			</g>
			<g clip-path="url(#SVGID_4_)">
				<rect x="-879.812" y="-647.875" fill="none" width="1045.076" height="1045.076"/>
				<g>
					<polygon fill="none" points="-879.812,-647.875 165.264,-647.875 165.264,397.201 -879.812,397.201 					"/>
					<polygon fill="#5F75A0" points="-879.812,397.201 -879.812,-647.875 165.264,-647.875 165.264,397.201 					"/>
				</g>
			</g>
			<g clip-path="url(#SVGID_4_)">
				<rect x="165.264" y="-647.875" fill="none" width="1045.076" height="1045.076"/>
				<g>
					<polygon fill="none" points="165.264,-647.875 1210.34,-647.875 1210.34,397.201 165.264,397.201 					"/>
					<polygon fill="#5F75A0" points="165.264,397.201 165.264,-647.875 1210.34,-647.875 1210.34,397.201 					"/>
				</g>
			</g>
			<g clip-path="url(#SVGID_4_)">
				<rect x="-879.812" y="-647.875" fill="none" width="1045.076" height="1045.076"/>
				<g>
					<polygon fill="none" points="-879.812,-647.875 165.264,-647.875 165.264,397.201 -879.812,397.201 					"/>
					<polygon fill="#5F75A0" points="-879.812,397.201 -879.812,-647.875 165.264,-647.875 165.264,397.201 					"/>
				</g>
			</g>
			<g clip-path="url(#SVGID_4_)">
				<rect x="165.25" y="-647.875" fill="none" width="1045.076" height="1045.076"/>
				<g>
					<polygon fill="none" points="165.25,-647.875 1210.326,-647.875 1210.326,397.201 165.25,397.201 					"/>
					<polygon fill="#5F75A0" points="165.25,397.201 165.25,-647.875 1210.326,-647.875 1210.326,397.201 					"/>
				</g>
			</g>
		</g>
	</g>
</g>
</svg>
