<?xml version="1.0" encoding="utf-8"?>
<!-- Generator: Adobe Illustrator 16.0.0, SVG Export Plug-In . SVG Version: 6.00 Build 0)  -->
<!DOCTYPE svg PUBLIC "-//W3C//DTD SVG 1.1//EN" "http://www.w3.org/Graphics/SVG/1.1/DTD/svg11.dtd">
<svg version="1.1" id="Layer_1" xmlns="http://www.w3.org/2000/svg" xmlns:xlink="http://www.w3.org/1999/xlink" x="0px" y="0px"
	 width="492px" height="400px" viewBox="0 0 492 400" enable-background="new 0 0 492 400" xml:space="preserve">
<path fill="#5F75A0" d="M490.873,48.105c-18.027,7.986-37.369,13.389-57.689,15.767c20.73-12.408,36.674-32.026,44.078-55.496
	c-19.334,11.533-40.848,19.851-63.791,24.356C395.205,13.208,369.098,1,340.225,1c-55.533,0-100.449,44.927-100.449,100.456
	c0,7.93,0.842,15.561,2.516,22.91C158.848,120.187,84.809,80.226,35.26,19.454C26.582,34.29,21.623,51.463,21.623,69.84
	c0,34.93,16.351,65.703,43.317,83.687C48.448,153,35,148.461,18,141.024c0,0.371,0,0.759,0,1.191
	c0,48.685,36.034,89.312,82.03,98.565c-8.422,2.289-16.667,3.498-25.755,3.498c-6.541,0-12.446-0.682-18.608-1.83
	c12.836,39.885,50.102,68.996,94.021,69.771c-34.387,26.949-77.591,42.994-124.612,42.994c-8.131,0-16.1-0.477-23.947-1.387
	C45.662,382.381,98.356,399,155.165,399C339.917,399,441,245.896,441,113.077c0-4.295-0.049-8.618-0.27-13.012
	C460.381,85.961,477.4,68.25,490.873,48.105z M361.998,71.303c-7.076,0-12.807-5.747-12.807-12.818c0-7.088,5.73-12.84,12.807-12.84
	c7.094,0,12.83,5.752,12.83,12.84C374.828,65.556,369.092,71.303,361.998,71.303z"/>
</svg>
