<?xml version="1.0" encoding="utf-8"?>
<!-- Generator: Adobe Illustrator 16.0.0, SVG Export Plug-In . SVG Version: 6.00 Build 0)  -->
<!DOCTYPE svg PUBLIC "-//W3C//DTD SVG 1.1//EN" "http://www.w3.org/Graphics/SVG/1.1/DTD/svg11.dtd">
<svg version="1.1" id="Layer_1" xmlns="http://www.w3.org/2000/svg" xmlns:xlink="http://www.w3.org/1999/xlink" x="0px" y="0px"
	 width="612px" height="612px" viewBox="0 0 612 612" style="enable-background:new 0 0 612 612;" xml:space="preserve">
<style type="text/css">
<![CDATA[
	.st0{fill:#EB6D82;}
	.st1{enable-background:new    ;}
	.st2{opacity:0.6;enable-background:new    ;}
	.st3{fill:#FFFFFF;}
	.st4{fill:#312F32;}
	.st5{fill:#D46276;}
]]>
</style>
<rect class="st0" width="612" height="612"/>
<path class="st2" d="M45,102c-14.8-0.1-20.6,3.6-19.1,19.4c4.6,51.7,30,326.3,36.4,422.5c0.7,11.2,4.4,15.4,15.6,15.3
	c20.2-0.2,343.2,4.9,446.2,10.1c13.6,0.7,16.9-4.4,17.3-17.3c1.5-53.9,11.4-338.3,15.4-440.1c0.5-12.2-2.4-15-13.8-15.1
	C506.6,96.4,105.8,102.4,45,102z"/>
<path class="st2" d="M65.9,17.3c-1.6,0.2-11.2,77.5-11.2,77.5s1,7.1-9.1,7.1l4.8,13.6h66.8v-14.1c0,0-4.8,0.2-9.6-6.3L68.5,20
	C68.5,20,67.5,17.1,65.9,17.3z"/>
<path class="st3" d="M57.9,89.1c-14.8-0.1-20.6,3.6-19.1,19.4c4.6,51.7,30,326.3,36.4,422.5c0.7,11.2,4.4,15.4,15.6,15.3
	c20.2-0.2,343.2,4.9,446.2,10.1c13.6,0.7,16.9-4.4,17.3-17.3c1.5-53.9,11.4-338.3,15.4-440.1c0.5-12.2-2.4-15-13.8-15.1
	C519.5,83.5,118.7,89.5,57.9,89.1z"/>
<path class="st3" d="M65.5,18.9v63c0,0,1,7.1-9.1,7.1v13.6h66.8v-14c0,0-4.8,0.2-9.5-6.3L68.3,18.9C68.3,18.9,65.7,14.8,65.5,18.9z"
	/>
<g class="st1">
	<path class="st4" d="M248.2,161c0-0.5,0.5-1,1-1h8.9c6,0,10.1,3.1,10.1,8.3v0.1c0,5.7-5,8.7-10.6,8.7h-7.4v9.3c0,0.5-0.5,1-1,1
		s-1-0.5-1-1V161z M257.7,175.3c5.1,0,8.5-2.7,8.5-6.7v-0.1c0-4.3-3.4-6.6-8.3-6.6h-7.7v13.4H257.7z"/>
	<path class="st4" d="M274.2,186.3V161c0-0.5,0.5-1,1-1h17.6c0.5,0,0.9,0.4,0.9,0.9s-0.4,0.9-0.9,0.9h-16.6v10.7h14.9
		c0.5,0,0.9,0.4,0.9,0.9s-0.4,0.9-0.9,0.9h-14.9v11h16.8c0.5,0,0.9,0.4,0.9,0.9c0,0.5-0.4,0.9-0.9,0.9h-17.8
		C274.7,187.3,274.2,186.9,274.2,186.3z"/>
	<path class="st4" d="M300.4,160.9c0-0.5,0.5-1,1-1h0.3c0.4,0,0.7,0.2,1,0.6l18.4,23.4v-23c0-0.5,0.4-1,1-1s1,0.4,1,1v25.7
		c0,0.5-0.4,0.9-0.8,0.9h-0.2c-0.4,0-0.7-0.3-1-0.7L302.3,163v23.5c0,0.5-0.4,1-1,1s-1-0.4-1-1V160.9z"/>
	<path class="st4" d="M330,173.7L330,173.7c0-7.8,5.8-14.2,13.7-14.2c4.5,0,7.4,1.6,10,3.8c0.2,0.2,0.4,0.5,0.4,0.8
		c0,0.5-0.5,1-1.1,1c-0.3,0-0.5-0.1-0.7-0.3c-2.3-2.1-4.9-3.5-8.7-3.5c-6.6,0-11.5,5.3-11.5,12.2v0.1c0,6.9,5,12.3,11.5,12.3
		c3.7,0,6.3-1.3,8.9-3.8c0.2-0.2,0.4-0.3,0.7-0.3c0.5,0,1,0.5,1,1c0,0.3-0.2,0.5-0.3,0.7c-2.8,2.6-5.8,4.3-10.3,4.3
		C335.7,187.8,330,181.6,330,173.7z"/>
	<path class="st4" d="M360.2,160.9c0-0.5,0.5-1,1-1c0.5,0,1,0.5,1,1v25.6c0,0.5-0.5,1-1,1c-0.5,0-1-0.5-1-1V160.9z"/>
	<path class="st4" d="M370.6,160.9c0-0.5,0.5-1,1-1s1,0.5,1,1v24.6h15.2c0.5,0,0.9,0.4,0.9,0.9c0,0.5-0.4,0.9-0.9,0.9h-16.3
		c-0.5,0-1-0.5-1-1V160.9z"/>
</g>
<g class="st1">
	<path class="st4" d="M247,231.7L247,231.7c0-7.8,5.8-14.2,13.7-14.2c4.5,0,7.4,1.6,10,3.8c0.2,0.2,0.4,0.5,0.4,0.8
		c0,0.5-0.5,1-1.1,1c-0.3,0-0.5-0.1-0.7-0.3c-2.3-2.1-4.9-3.5-8.7-3.5c-6.6,0-11.5,5.3-11.5,12.2v0.1c0,6.9,5,12.3,11.5,12.3
		c3.7,0,6.3-1.3,8.9-3.8c0.2-0.2,0.4-0.3,0.7-0.3c0.5,0,1,0.5,1,1c0,0.3-0.2,0.5-0.3,0.7c-2.8,2.6-5.8,4.3-10.3,4.3
		C252.7,245.8,247,239.6,247,231.7z"/>
	<path class="st4" d="M277,219c0-0.5,0.5-1,1-1h10.5c3.4,0,6,1.1,7.7,2.7c1.3,1.3,2.1,3.1,2.1,5.1v0.1c0,4.6-3.4,7.2-8,7.8l7.8,10.1
		c0.2,0.2,0.3,0.5,0.3,0.7c0,0.5-0.5,1.1-1.1,1.1c-0.4,0-0.7-0.2-0.9-0.5l-8.4-10.9H279v10.5c0,0.5-0.5,1-1,1c-0.5,0-1-0.5-1-1V219z
		 M288.2,232.2c4.6,0,8-2.3,8-6.2v-0.1c0-3.7-2.9-6-7.8-6H279v12.3H288.2z"/>
	<path class="st4" d="M303.4,244l11.7-25.3c0.3-0.6,0.7-1,1.4-1h0.1c0.7,0,1.1,0.4,1.4,1l11.6,25.2c0.1,0.2,0.2,0.4,0.2,0.6
		c0,0.5-0.4,0.9-1,0.9c-0.5,0-0.8-0.4-1-0.8l-3.2-7h-16.1l-3.2,7.1c-0.2,0.5-0.5,0.7-1,0.7c-0.5,0-0.9-0.4-0.9-0.9
		C303.3,244.5,303.3,244.2,303.4,244z M323.7,235.8l-7.2-15.8l-7.2,15.8H323.7z"/>
	<path class="st4" d="M340.6,234.5l-10.6-15c-0.1-0.2-0.2-0.4-0.2-0.6c0-0.5,0.5-1,1.1-1c0.4,0,0.7,0.2,0.9,0.6l9.9,14.2l9.9-14.2
		c0.2-0.3,0.5-0.6,0.9-0.6c0.5,0,1,0.5,1,1c0,0.3-0.2,0.5-0.3,0.8l-10.6,14.9v10c0,0.5-0.5,1-1,1s-1-0.5-1-1V234.5z"/>
	<path class="st4" d="M356.1,231.7L356.1,231.7c0-7.5,5.5-14.2,13.8-14.2c8.3,0,13.7,6.6,13.7,14v0.1c0,7.4-5.5,14.1-13.8,14.1
		S356.1,239.2,356.1,231.7z M381.4,231.7L381.4,231.7c0-6.8-4.9-12.4-11.7-12.4s-11.6,5.5-11.6,12.2v0.1c0,6.7,4.9,12.3,11.7,12.3
		C376.6,244,381.4,238.5,381.4,231.7z"/>
	<path class="st4" d="M390.4,218.9c0-0.5,0.5-1,1-1h0.3c0.4,0,0.7,0.2,1,0.6l18.4,23.4v-23c0-0.5,0.4-1,1-1c0.5,0,1,0.4,1,1v25.7
		c0,0.5-0.4,0.9-0.8,0.9h-0.2c-0.4,0-0.7-0.3-1-0.7L392.4,221v23.5c0,0.5-0.4,1-1,1c-0.5,0-1-0.4-1-1V218.9z"/>
</g>
<g class="st1">
	<path class="st4" d="M248.2,276.9c0-0.5,0.5-1,1-1s1,0.5,1,1v24.6h15.2c0.5,0,0.9,0.4,0.9,0.9c0,0.5-0.4,0.9-0.9,0.9h-16.3
		c-0.5,0-1-0.5-1-1V276.9z"/>
	<path class="st4" d="M270.6,302l11.7-25.3c0.3-0.6,0.7-1,1.4-1h0.1c0.7,0,1.1,0.4,1.4,1l11.6,25.2c0.1,0.2,0.2,0.4,0.2,0.6
		c0,0.5-0.4,0.9-1,0.9c-0.5,0-0.8-0.4-1-0.8l-3.2-7h-16.1l-3.2,7.1c-0.2,0.5-0.5,0.7-1,0.7c-0.5,0-0.9-0.4-0.9-0.9
		C270.5,302.5,270.5,302.2,270.6,302z M290.8,293.8l-7.2-15.8l-7.2,15.8H290.8z M283.1,272.9c0-0.2,0.1-0.3,0.2-0.4l2.4-3.6
		c0.3-0.5,0.6-0.7,1.1-0.7c0.7,0,1.6,0.5,1.6,0.9c0,0.2-0.2,0.5-0.4,0.7l-3.1,3c-0.5,0.4-0.7,0.5-1.2,0.5
		C283.4,273.2,283.1,273.1,283.1,272.9z"/>
	<path class="st4" d="M303.1,277c0-0.5,0.5-1,1-1h8.9c6,0,10.1,3.1,10.1,8.3v0.1c0,5.7-5,8.7-10.6,8.7h-7.4v9.3c0,0.5-0.5,1-1,1
		s-1-0.5-1-1V277z M312.7,291.3c5.1,0,8.5-2.7,8.5-6.7v-0.1c0-4.3-3.4-6.6-8.3-6.6h-7.7v13.4H312.7z"/>
	<path class="st4" d="M329.5,276.9c0-0.5,0.5-1,1-1s1,0.5,1,1v25.6c0,0.5-0.5,1-1,1s-1-0.5-1-1V276.9z"/>
	<path class="st4" d="M338.6,302.5L338.6,302.5c0-0.4,0.1-0.6,0.4-0.9l18.2-23.7h-17.2c-0.5,0-0.9-0.4-0.9-0.9s0.4-0.9,0.9-0.9h19
		c0.5,0,1,0.4,1,0.9v0c0,0.4-0.1,0.5-0.4,0.9l-18.2,23.7h17.9c0.5,0,0.9,0.4,0.9,0.9c0,0.5-0.4,0.9-0.9,0.9h-19.7
		C339.1,303.3,338.6,302.9,338.6,302.5z"/>
</g>
<g class="st1">
	<path class="st4" d="M248.2,335c0-0.5,0.5-1,1-1h10.3c3.1,0,5.6,0.9,7.1,2.4c1.1,1.1,1.8,2.6,1.8,4.3v0.1c0,3.7-2.4,5.6-4.6,6.5
		c3.3,0.9,6.2,2.7,6.2,6.5v0.1c0,4.6-3.9,7.4-9.8,7.4h-10.8c-0.5,0-1-0.5-1-1V335z M259.2,346.6c4.1,0,7-2,7-5.6v-0.1
		c0-3-2.5-5-6.8-5h-9.2v10.7H259.2z M260.1,359.4c4.7,0,7.6-2.1,7.6-5.6v-0.1c0-3.4-2.9-5.3-8.3-5.3h-9.2v11H260.1z"/>
	<path class="st4" d="M276.3,334.9c0-0.5,0.5-1,1-1s1,0.5,1,1v24.6h15.2c0.5,0,0.9,0.4,0.9,0.9c0,0.5-0.4,0.9-0.9,0.9h-16.3
		c-0.5,0-1-0.5-1-1V334.9z"/>
	<path class="st4" d="M300.5,360.3V335c0-0.5,0.5-1,1-1h17.6c0.5,0,0.9,0.4,0.9,0.9s-0.4,0.9-0.9,0.9h-16.6v10.7h14.9
		c0.5,0,0.9,0.4,0.9,0.9s-0.4,0.9-0.9,0.9h-14.9v11h16.8c0.5,0,0.9,0.4,0.9,0.9c0,0.5-0.4,0.9-0.9,0.9h-17.8
		C301,361.3,300.5,360.9,300.5,360.3z"/>
	<path class="st4" d="M326.9,334.9c0-0.5,0.5-1,1-1c0.5,0,1,0.5,1,1v25.6c0,0.5-0.5,1-1,1c-0.5,0-1-0.5-1-1V334.9z"/>
	<path class="st4" d="M336.2,357.9c-0.2-0.2-0.4-0.4-0.4-0.8c0-0.5,0.5-1,1-1c0.3,0,0.5,0.1,0.7,0.2c2.7,2.5,5.5,3.5,9.2,3.5
		c4.1,0,6.9-2.3,6.9-5.4v-0.1c0-2.9-1.5-4.6-7.7-5.8c-6.6-1.3-9.2-3.5-9.2-7.7v-0.1c0-4.1,3.7-7.2,8.8-7.2c3.7,0,6.2,0.9,8.7,2.8
		c0.2,0.2,0.4,0.4,0.4,0.8c0,0.5-0.5,1-1,1c-0.2,0-0.5-0.1-0.7-0.2c-2.4-1.8-4.8-2.6-7.5-2.6c-4,0-6.7,2.3-6.7,5.1v0.1
		c0,2.9,1.5,4.6,8,6c6.3,1.3,9,3.5,9,7.5v0.1c0,4.4-3.8,7.4-9,7.4C342.4,361.7,339.2,360.4,336.2,357.9z"/>
	<path class="st4" d="M369.2,335.9h-8.7c-0.5,0-0.9-0.4-0.9-0.9s0.4-0.9,0.9-0.9H380c0.5,0,0.9,0.4,0.9,0.9s-0.4,0.9-0.9,0.9h-8.7
		v24.6c0,0.5-0.5,1-1,1c-0.5,0-1-0.5-1-1V335.9z"/>
	<path class="st4" d="M387.2,334.9c0-0.5,0.5-1,1-1s1,0.5,1,1v25.6c0,0.5-0.5,1-1,1s-1-0.5-1-1V334.9z"/>
	<path class="st4" d="M397.6,335c0-0.5,0.5-1,1-1h17.4c0.5,0,0.9,0.4,0.9,0.9s-0.4,0.9-0.9,0.9h-16.4v11.2h14.7
		c0.5,0,0.9,0.4,0.9,0.9s-0.4,0.9-0.9,0.9h-14.7v11.5c0,0.5-0.5,1-1,1c-0.5,0-1-0.5-1-1V335z"/>
	<path class="st4" d="M430.8,335.9H422c-0.5,0-0.9-0.4-0.9-0.9s0.4-0.9,0.9-0.9h19.5c0.5,0,0.9,0.4,0.9,0.9s-0.4,0.9-0.9,0.9h-8.7
		v24.6c0,0.5-0.5,1-1,1c-0.5,0-1-0.5-1-1V335.9z"/>
</g>
<g class="st1">
	<path class="st4" d="M248.2,392.9c0-0.5,0.5-1,1-1s1,0.5,1,1v24.6h15.2c0.5,0,0.9,0.4,0.9,0.9c0,0.5-0.4,0.9-0.9,0.9h-16.3
		c-0.5,0-1-0.5-1-1V392.9z"/>
	<path class="st4" d="M270.6,418l11.7-25.3c0.3-0.6,0.7-1,1.4-1h0.1c0.7,0,1.1,0.4,1.4,1l11.6,25.2c0.1,0.2,0.2,0.4,0.2,0.6
		c0,0.5-0.4,0.9-1,0.9c-0.5,0-0.8-0.4-1-0.8l-3.2-7h-16.1l-3.2,7.1c-0.2,0.5-0.5,0.7-1,0.7c-0.5,0-0.9-0.4-0.9-0.9
		C270.5,418.5,270.5,418.2,270.6,418z M290.8,409.8l-7.2-15.8l-7.2,15.8H290.8z M283.1,388.9c0-0.2,0.1-0.3,0.2-0.4l2.4-3.6
		c0.3-0.5,0.6-0.7,1.1-0.7c0.7,0,1.6,0.5,1.6,0.9c0,0.2-0.2,0.5-0.4,0.7l-3.1,3c-0.5,0.4-0.7,0.5-1.2,0.5
		C283.4,389.2,283.1,389.1,283.1,388.9z"/>
	<path class="st4" d="M303.1,393c0-0.5,0.5-1,1-1h8.9c6,0,10.1,3.1,10.1,8.3v0.1c0,5.7-5,8.7-10.6,8.7h-7.4v9.3c0,0.5-0.5,1-1,1
		s-1-0.5-1-1V393z M312.7,407.3c5.1,0,8.5-2.7,8.5-6.7v-0.1c0-4.3-3.4-6.6-8.3-6.6h-7.7v13.4H312.7z"/>
	<path class="st4" d="M329.5,392.9c0-0.5,0.5-1,1-1s1,0.5,1,1v25.6c0,0.5-0.5,1-1,1s-1-0.5-1-1V392.9z"/>
	<path class="st4" d="M338.7,415.9c-0.2-0.2-0.4-0.4-0.4-0.8c0-0.5,0.5-1,1-1c0.3,0,0.5,0.1,0.7,0.2c2.7,2.5,5.5,3.5,9.2,3.5
		c4.1,0,6.9-2.3,6.9-5.4v-0.1c0-2.9-1.5-4.6-7.7-5.8c-6.6-1.3-9.2-3.5-9.2-7.7v-0.1c0-4.1,3.7-7.2,8.8-7.2c3.7,0,6.2,0.9,8.7,2.8
		c0.2,0.2,0.4,0.4,0.4,0.8c0,0.5-0.5,1-1,1c-0.2,0-0.5-0.1-0.7-0.2c-2.4-1.8-4.8-2.6-7.5-2.6c-4,0-6.7,2.3-6.7,5.1v0.1
		c0,2.9,1.5,4.6,8,6c6.3,1.3,9,3.5,9,7.5v0.1c0,4.4-3.8,7.4-9,7.4C345,419.7,341.8,418.4,338.7,415.9z"/>
</g>
<g class="st1">
	<path class="st4" d="M248.2,450.9c0-0.5,0.5-1,1-1h0.2c0.4,0,0.7,0.2,1,0.6l10.6,15.7l10.6-15.7c0.2-0.4,0.6-0.6,1-0.6h0.2
		c0.5,0,1,0.5,1,1v25.5c0,0.5-0.5,1-1,1s-1-0.5-1-1v-22.9l-10,14.6c-0.2,0.4-0.5,0.5-0.9,0.5s-0.6-0.2-0.9-0.5l-10-14.6v22.9
		c0,0.5-0.4,1-1,1s-1-0.4-1-1V450.9z"/>
	<path class="st4" d="M280.3,476l11.7-25.3c0.3-0.6,0.7-1,1.4-1h0.1c0.7,0,1.1,0.4,1.4,1l11.6,25.2c0.1,0.2,0.2,0.4,0.2,0.6
		c0,0.5-0.4,0.9-1,0.9c-0.5,0-0.8-0.4-1-0.8l-3.2-7h-16.1l-3.2,7.1c-0.2,0.5-0.5,0.7-1,0.7c-0.5,0-0.9-0.4-0.9-0.9
		C280.2,476.5,280.2,476.2,280.3,476z M300.5,467.8l-7.2-15.8l-7.2,15.8H300.5z"/>
	<path class="st4" d="M316.9,451.9h-8.7c-0.5,0-0.9-0.4-0.9-0.9s0.4-0.9,0.9-0.9h19.5c0.5,0,0.9,0.4,0.9,0.9s-0.4,0.9-0.9,0.9h-8.7
		v24.6c0,0.5-0.5,1-1,1s-1-0.5-1-1V451.9z"/>
	<path class="st4" d="M334.9,450.9c0-0.5,0.5-1,1-1s1,0.5,1,1v25.6c0,0.5-0.5,1-1,1s-1-0.5-1-1V450.9z"/>
	<path class="st4" d="M352.9,451.9h-8.7c-0.5,0-0.9-0.4-0.9-0.9s0.4-0.9,0.9-0.9h19.5c0.5,0,0.9,0.4,0.9,0.9s-0.4,0.9-0.9,0.9h-8.7
		v24.6c0,0.5-0.5,1-1,1s-1-0.5-1-1V451.9z"/>
	<path class="st4" d="M365.3,476l11.7-25.3c0.3-0.6,0.7-1,1.4-1h0.1c0.7,0,1.1,0.4,1.4,1l11.6,25.2c0.1,0.2,0.2,0.4,0.2,0.6
		c0,0.5-0.4,0.9-1,0.9c-0.5,0-0.8-0.4-1-0.8l-3.2-7h-16.1l-3.2,7.1c-0.2,0.5-0.5,0.7-1,0.7c-0.5,0-0.9-0.4-0.9-0.9
		C365.2,476.5,365.2,476.2,365.3,476z M385.5,467.8l-7.2-15.8l-7.2,15.8H385.5z"/>
</g>
<g class="st1">
	<path class="st5" d="M156.9,180.1v-12.7c0-0.8,0.6-1.4,1.4-1.4h9c0.7,0,1.2,0.5,1.2,1.2c0,0.7-0.5,1.2-1.2,1.2h-7.6v4h6.6
		c0.7,0,1.2,0.6,1.2,1.2c0,0.7-0.6,1.2-1.2,1.2h-6.6v4.1h7.7c0.7,0,1.2,0.5,1.2,1.2c0,0.7-0.6,1.2-1.2,1.2h-9.1
		C157.5,181.4,156.9,180.8,156.9,180.1z"/>
	<path class="st5" d="M171.6,167.3c0-0.7,0.6-1.4,1.4-1.4h0.3c0.7,0,1,0.3,1.4,0.8l7.7,10v-9.5c0-0.7,0.6-1.3,1.3-1.3
		c0.7,0,1.3,0.6,1.3,1.3v12.9c0,0.7-0.6,1.3-1.3,1.3h-0.1c-0.6,0-1-0.3-1.4-0.8l-7.9-10.3v9.8c0,0.7-0.6,1.3-1.3,1.3
		c-0.7,0-1.3-0.6-1.3-1.3V167.3z"/>
	<path class="st5" d="M188.3,173.8L188.3,173.8c0-4.4,3.3-8,7.9-8c2.3,0,3.9,0.5,5.3,1.6c0.3,0.2,0.6,0.6,0.6,1.1
		c0,0.7-0.6,1.3-1.3,1.3c-0.4,0-0.6-0.2-0.8-0.3c-1-0.7-2.1-1.2-3.7-1.2c-2.8,0-5,2.5-5,5.4v0c0,3.2,2.1,5.5,5.2,5.5
		c1.5,0,2.8-0.5,3.7-1.2v-2.9h-3c-0.7,0-1.2-0.5-1.2-1.2s0.6-1.2,1.2-1.2h4.3c0.8,0,1.4,0.6,1.4,1.4v4.1c0,0.8-0.3,1.3-0.9,1.7
		c-1.3,0.9-3.2,1.7-5.5,1.7C191.5,181.7,188.3,178.3,188.3,173.8z"/>
</g>
<g class="st1">
	<path class="st5" d="M156.9,225.4c0-0.8,0.6-1.4,1.4-1.4h9c0.7,0,1.2,0.5,1.2,1.2c0,0.7-0.5,1.2-1.2,1.2h-7.6v4.2h6.6
		c0.7,0,1.2,0.5,1.2,1.2c0,0.7-0.6,1.2-1.2,1.2h-6.6v5c0,0.7-0.6,1.3-1.3,1.3c-0.8,0-1.4-0.6-1.4-1.3V225.4z"/>
	<path class="st5" d="M171.3,225.4c0-0.8,0.6-1.4,1.4-1.4h5.5c1.9,0,3.5,0.6,4.4,1.5c0.8,0.8,1.3,2,1.3,3.3v0c0,2.5-1.4,4-3.5,4.6
		l2.9,3.7c0.3,0.3,0.4,0.6,0.4,1c0,0.7-0.6,1.3-1.3,1.3c-0.6,0-1-0.3-1.3-0.7l-3.7-4.8H174v4.1c0,0.7-0.6,1.3-1.3,1.3
		c-0.8,0-1.4-0.6-1.4-1.3V225.4z M178,231.7c1.9,0,3.2-1,3.2-2.6v0c0-1.7-1.2-2.6-3.2-2.6H174v5.2H178z"/>
	<path class="st5" d="M186.3,237.7l5.7-12.8c0.3-0.7,0.9-1.1,1.6-1.1h0.1c0.8,0,1.3,0.4,1.6,1.1l5.7,12.8c0.1,0.2,0.2,0.4,0.2,0.6
		c0,0.7-0.6,1.3-1.3,1.3c-0.6,0-1.1-0.4-1.3-0.9l-1.3-2.9H190l-1.3,3c-0.2,0.5-0.7,0.9-1.3,0.9c-0.7,0-1.3-0.6-1.3-1.3
		C186.2,238.1,186.2,237.9,186.3,237.7z M196.4,233.3l-2.7-6.2l-2.7,6.2H196.4z"/>
</g>
<g class="st1">
	<path class="st5" d="M156.5,295.7c-0.3-0.2-0.5-0.6-0.5-1c0-0.7,0.6-1.3,1.3-1.3c0.4,0,0.6,0.1,0.8,0.2c1.3,1,2.6,1.6,4.3,1.6
		s2.7-0.8,2.7-1.9v0c0-1.1-0.6-1.7-3.5-2.4c-3.3-0.8-5.1-1.8-5.1-4.6v0c0-2.6,2.2-4.5,5.3-4.5c1.9,0,3.5,0.5,4.9,1.4
		c0.3,0.2,0.6,0.6,0.6,1.1c0,0.7-0.6,1.3-1.3,1.3c-0.3,0-0.5-0.1-0.7-0.2c-1.2-0.8-2.3-1.2-3.5-1.2c-1.6,0-2.5,0.8-2.5,1.8v0
		c0,1.2,0.7,1.7,3.7,2.4c3.3,0.8,4.9,2,4.9,4.5v0c0,2.9-2.3,4.6-5.5,4.6C160.2,297.7,158.2,297,156.5,295.7z"/>
	<path class="st5" d="M171,283.4c0-0.8,0.6-1.4,1.4-1.4h4.7c3.6,0,5.9,2,5.9,5.1v0c0,3.5-2.8,5.3-6.2,5.3h-3.1v3.7
		c0,0.7-0.6,1.3-1.3,1.3c-0.8,0-1.4-0.6-1.4-1.3V283.4z M176.8,290c2,0,3.3-1.1,3.3-2.8v0c0-1.8-1.3-2.8-3.3-2.8h-3.1v5.5H176.8z"/>
	<path class="st5" d="M183.5,295.7l5.7-12.8c0.3-0.7,0.9-1.1,1.6-1.1h0.1c0.8,0,1.3,0.4,1.6,1.1l5.7,12.8c0.1,0.2,0.2,0.4,0.2,0.6
		c0,0.7-0.6,1.3-1.3,1.3c-0.6,0-1.1-0.4-1.3-0.9l-1.3-2.9h-7.5l-1.3,3c-0.2,0.5-0.7,0.9-1.3,0.9c-0.7,0-1.3-0.6-1.3-1.3
		C183.4,296.1,183.4,295.9,183.5,295.7z M193.6,291.3l-2.7-6.2l-2.7,6.2H193.6z"/>
</g>
<g class="st1">
	<path class="st5" d="M156.9,341.4c0-0.8,0.6-1.4,1.4-1.4h4.4c4.8,0,8.2,3.3,8.2,7.7v0c0,4.3-3.3,7.7-8.2,7.7h-4.4
		c-0.8,0-1.4-0.6-1.4-1.4V341.4z M162.6,353c3.2,0,5.3-2.2,5.3-5.2v0c0-3-2.1-5.2-5.3-5.2h-3V353H162.6z"/>
	<path class="st5" d="M174.1,354.1v-12.7c0-0.8,0.6-1.4,1.4-1.4h9c0.7,0,1.2,0.5,1.2,1.2c0,0.7-0.5,1.2-1.2,1.2h-7.6v4h6.6
		c0.7,0,1.2,0.6,1.2,1.2c0,0.7-0.6,1.2-1.2,1.2h-6.6v4.1h7.7c0.7,0,1.2,0.5,1.2,1.2c0,0.7-0.6,1.2-1.2,1.2h-9.1
		C174.7,355.4,174.1,354.8,174.1,354.1z"/>
	<path class="st5" d="M188.6,348.9v-7.6c0-0.7,0.6-1.3,1.4-1.3c0.7,0,1.3,0.6,1.3,1.3v7.5c0,2.9,1.5,4.4,3.9,4.4
		c2.4,0,3.9-1.4,3.9-4.3v-7.6c0-0.7,0.6-1.3,1.4-1.3c0.7,0,1.3,0.6,1.3,1.3v7.5c0,4.6-2.6,6.9-6.6,6.9
		C191.1,355.7,188.6,353.4,188.6,348.9z"/>
</g>
<g class="st1">
	<path class="st5" d="M156.9,399.4c0-0.8,0.6-1.4,1.4-1.4h4.7c3.6,0,5.9,2,5.9,5.1v0c0,3.5-2.8,5.3-6.2,5.3h-3.1v3.7
		c0,0.7-0.6,1.3-1.3,1.3c-0.8,0-1.4-0.6-1.4-1.3V399.4z M162.7,406c2,0,3.3-1.1,3.3-2.8v0c0-1.8-1.3-2.8-3.3-2.8h-3.1v5.5H162.7z"/>
	<path class="st5" d="M170.9,405.8L170.9,405.8c0-4.4,3.3-8,8.1-8c4.7,0,8,3.6,8,7.9v0c0,4.3-3.3,8-8.1,8
		C174.2,413.7,170.9,410.1,170.9,405.8z M184.2,405.8L184.2,405.8c0-3-2.2-5.5-5.2-5.5c-3.1,0-5.2,2.4-5.2,5.4v0
		c0,3,2.2,5.5,5.2,5.5C182,411.2,184.2,408.8,184.2,405.8z"/>
	<path class="st5" d="M190.3,399.4c0-0.8,0.6-1.4,1.4-1.4h5.5c1.9,0,3.5,0.6,4.4,1.5c0.8,0.8,1.3,2,1.3,3.3v0c0,2.5-1.4,4-3.5,4.6
		l2.9,3.7c0.3,0.3,0.4,0.6,0.4,1c0,0.7-0.6,1.3-1.3,1.3c-0.6,0-1-0.3-1.3-0.7l-3.7-4.8H193v4.1c0,0.7-0.6,1.3-1.3,1.3
		c-0.8,0-1.4-0.6-1.4-1.3V399.4z M196.9,405.7c1.9,0,3.2-1,3.2-2.6v0c0-1.7-1.2-2.6-3.2-2.6H193v5.2H196.9z"/>
</g>
<g class="st1">
	<path class="st5" d="M157,457.3c0-0.7,0.6-1.3,1.4-1.3c0.7,0,1.3,0.6,1.3,1.3v12.9c0,0.7-0.6,1.3-1.3,1.3c-0.8,0-1.4-0.6-1.4-1.3
		V457.3z"/>
	<path class="st5" d="M167.6,458.5h-3.7c-0.7,0-1.3-0.6-1.3-1.3c0-0.7,0.6-1.3,1.3-1.3h10.2c0.7,0,1.2,0.6,1.2,1.3
		c0,0.7-0.5,1.3-1.2,1.3h-3.8v11.7c0,0.7-0.6,1.3-1.4,1.3s-1.4-0.6-1.4-1.3V458.5z"/>
	<path class="st5" d="M175.5,469.7l5.7-12.8c0.3-0.7,0.9-1.1,1.6-1.1h0.1c0.8,0,1.3,0.4,1.6,1.1l5.7,12.8c0.1,0.2,0.2,0.4,0.2,0.6
		c0,0.7-0.6,1.3-1.3,1.3c-0.6,0-1.1-0.4-1.3-0.9l-1.3-2.9h-7.5l-1.3,3c-0.2,0.5-0.7,0.9-1.3,0.9c-0.7,0-1.3-0.6-1.3-1.3
		C175.3,470.1,175.4,469.9,175.5,469.7z M185.5,465.3l-2.7-6.2l-2.7,6.2H185.5z"/>
</g>
<polyline class="st3" points="561.8,30.8 578.1,42.3 561.8,53.9 "/>
</svg>
