<?xml version="1.0" encoding="utf-8"?>
<!-- Generator: Adobe Illustrator 16.0.0, SVG Export Plug-In . SVG Version: 6.00 Build 0)  -->
<!DOCTYPE svg PUBLIC "-//W3C//DTD SVG 1.1//EN" "http://www.w3.org/Graphics/SVG/1.1/DTD/svg11.dtd">
<svg version="1.1" id="Layer_1" xmlns="http://www.w3.org/2000/svg" xmlns:xlink="http://www.w3.org/1999/xlink" x="0px" y="0px"
	 width="612px" height="612px" viewBox="0 0 612 612" style="enable-background:new 0 0 612 612;" xml:space="preserve">
<style type="text/css">
<![CDATA[
	.st0{enable-background:new    ;}
	.st1{fill:#5F75A0;}
	.st2{fill:#FFFFFF;}
	.st3{fill:none;}
]]>
</style>
<rect class="st1" width="612" height="612"/>
<g>
	<g>
		<rect x="51.8" y="144" class="st3" width="508.5" height="324.1"/>
	</g>
	<g class="st0">
		<path class="st2" d="M137.9,194.6l-11.2-40.9l-11.2,40.9h-6.8L94.3,144h7l11.2,42.3l11.6-42.3h5.2l11.6,42.3l11.2-42.3h7.1
			l-14.5,50.7H137.9z"/>
		<path class="st2" d="M185,194.6v-4.2c-3,3.3-7.2,5.1-12.2,5.1c-6.2,0-12.8-4.2-12.8-12.2c0-8.3,6.5-12.1,12.8-12.1
			c5,0,9.2,1.6,12.2,4.9v-6.6c0-4.9-4-7.7-9.3-7.7c-4.4,0-8,1.5-11.2,5.1l-2.7-4c4-4.1,8.7-6.1,14.7-6.1c7.8,0,14.2,3.5,14.2,12.4
			v25.2H185z M185,186.9v-7c-2.2-3-6.1-4.5-10-4.5c-5.4,0-9.1,3.3-9.1,8c0,4.7,3.7,8.1,9.1,8.1C178.9,191.5,182.8,189.9,185,186.9z"
			/>
		<path class="st2" d="M226,194.6v-24c0-6.5-3.3-8.5-8.3-8.5c-4.5,0-8.7,2.7-10.9,5.7v26.8h-5.7v-36.7h5.7v5.3
			c2.6-3.1,7.6-6.2,13.1-6.2c7.6,0,11.6,3.9,11.6,11.9v25.8H226z"/>
		<path class="st2" d="M243.3,187v-24h-6.1v-5h6.1v-10h5.8v10h7.4v5H249v22.8c0,2.7,1.2,4.7,3.6,4.7c1.7,0,3.1-0.8,3.9-1.6l1.7,4.3
			c-1.4,1.4-3.5,2.4-6.8,2.4C246,195.6,243.3,192.4,243.3,187z"/>
		<path class="st2" d="M283.3,187v-24h-6.1v-5h6.1v-10h5.8v10h7.4v5h-7.4v22.8c0,2.7,1.2,4.7,3.6,4.7c1.7,0,3.1-0.8,3.9-1.6l1.7,4.3
			c-1.4,1.4-3.5,2.4-6.8,2.4C286.1,195.6,283.3,192.4,283.3,187z"/>
		<path class="st2" d="M301.4,176.3c0-10.6,7-19.2,18.2-19.2s18.2,8.6,18.2,19.2s-7,19.3-18.2,19.3S301.4,186.9,301.4,176.3z
			 M331.7,176.3c0-7.4-4.3-14.1-12.2-14.1s-12.2,6.7-12.2,14.1c0,7.5,4.3,14.2,12.2,14.2S331.7,183.8,331.7,176.3z"/>
		<path class="st2" d="M364.7,194.6V144h5.7v50.7H364.7z"/>
		<path class="st2" d="M378.7,176.3c0-10.6,7.6-19.2,18.1-19.2c11.1,0,17.6,8.7,17.6,19.7v1.4h-29.6c0.5,6.9,5.2,12.7,13.1,12.7
			c4.3,0,8.4-1.7,11.4-4.7l2.7,3.7c-3.7,3.6-8.7,5.7-14.6,5.7C386.5,195.6,378.7,187.7,378.7,176.3z M396.7,161.7
			c-7.8,0-11.7,6.6-12,12.2h24.1C408.7,168.5,405.1,161.7,396.7,161.7z"/>
		<path class="st2" d="M445.6,194.6v-4.2c-3,3.3-7.2,5.1-12.2,5.1c-6.2,0-12.8-4.2-12.8-12.2c0-8.3,6.5-12.1,12.8-12.1
			c5,0,9.2,1.6,12.2,4.9v-6.6c0-4.9-4-7.7-9.3-7.7c-4.4,0-8,1.5-11.2,5.1l-2.7-4c4-4.1,8.7-6.1,14.7-6.1c7.8,0,14.2,3.5,14.2,12.4
			v25.2H445.6z M445.6,186.9v-7c-2.2-3-6.1-4.5-10-4.5c-5.4,0-9.1,3.3-9.1,8c0,4.7,3.7,8.1,9.1,8.1
			C439.5,191.5,443.4,189.9,445.6,186.9z"/>
		<path class="st2" d="M461.8,194.6v-36.7h5.7v5.9c3-3.8,7.2-6.7,12.2-6.7v5.9c-0.7-0.1-1.4-0.2-2.2-0.2c-3.6,0-8.4,2.9-10,5.9v26
			H461.8z"/>
		<path class="st2" d="M510.7,194.6v-24c0-6.5-3.3-8.5-8.3-8.5c-4.5,0-8.7,2.7-10.9,5.7v26.8h-5.7v-36.7h5.7v5.3
			c2.6-3.1,7.6-6.2,13.1-6.2c7.6,0,11.6,3.9,11.6,11.9v25.8H510.7z"/>
	</g>
	<g class="st0">
		<path class="st2" d="M148.2,275.6v-24.9c0-4.6-2-7.6-6.8-7.6c-3.8,0-7.8,2.7-9.7,5.6v26.9H126v-24.9c0-4.6-1.9-7.6-6.8-7.6
			c-3.7,0-7.7,2.7-9.7,5.7v26.8h-5.7v-36.7h5.7v5.3c1.6-2.4,6.5-6.2,11.9-6.2c5.5,0,8.7,3,9.8,6.8c2.1-3.3,7-6.8,12.3-6.8
			c6.7,0,10.3,3.7,10.3,11.1v26.5H148.2z"/>
		<path class="st2" d="M162.1,257.3c0-10.6,7-19.2,18.2-19.2c11.2,0,18.2,8.6,18.2,19.2s-7,19.3-18.2,19.3
			C169.1,276.6,162.1,267.9,162.1,257.3z M192.5,257.3c0-7.4-4.3-14.1-12.2-14.1c-7.8,0-12.2,6.7-12.2,14.1
			c0,7.5,4.3,14.2,12.2,14.2C188.1,271.5,192.5,264.8,192.5,257.3z"/>
		<path class="st2" d="M206.7,275.6v-36.7h5.7v5.9c3-3.8,7.2-6.7,12.2-6.7v5.9c-0.7-0.1-1.4-0.2-2.2-0.2c-3.6,0-8.4,2.9-10,5.9v26
			H206.7z"/>
		<path class="st2" d="M228.7,257.3c0-10.6,7.6-19.2,18.1-19.2c11.1,0,17.6,8.7,17.6,19.7v1.4h-29.6c0.5,6.9,5.2,12.7,13.1,12.7
			c4.3,0,8.4-1.7,11.4-4.7l2.7,3.7c-3.7,3.6-8.7,5.7-14.6,5.7C236.5,276.6,228.7,268.7,228.7,257.3z M246.7,242.7
			c-7.8,0-11.7,6.6-12,12.2h24.1C258.7,249.5,255.1,242.7,246.7,242.7z"/>
		<path class="st2" d="M323.1,275.6l-9.6-29.5l-9.6,29.5h-5.7l-11.7-36.7h5.9l9,29.3l9.7-29.3h4.9l9.6,29.3l9-29.3h6l-11.7,36.7
			H323.1z"/>
		<path class="st2" d="M344,257.3c0-10.6,7-19.2,18.2-19.2c11.2,0,18.2,8.6,18.2,19.2s-7,19.3-18.2,19.3
			C351,276.6,344,267.9,344,257.3z M374.3,257.3c0-7.4-4.3-14.1-12.2-14.1s-12.2,6.7-12.2,14.1c0,7.5,4.3,14.2,12.2,14.2
			S374.3,264.8,374.3,257.3z"/>
		<path class="st2" d="M388.6,275.6v-36.7h5.7v5.9c3-3.8,7.2-6.7,12.2-6.7v5.9c-0.7-0.1-1.4-0.2-2.2-0.2c-3.6,0-8.4,2.9-10,5.9v26
			H388.6z"/>
		<path class="st2" d="M439.3,275.6v-5.5c-2.7,3.7-7.2,6.4-12.4,6.4c-9.6,0-16.3-7.3-16.3-19.2c0-11.8,6.8-19.3,16.3-19.3
			c4.9,0,9.4,2.4,12.4,6.5V225h5.7v50.7H439.3z M439.3,265.6V249c-2-3.2-6.5-5.9-10.9-5.9c-7.4,0-11.9,6.1-11.9,14.2
			c0,8.1,4.4,14.1,11.9,14.1C432.8,271.5,437.3,268.8,439.3,265.6z"/>
		<path class="st2" d="M452.3,270.8l2.9-4.1c2.4,2.8,7.1,5.2,12.1,5.2c5.6,0,8.7-2.7,8.7-6.3c0-8.9-22.7-3.4-22.7-17
			c0-5.8,4.9-10.6,13.6-10.6c6.3,0,10.7,2.4,13.6,5.3l-2.7,4c-2.2-2.7-6.2-4.6-10.9-4.6c-5,0-8.1,2.5-8.1,5.8c0,8,22.7,2.7,22.7,17
			c0,6.2-4.9,11.1-14.4,11.1C461,276.6,456,274.7,452.3,270.8z"/>
		<path class="st2" d="M493.3,255.4c0-9.7,13.7-10.4,13.7-18.5c0-3.8-3-7.1-8.9-7.1c-5.8,0-9.3,2.4-12.2,6.2l-3.8-4.1
			c3.6-4.8,9.3-7.8,16.5-7.8c9.3,0,14.9,5.2,14.9,11.8c0,11.5-14.7,12.5-14.7,19.9c0,1.2,0.7,2.7,2,3.6l-4.6,2.1
			C494.2,259.8,493.3,257.7,493.3,255.4z M493.6,272.2c0-2.3,1.9-4.2,4.2-4.2s4.2,1.9,4.2,4.2s-1.9,4.2-4.2,4.2
			S493.6,274.5,493.6,272.2z"/>
	</g>
	<g class="st0">
		<path class="st2" d="M153.4,356.6V306h35.9v9.5h-25.1v10.6h24.5v9.5h-24.5v21.1H153.4z"/>
		<path class="st2" d="M193.2,338.3c0-10.4,7.3-19.2,19.4-19.2c12.2,0,19.5,8.8,19.5,19.2c0,10.4-7.3,19.3-19.5,19.3
			C200.5,357.6,193.2,348.7,193.2,338.3z M222,338.3c0-5.7-3.3-10.6-9.4-10.6c-6,0-9.3,4.9-9.3,10.6c0,5.8,3.3,10.7,9.3,10.7
			C218.6,349,222,344,222,338.3z"/>
		<path class="st2" d="M238.2,356.6V306h9.7v50.7H238.2z"/>
		<path class="st2" d="M256.5,356.6V306h9.7v50.7H256.5z"/>
		<path class="st2" d="M272.4,338.3c0-10.4,7.3-19.2,19.4-19.2c12.2,0,19.5,8.8,19.5,19.2c0,10.4-7.3,19.3-19.5,19.3
			C279.7,357.6,272.4,348.7,272.4,338.3z M301.2,338.3c0-5.7-3.3-10.6-9.4-10.6c-6,0-9.3,4.9-9.3,10.6c0,5.8,3.3,10.7,9.3,10.7
			C297.8,349,301.2,344,301.2,338.3z"/>
		<path class="st2" d="M349.7,356.6l-7.8-25l-7.8,25h-10.3l-11.2-36.7h10l6.8,24.7l8.1-24.7h8.6l8.1,24.7l6.8-24.7h10.1L360,356.6
			H349.7z"/>
		<path class="st2" d="M418.3,356.6V352c-2.5,2.7-6.9,5.5-12.9,5.5c-8.1,0-11.9-4.4-11.9-11.6v-26.1h9.7v22.3c0,5.1,2.7,6.8,6.8,6.8
			c3.7,0,6.7-2.1,8.4-4.2v-24.9h9.7v36.7H418.3z"/>
		<path class="st2" d="M433.3,351.9l4.2-7c2.7,2.6,8.1,5.1,12.7,5.1c4.2,0,6.2-1.6,6.2-3.9c0-6-21.7-1.1-21.7-15.5
			c0-6.2,5.3-11.6,15-11.6c6.2,0,11.1,2.1,14.7,5l-3.9,6.8c-2.2-2.3-6.4-4.3-10.9-4.3c-3.5,0-5.8,1.5-5.8,3.6
			c0,5.4,21.8,0.8,21.8,15.7c0,6.8-5.8,11.7-16,11.7C443.4,357.6,437.2,355.4,433.3,351.9z"/>
	</g>
	<g class="st0">
		<path class="st2" d="M93.7,419.3c0-10.6,7-19.2,18.2-19.2c11.2,0,18.2,8.6,18.2,19.2s-7,19.3-18.2,19.3
			C100.7,438.6,93.7,429.9,93.7,419.3z M124,419.3c0-7.4-4.3-14.1-12.2-14.1c-7.8,0-12.2,6.7-12.2,14.1c0,7.5,4.3,14.2,12.2,14.2
			C119.7,433.5,124,426.8,124,419.3z"/>
		<path class="st2" d="M163.2,437.6v-24c0-6.5-3.3-8.5-8.3-8.5c-4.5,0-8.7,2.7-10.9,5.7v26.8h-5.7v-36.7h5.7v5.3
			c2.6-3.1,7.6-6.2,13.1-6.2c7.6,0,11.6,3.9,11.6,11.9v25.8H163.2z"/>
		<path class="st2" d="M198.2,437.6V387h6.3v50.7H198.2z"/>
		<path class="st2" d="M240,437.6v-24c0-6.5-3.3-8.5-8.3-8.5c-4.5,0-8.7,2.7-10.9,5.7v26.8h-5.7v-36.7h5.7v5.3
			c2.6-3.1,7.6-6.2,13.1-6.2c7.6,0,11.6,3.9,11.6,11.9v25.8H240z"/>
		<path class="st2" d="M253,432.8l2.9-4.1c2.4,2.8,7.1,5.2,12.1,5.2c5.6,0,8.7-2.7,8.7-6.3c0-8.9-22.7-3.4-22.7-17
			c0-5.8,4.9-10.6,13.6-10.6c6.3,0,10.7,2.4,13.6,5.3l-2.7,4c-2.2-2.7-6.2-4.6-10.9-4.6c-5,0-8.1,2.5-8.1,5.8c0,8,22.7,2.7,22.7,17
			c0,6.2-4.9,11.1-14.4,11.1C261.7,438.6,256.7,436.7,253,432.8z"/>
		<path class="st2" d="M291.6,430v-24h-6.1v-5h6.1v-10h5.8v10h7.4v5h-7.4v22.8c0,2.7,1.2,4.7,3.6,4.7c1.7,0,3.1-0.8,3.9-1.6l1.7,4.3
			c-1.4,1.4-3.5,2.4-6.8,2.4C294.4,438.6,291.6,435.4,291.6,430z"/>
		<path class="st2" d="M334.8,437.6v-4.2c-3,3.3-7.2,5.1-12.2,5.1c-6.2,0-12.8-4.2-12.8-12.2c0-8.3,6.5-12.1,12.8-12.1
			c5,0,9.2,1.6,12.2,4.9v-6.6c0-4.9-4-7.7-9.3-7.7c-4.4,0-8,1.5-11.2,5.1l-2.7-4c4-4.1,8.7-6.1,14.7-6.1c7.8,0,14.2,3.5,14.2,12.4
			v25.2H334.8z M334.8,429.9v-7c-2.2-3-6.1-4.5-10-4.5c-5.4,0-9.1,3.3-9.1,8c0,4.7,3.7,8.1,9.1,8.1
			C328.7,434.5,332.6,432.9,334.8,429.9z"/>
		<path class="st2" d="M350.9,447l2.9-4.1c3,3.6,6.7,4.9,11.9,4.9c6.1,0,11.9-3,11.9-10.7v-5.5c-2.7,3.7-7.2,6.5-12.4,6.5
			c-9.6,0-16.3-7.1-16.3-19c0-11.8,6.7-19.1,16.3-19.1c4.9,0,9.4,2.4,12.4,6.5v-5.5h5.7v36.2c0,11.6-8.6,15.4-17.6,15.4
			C359.6,452.5,355.3,451.3,350.9,447z M377.6,427.1V411c-2.1-3.1-6.5-5.9-10.9-5.9c-7.4,0-11.9,5.9-11.9,14
			c0,8.1,4.4,13.9,11.9,13.9C371.1,433,375.5,430.3,377.6,427.1z"/>
		<path class="st2" d="M393.7,437.6v-36.7h5.7v5.9c3-3.8,7.2-6.7,12.2-6.7v5.9c-0.7-0.1-1.4-0.2-2.2-0.2c-3.6,0-8.4,2.9-10,5.9v26
			H393.7z"/>
		<path class="st2" d="M440.7,437.6v-4.2c-3,3.3-7.2,5.1-12.2,5.1c-6.2,0-12.8-4.2-12.8-12.2c0-8.3,6.5-12.1,12.8-12.1
			c5,0,9.2,1.6,12.2,4.9v-6.6c0-4.9-4-7.7-9.3-7.7c-4.4,0-8,1.5-11.2,5.1l-2.7-4c4-4.1,8.7-6.1,14.7-6.1c7.8,0,14.2,3.5,14.2,12.4
			v25.2H440.7z M440.7,429.9v-7c-2.2-3-6.1-4.5-10-4.5c-5.4,0-9.1,3.3-9.1,8c0,4.7,3.7,8.1,9.1,8.1
			C434.6,434.5,438.5,432.9,440.7,429.9z"/>
		<path class="st2" d="M501.2,437.6v-24.9c0-4.6-2-7.6-6.8-7.6c-3.8,0-7.8,2.7-9.7,5.6v26.9H479v-24.9c0-4.6-1.9-7.6-6.8-7.6
			c-3.7,0-7.7,2.7-9.7,5.7v26.8h-5.7v-36.7h5.7v5.3c1.6-2.4,6.5-6.2,11.9-6.2c5.5,0,8.7,3,9.8,6.8c2.1-3.3,7-6.8,12.3-6.8
			c6.7,0,10.3,3.7,10.3,11.1v26.5H501.2z"/>
		<path class="st2" d="M516.2,434.2c0-2.3,1.9-4.2,4.2-4.2c2.3,0,4.2,1.9,4.2,4.2s-1.9,4.2-4.2,4.2
			C518.1,438.4,516.2,436.5,516.2,434.2z"/>
	</g>
</g>
</svg>
