<?xml version="1.0" encoding="utf-8"?>
<!-- Generator: Adobe Illustrator 16.0.0, SVG Export Plug-In . SVG Version: 6.00 Build 0)  -->
<!DOCTYPE svg PUBLIC "-//W3C//DTD SVG 1.1//EN" "http://www.w3.org/Graphics/SVG/1.1/DTD/svg11.dtd">
<svg version="1.1" id="Layer_1" xmlns="http://www.w3.org/2000/svg" xmlns:xlink="http://www.w3.org/1999/xlink" x="0px" y="0px"
	 width="612px" height="612px" viewBox="0 0 612 612" style="enable-background:new 0 0 612 612;" xml:space="preserve">
<style type="text/css">
<![CDATA[
	.st0{fill:#E8C048;}
	.st1{enable-background:new    ;}
	.st2{opacity:0.6;enable-background:new    ;}
	.st3{fill:#FFD350;}
	.st4{fill:#FFFFFF;}
	.st5{fill:#312F32;}
]]>
</style>
<rect class="st3" width="612" height="612"/>
<path class="st2" d="M45,102c-14.8-0.1-20.6,3.6-19.1,19.4c4.6,51.7,30,326.3,36.4,422.5c0.7,11.2,4.4,15.4,15.6,15.3
	c20.2-0.2,343.2,4.9,446.2,10.1c13.6,0.7,16.9-4.4,17.3-17.3c1.5-53.9,11.4-338.3,15.4-440.1c0.5-12.2-2.4-15-13.8-15.1
	C506.6,96.4,105.8,102.4,45,102z"/>
<path class="st2" d="M65.9,17.3c-1.6,0.2-11.2,77.5-11.2,77.5s1,7.1-9.1,7.1l4.8,13.6h66.8v-14.1c0,0-4.8,0.2-9.5-6.3L68.5,20
	C68.5,20,67.5,17.1,65.9,17.3z"/>
<path class="st4" d="M57.9,89.1c-14.8-0.1-20.6,3.6-19.1,19.4c4.6,51.7,30,326.3,36.4,422.5c0.7,11.2,4.4,15.4,15.6,15.3
	c20.2-0.2,343.2,4.9,446.2,10.1c13.6,0.7,16.9-4.4,17.3-17.3c1.5-53.9,11.4-338.3,15.4-440.1c0.5-12.2-2.4-15-13.8-15.1
	C519.5,83.5,118.7,89.5,57.9,89.1z"/>
<path class="st4" d="M65.5,18.9v63c0,0,1,7.1-9.1,7.1v13.6h66.8v-14c0,0-4.8,0.2-9.5-6.3L68.3,18.9C68.3,18.9,65.7,14.8,65.5,18.9z"
	/>
<g>
	<g class="st1">
		<path class="st5" d="M256.1,161.4c-0.1-0.2-0.1-0.4-0.1-0.5c0-0.5,0.5-1.1,1.1-1.1s0.9,0.5,1.1,0.9l8.3,23.5l7.8-23.7
			c0.2-0.4,0.4-0.8,1-0.8h0.1c0.5,0,0.8,0.4,1,0.8l7.8,23.7l8.3-23.6c0.2-0.5,0.5-0.8,1-0.8c0.5,0,1,0.5,1,1c0,0.2-0.1,0.4-0.2,0.5
			l-9.1,25.3c-0.2,0.5-0.5,0.9-1.1,0.9h-0.1c-0.5,0-0.9-0.4-1.1-0.9l-7.7-22.9l-7.7,22.9c-0.2,0.5-0.5,0.9-1.1,0.9h-0.1
			c-0.5,0-0.9-0.4-1.1-0.9L256.1,161.4z"/>
		<path class="st5" d="M295.5,186l11.7-25.3c0.3-0.6,0.7-1,1.4-1h0.1c0.7,0,1.1,0.4,1.4,1l11.6,25.2c0.1,0.2,0.2,0.4,0.2,0.6
			c0,0.5-0.4,0.9-1,0.9c-0.5,0-0.8-0.4-1-0.8l-3.2-7h-16.1l-3.2,7.1c-0.2,0.5-0.5,0.7-1,0.7c-0.5,0-0.9-0.4-0.9-0.9
			C295.3,186.5,295.4,186.2,295.5,186z M315.7,177.8l-7.2-15.8l-7.2,15.8H315.7z"/>
		<path class="st5" d="M332.1,161.9h-8.7c-0.5,0-0.9-0.4-0.9-0.9s0.4-0.9,0.9-0.9h19.5c0.5,0,0.9,0.4,0.9,0.9s-0.4,0.9-0.9,0.9h-8.7
			v24.6c0,0.5-0.5,1-1,1c-0.5,0-1-0.5-1-1V161.9z"/>
		<path class="st5" d="M349.8,186.3V161c0-0.5,0.5-1,1-1h17.6c0.5,0,0.9,0.4,0.9,0.9s-0.4,0.9-0.9,0.9h-16.6v10.7h14.9
			c0.5,0,0.9,0.4,0.9,0.9s-0.4,0.9-0.9,0.9h-14.9v11h16.8c0.5,0,0.9,0.4,0.9,0.9c0,0.5-0.4,0.9-0.9,0.9h-17.8
			C350.2,187.3,349.8,186.9,349.8,186.3z"/>
		<path class="st5" d="M375.9,161c0-0.5,0.5-1,1-1h10.5c3.4,0,6,1.1,7.7,2.7c1.3,1.3,2.1,3.1,2.1,5.1v0.1c0,4.6-3.4,7.2-8,7.8
			l7.8,10.1c0.2,0.2,0.3,0.5,0.3,0.7c0,0.5-0.5,1.1-1.1,1.1c-0.4,0-0.7-0.2-0.9-0.5l-8.4-10.9h-8.9v10.5c0,0.5-0.5,1-1,1
			c-0.5,0-1-0.5-1-1V161z M387.1,174.2c4.6,0,8-2.3,8-6.2v-0.1c0-3.7-2.9-6-7.8-6h-9.3v12.3H387.1z"/>
	</g>
	<g class="st1">
		<path class="st5" d="M257.7,244.3V219c0-0.5,0.5-1,1-1h17.6c0.5,0,0.9,0.4,0.9,0.9s-0.4,0.9-0.9,0.9h-16.6v10.7h14.9
			c0.5,0,0.9,0.4,0.9,0.9s-0.4,0.9-0.9,0.9h-14.9v11h16.8c0.5,0,0.9,0.4,0.9,0.9c0,0.5-0.4,0.9-0.9,0.9h-17.8
			C258.2,245.3,257.7,244.9,257.7,244.3z"/>
		<path class="st5" d="M282.1,244l11.7-25.3c0.3-0.6,0.7-1,1.4-1h0.1c0.7,0,1.1,0.4,1.4,1l11.6,25.2c0.1,0.2,0.2,0.4,0.2,0.6
			c0,0.5-0.4,0.9-1,0.9c-0.5,0-0.8-0.4-1-0.8l-3.2-7h-16.1l-3.2,7.1c-0.2,0.5-0.5,0.7-1,0.7c-0.5,0-0.9-0.4-0.9-0.9
			C282,244.5,282,244.2,282.1,244z M302.3,235.8l-7.2-15.8l-7.2,15.8H302.3z"/>
		<path class="st5" d="M313.3,234v-15.1c0-0.5,0.5-1,1-1s1,0.5,1,1v14.9c0,6.4,3.5,10.1,9.2,10.1c5.5,0,9.1-3.4,9.1-9.9v-15.1
			c0-0.5,0.5-1,1-1c0.5,0,1,0.5,1,1v14.9c0,7.8-4.6,12-11.2,12C317.9,245.7,313.3,241.6,313.3,234z"/>
	</g>
	<g class="st1">
		<path class="st5" d="M256,302l11.7-25.3c0.3-0.6,0.7-1,1.4-1h0.1c0.7,0,1.1,0.4,1.4,1l11.6,25.2c0.1,0.2,0.2,0.4,0.2,0.6
			c0,0.5-0.4,0.9-1,0.9c-0.5,0-0.8-0.4-1-0.8l-3.2-7H261l-3.2,7.1c-0.2,0.5-0.5,0.7-1,0.7c-0.5,0-0.9-0.4-0.9-0.9
			C255.9,302.5,255.9,302.2,256,302z M276.2,293.8L269,278l-7.2,15.8H276.2z"/>
		<path class="st5" d="M285.8,289.7L285.8,289.7c0-7.4,5.3-14.2,13.5-14.2c4.1,0,6.8,1.1,9.3,3c0.2,0.2,0.4,0.5,0.4,0.8
			c0,0.5-0.5,1-1,1c-0.2,0-0.4-0.1-0.6-0.3c-2.1-1.6-4.4-2.8-8.2-2.8c-6.6,0-11.3,5.6-11.3,12.2v0.1c0,7.1,4.4,12.3,11.7,12.3
			c3.5,0,6.7-1.4,8.7-3.1V291h-8.5c-0.5,0-0.9-0.4-0.9-0.9s0.4-0.9,0.9-0.9h9.4c0.5,0,1,0.5,1,1v8.9c0,0.4-0.3,0.8-0.7,1.2
			c-2.6,2-6,3.5-10,3.5C290.9,303.8,285.8,297.4,285.8,289.7z"/>
		<path class="st5" d="M317.1,292v-15.1c0-0.5,0.5-1,1-1c0.5,0,1,0.5,1,1v14.9c0,6.4,3.5,10.1,9.2,10.1c5.5,0,9.1-3.4,9.1-9.9v-15.1
			c0-0.5,0.5-1,1-1s1,0.5,1,1v14.9c0,7.8-4.6,12-11.2,12C321.8,303.7,317.1,299.6,317.1,292z"/>
		<path class="st5" d="M344.5,302l11.7-25.3c0.3-0.6,0.7-1,1.4-1h0.1c0.7,0,1.1,0.4,1.4,1l11.6,25.2c0.1,0.2,0.2,0.4,0.2,0.6
			c0,0.5-0.4,0.9-1,0.9c-0.5,0-0.8-0.4-1-0.8l-3.2-7h-16.1l-3.2,7.1c-0.2,0.5-0.5,0.7-1,0.7c-0.5,0-0.9-0.4-0.9-0.9
			C344.3,302.5,344.4,302.2,344.5,302z M364.7,293.8l-7.2-15.8l-7.2,15.8H364.7z"/>
	</g>
	<g class="st1">
		<path class="st5" d="M256.1,335.4c-0.1-0.2-0.1-0.4-0.1-0.5c0-0.5,0.5-1.1,1.1-1.1s0.9,0.5,1.1,0.9l8.3,23.5l7.8-23.7
			c0.2-0.4,0.4-0.8,1-0.8h0.1c0.5,0,0.8,0.4,1,0.8l7.8,23.7l8.3-23.6c0.2-0.5,0.5-0.8,1-0.8c0.5,0,1,0.5,1,1c0,0.2-0.1,0.4-0.2,0.5
			l-9.1,25.3c-0.2,0.5-0.5,0.9-1.1,0.9h-0.1c-0.5,0-0.9-0.4-1.1-0.9l-7.7-22.9l-7.7,22.9c-0.2,0.5-0.5,0.9-1.1,0.9h-0.1
			c-0.5,0-0.9-0.4-1.1-0.9L256.1,335.4z"/>
		<path class="st5" d="M295.5,360l11.7-25.3c0.3-0.6,0.7-1,1.4-1h0.1c0.7,0,1.1,0.4,1.4,1l11.6,25.2c0.1,0.2,0.2,0.4,0.2,0.6
			c0,0.5-0.4,0.9-1,0.9c-0.5,0-0.8-0.4-1-0.8l-3.2-7h-16.1l-3.2,7.1c-0.2,0.5-0.5,0.7-1,0.7c-0.5,0-0.9-0.4-0.9-0.9
			C295.3,360.5,295.4,360.2,295.5,360z M315.7,351.8l-7.2-15.8l-7.2,15.8H315.7z"/>
		<path class="st5" d="M326.3,357.9c-0.2-0.2-0.4-0.4-0.4-0.8c0-0.5,0.5-1,1-1c0.3,0,0.5,0.1,0.7,0.2c2.7,2.5,5.5,3.5,9.2,3.5
			c4.1,0,6.9-2.3,6.9-5.4v-0.1c0-2.9-1.5-4.6-7.7-5.8c-6.6-1.3-9.2-3.5-9.2-7.7v-0.1c0-4.1,3.7-7.2,8.8-7.2c3.7,0,6.2,0.9,8.7,2.8
			c0.2,0.2,0.4,0.4,0.4,0.8c0,0.5-0.5,1-1,1c-0.2,0-0.5-0.1-0.7-0.2c-2.4-1.8-4.8-2.6-7.5-2.6c-4,0-6.7,2.3-6.7,5.1v0.1
			c0,2.9,1.5,4.6,8,6c6.3,1.3,9,3.5,9,7.5v0.1c0,4.4-3.8,7.4-9,7.4C332.6,361.7,329.4,360.4,326.3,357.9z"/>
		<path class="st5" d="M350.9,357.9c-0.2-0.2-0.4-0.4-0.4-0.8c0-0.5,0.5-1,1-1c0.3,0,0.5,0.1,0.7,0.2c2.7,2.5,5.5,3.5,9.2,3.5
			c4.1,0,6.9-2.3,6.9-5.4v-0.1c0-2.9-1.5-4.6-7.7-5.8c-6.6-1.3-9.2-3.5-9.2-7.7v-0.1c0-4.1,3.7-7.2,8.8-7.2c3.7,0,6.2,0.9,8.7,2.8
			c0.2,0.2,0.4,0.4,0.4,0.8c0,0.5-0.5,1-1,1c-0.2,0-0.5-0.1-0.7-0.2c-2.4-1.8-4.8-2.6-7.5-2.6c-4,0-6.7,2.3-6.7,5.1v0.1
			c0,2.9,1.5,4.6,8,6c6.3,1.3,9,3.5,9,7.5v0.1c0,4.4-3.8,7.4-9,7.4C357.1,361.7,353.9,360.4,350.9,357.9z"/>
		<path class="st5" d="M377,360.3V335c0-0.5,0.5-1,1-1h17.6c0.5,0,0.9,0.4,0.9,0.9s-0.4,0.9-0.9,0.9H379v10.7h14.9
			c0.5,0,0.9,0.4,0.9,0.9s-0.4,0.9-0.9,0.9H379v11h16.8c0.5,0,0.9,0.4,0.9,0.9c0,0.5-0.4,0.9-0.9,0.9H378
			C377.4,361.3,377,360.9,377,360.3z"/>
		<path class="st5" d="M403.1,335c0-0.5,0.5-1,1-1h10.5c3.4,0,6,1.1,7.7,2.7c1.3,1.3,2.1,3.1,2.1,5.1v0.1c0,4.6-3.4,7.2-8,7.8
			l7.8,10.1c0.2,0.2,0.3,0.5,0.3,0.7c0,0.5-0.5,1.1-1.1,1.1c-0.4,0-0.7-0.2-0.9-0.5L414,350h-8.9v10.5c0,0.5-0.5,1-1,1
			c-0.5,0-1-0.5-1-1V335z M414.3,348.2c4.6,0,8-2.3,8-6.2v-0.1c0-3.7-2.9-6-7.8-6h-9.3v12.3H414.3z"/>
	</g>
	<g class="st1">
		<path class="st5" d="M256,418l11.7-25.3c0.3-0.6,0.7-1,1.4-1h0.1c0.7,0,1.1,0.4,1.4,1l11.6,25.2c0.1,0.2,0.2,0.4,0.2,0.6
			c0,0.5-0.4,0.9-1,0.9c-0.5,0-0.8-0.4-1-0.8l-3.2-7H261l-3.2,7.1c-0.2,0.5-0.5,0.7-1,0.7c-0.5,0-0.9-0.4-0.9-0.9
			C255.9,418.5,255.9,418.2,256,418z M276.2,409.8L269,394l-7.2,15.8H276.2z M268.5,388.9c0-0.2,0.1-0.3,0.2-0.4l2.4-3.6
			c0.3-0.5,0.6-0.7,1.1-0.7c0.7,0,1.6,0.5,1.6,0.9c0,0.2-0.2,0.5-0.4,0.7l-3.1,3c-0.5,0.4-0.7,0.5-1.2,0.5
			C268.8,389.2,268.5,389.1,268.5,388.9z"/>
		<path class="st5" d="M285.8,405.7L285.8,405.7c0-7.4,5.3-14.2,13.5-14.2c4.1,0,6.8,1.1,9.3,3c0.2,0.2,0.4,0.5,0.4,0.8
			c0,0.5-0.5,1-1,1c-0.2,0-0.4-0.1-0.6-0.3c-2.1-1.6-4.4-2.8-8.2-2.8c-6.6,0-11.3,5.6-11.3,12.2v0.1c0,7.1,4.4,12.3,11.7,12.3
			c3.5,0,6.7-1.4,8.7-3.1V407h-8.5c-0.5,0-0.9-0.4-0.9-0.9s0.4-0.9,0.9-0.9h9.4c0.5,0,1,0.5,1,1v8.9c0,0.4-0.3,0.8-0.7,1.2
			c-2.6,2-6,3.5-10,3.5C290.9,419.8,285.8,413.4,285.8,405.7z"/>
		<path class="st5" d="M317.1,408v-15.1c0-0.5,0.5-1,1-1c0.5,0,1,0.5,1,1v14.9c0,6.4,3.5,10.1,9.2,10.1c5.5,0,9.1-3.4,9.1-9.9v-15.1
			c0-0.5,0.5-1,1-1s1,0.5,1,1v14.9c0,7.8-4.6,12-11.2,12C321.8,419.7,317.1,415.6,317.1,408z"/>
		<path class="st5" d="M344.5,418l11.7-25.3c0.3-0.6,0.7-1,1.4-1h0.1c0.7,0,1.1,0.4,1.4,1l11.6,25.2c0.1,0.2,0.2,0.4,0.2,0.6
			c0,0.5-0.4,0.9-1,0.9c-0.5,0-0.8-0.4-1-0.8l-3.2-7h-16.1l-3.2,7.1c-0.2,0.5-0.5,0.7-1,0.7c-0.5,0-0.9-0.4-0.9-0.9
			C344.3,418.5,344.4,418.2,344.5,418z M364.7,409.8l-7.2-15.8l-7.2,15.8H364.7z"/>
	</g>
	<g class="st1">
		<path class="st5" d="M256,476l11.7-25.3c0.3-0.6,0.7-1,1.4-1h0.1c0.7,0,1.1,0.4,1.4,1l11.6,25.2c0.1,0.2,0.2,0.4,0.2,0.6
			c0,0.5-0.4,0.9-1,0.9c-0.5,0-0.8-0.4-1-0.8l-3.2-7H261l-3.2,7.1c-0.2,0.5-0.5,0.7-1,0.7c-0.5,0-0.9-0.4-0.9-0.9
			C255.9,476.5,255.9,476.2,256,476z M276.2,467.8L269,452l-7.2,15.8H276.2z"/>
		<path class="st5" d="M285.8,463.7L285.8,463.7c0-7.8,5.8-14.2,13.7-14.2c4.5,0,7.4,1.6,10,3.8c0.2,0.2,0.4,0.5,0.4,0.8
			c0,0.5-0.5,1-1.1,1c-0.3,0-0.5-0.1-0.7-0.3c-2.3-2.1-4.9-3.5-8.7-3.5c-6.6,0-11.5,5.3-11.5,12.2v0.1c0,6.9,5,12.3,11.5,12.3
			c3.7,0,6.3-1.3,8.9-3.8c0.2-0.2,0.4-0.3,0.7-0.3c0.5,0,1,0.5,1,1c0,0.3-0.2,0.5-0.3,0.7c-2.8,2.6-5.8,4.3-10.3,4.3
			C291.5,477.8,285.8,471.6,285.8,463.7z"/>
		<path class="st5" d="M313.8,463.7L313.8,463.7c0-7.5,5.5-14.2,13.8-14.2c8.3,0,13.7,6.6,13.7,14v0.1c0,3.6-1.3,7.1-3.6,9.6
			l3.1,2.6c0.3,0.3,0.5,0.5,0.5,0.9c0,0.6-0.5,1.1-1.1,1.1c-0.4,0-0.6-0.2-0.9-0.4l-3.1-2.8c-2.3,2-5.3,3.1-8.8,3.1
			C319.2,477.8,313.8,471.2,313.8,463.7z M329.8,468.6c0-0.6,0.5-1.1,1.1-1.1c0.4,0,0.6,0.2,0.9,0.4l4.5,4.1c1.9-2.1,3-5.1,3-8.3
			v-0.1c0-6.7-4.9-12.3-11.7-12.3s-11.6,5.5-11.6,12.2v0.1c0,6.7,4.9,12.3,11.7,12.3c2.8,0,5.3-0.9,7.3-2.6l-4.6-3.9
			C329.9,469.2,329.8,469,329.8,468.6z"/>
		<path class="st5" d="M347.7,466v-15.1c0-0.5,0.5-1,1-1c0.5,0,1,0.5,1,1v14.9c0,6.4,3.5,10.1,9.2,10.1c5.5,0,9.1-3.4,9.1-9.9v-15.1
			c0-0.5,0.5-1,1-1s1,0.5,1,1v14.9c0,7.8-4.6,12-11.2,12C352.3,477.7,347.7,473.6,347.7,466z"/>
		<path class="st5" d="M375.1,476l11.7-25.3c0.3-0.6,0.7-1,1.4-1h0.1c0.7,0,1.1,0.4,1.4,1l11.6,25.2c0.1,0.2,0.2,0.4,0.2,0.6
			c0,0.5-0.4,0.9-1,0.9c-0.5,0-0.8-0.4-1-0.8l-3.2-7H380l-3.2,7.1c-0.2,0.5-0.5,0.7-1,0.7c-0.5,0-0.9-0.4-0.9-0.9
			C374.9,476.5,375,476.2,375.1,476z M395.3,467.8l-7.2-15.8l-7.2,15.8H395.3z"/>
	</g>
	<g class="st1">
		<path class="st0" d="M166.4,180.1v-12.7c0-0.8,0.6-1.4,1.4-1.4h9c0.7,0,1.2,0.5,1.2,1.2c0,0.7-0.5,1.2-1.2,1.2h-7.6v4h6.6
			c0.7,0,1.2,0.6,1.2,1.2c0,0.7-0.6,1.2-1.2,1.2h-6.6v4.1h7.7c0.7,0,1.2,0.5,1.2,1.2c0,0.7-0.6,1.2-1.2,1.2h-9.1
			C167,181.4,166.4,180.8,166.4,180.1z"/>
		<path class="st0" d="M181.2,167.3c0-0.7,0.6-1.4,1.4-1.4h0.3c0.7,0,1,0.3,1.4,0.8l7.7,10v-9.5c0-0.7,0.6-1.3,1.3-1.3
			c0.7,0,1.3,0.6,1.3,1.3v12.9c0,0.7-0.6,1.3-1.3,1.3h-0.1c-0.6,0-1-0.3-1.4-0.8l-7.9-10.3v9.8c0,0.7-0.6,1.3-1.3,1.3
			c-0.7,0-1.3-0.6-1.3-1.3V167.3z"/>
		<path class="st0" d="M197.9,173.8L197.9,173.8c0-4.4,3.3-8,7.9-8c2.3,0,3.9,0.5,5.3,1.6c0.3,0.2,0.6,0.6,0.6,1.1
			c0,0.7-0.6,1.3-1.3,1.3c-0.4,0-0.6-0.2-0.8-0.3c-1-0.7-2.1-1.2-3.7-1.2c-2.8,0-5,2.5-5,5.4v0c0,3.2,2.1,5.5,5.2,5.5
			c1.5,0,2.8-0.5,3.7-1.2v-2.9h-3c-0.7,0-1.2-0.5-1.2-1.2s0.6-1.2,1.2-1.2h4.3c0.8,0,1.4,0.6,1.4,1.4v4.1c0,0.8-0.3,1.3-0.9,1.7
			c-1.3,0.9-3.2,1.7-5.5,1.7C201,181.7,197.9,178.3,197.9,173.8z"/>
	</g>
	<g class="st1">
		<path class="st0" d="M166.4,225.4c0-0.8,0.6-1.4,1.4-1.4h9c0.7,0,1.2,0.5,1.2,1.2c0,0.7-0.5,1.2-1.2,1.2h-7.6v4.2h6.6
			c0.7,0,1.2,0.5,1.2,1.2c0,0.7-0.6,1.2-1.2,1.2h-6.6v5c0,0.7-0.6,1.3-1.3,1.3c-0.8,0-1.4-0.6-1.4-1.3V225.4z"/>
		<path class="st0" d="M180.9,225.4c0-0.8,0.6-1.4,1.4-1.4h5.5c1.9,0,3.5,0.6,4.4,1.5c0.8,0.8,1.3,2,1.3,3.3v0c0,2.5-1.4,4-3.5,4.6
			l2.9,3.7c0.3,0.3,0.4,0.6,0.4,1c0,0.7-0.6,1.3-1.3,1.3c-0.6,0-1-0.3-1.3-0.7l-3.7-4.8h-3.4v4.1c0,0.7-0.6,1.3-1.3,1.3
			c-0.8,0-1.4-0.6-1.4-1.3V225.4z M187.5,231.7c1.9,0,3.2-1,3.2-2.6v0c0-1.7-1.2-2.6-3.2-2.6h-3.9v5.2H187.5z"/>
		<path class="st0" d="M195.9,237.7l5.7-12.8c0.3-0.7,0.9-1.1,1.6-1.1h0.1c0.8,0,1.3,0.4,1.6,1.1l5.7,12.8c0.1,0.2,0.2,0.4,0.2,0.6
			c0,0.7-0.6,1.3-1.3,1.3c-0.6,0-1.1-0.4-1.3-0.9l-1.3-2.9h-7.5l-1.3,3c-0.2,0.5-0.7,0.9-1.3,0.9c-0.7,0-1.3-0.6-1.3-1.3
			C195.7,238.1,195.8,237.9,195.9,237.7z M206,233.3l-2.7-6.2l-2.7,6.2H206z"/>
	</g>
	<g class="st1">
		<path class="st0" d="M166,295.7c-0.3-0.2-0.5-0.6-0.5-1c0-0.7,0.6-1.3,1.3-1.3c0.4,0,0.6,0.1,0.8,0.2c1.3,1,2.6,1.6,4.3,1.6
			s2.7-0.8,2.7-1.9v0c0-1.1-0.6-1.7-3.5-2.4c-3.3-0.8-5.1-1.8-5.1-4.6v0c0-2.6,2.2-4.5,5.3-4.5c1.9,0,3.5,0.5,4.9,1.4
			c0.3,0.2,0.6,0.6,0.6,1.1c0,0.7-0.6,1.3-1.3,1.3c-0.3,0-0.5-0.1-0.7-0.2c-1.2-0.8-2.3-1.2-3.5-1.2c-1.6,0-2.5,0.8-2.5,1.8v0
			c0,1.2,0.7,1.7,3.7,2.4c3.3,0.8,4.9,2,4.9,4.5v0c0,2.9-2.3,4.6-5.5,4.6C169.7,297.7,167.7,297,166,295.7z"/>
		<path class="st0" d="M180.5,283.4c0-0.8,0.6-1.4,1.4-1.4h4.7c3.6,0,5.9,2,5.9,5.1v0c0,3.5-2.8,5.3-6.2,5.3h-3.1v3.7
			c0,0.7-0.6,1.3-1.3,1.3c-0.8,0-1.4-0.6-1.4-1.3V283.4z M186.4,290c2,0,3.3-1.1,3.3-2.8v0c0-1.8-1.3-2.8-3.3-2.8h-3.1v5.5H186.4z"
			/>
		<path class="st0" d="M193.1,295.7l5.7-12.8c0.3-0.7,0.9-1.1,1.6-1.1h0.1c0.8,0,1.3,0.4,1.6,1.1l5.7,12.8c0.1,0.2,0.2,0.4,0.2,0.6
			c0,0.7-0.6,1.3-1.3,1.3c-0.6,0-1.1-0.4-1.3-0.9l-1.3-2.9h-7.5l-1.3,3c-0.2,0.5-0.7,0.9-1.3,0.9c-0.7,0-1.3-0.6-1.3-1.3
			C192.9,296.1,193,295.9,193.1,295.7z M203.2,291.3l-2.7-6.2l-2.7,6.2H203.2z"/>
	</g>
	<g class="st1">
		<path class="st0" d="M166.4,341.4c0-0.8,0.6-1.4,1.4-1.4h4.4c4.8,0,8.2,3.3,8.2,7.7v0c0,4.3-3.3,7.7-8.2,7.7h-4.4
			c-0.8,0-1.4-0.6-1.4-1.4V341.4z M172.2,353c3.2,0,5.3-2.2,5.3-5.2v0c0-3-2.1-5.2-5.3-5.2h-3V353H172.2z"/>
		<path class="st0" d="M183.6,354.1v-12.7c0-0.8,0.6-1.4,1.4-1.4h9c0.7,0,1.2,0.5,1.2,1.2c0,0.7-0.5,1.2-1.2,1.2h-7.6v4h6.6
			c0.7,0,1.2,0.6,1.2,1.2c0,0.7-0.6,1.2-1.2,1.2h-6.6v4.1h7.7c0.7,0,1.2,0.5,1.2,1.2c0,0.7-0.6,1.2-1.2,1.2H185
			C184.2,355.4,183.6,354.8,183.6,354.1z"/>
		<path class="st0" d="M198.1,348.9v-7.6c0-0.7,0.6-1.3,1.4-1.3c0.7,0,1.3,0.6,1.3,1.3v7.5c0,2.9,1.5,4.4,3.9,4.4
			c2.4,0,3.9-1.4,3.9-4.3v-7.6c0-0.7,0.6-1.3,1.4-1.3c0.7,0,1.3,0.6,1.3,1.3v7.5c0,4.6-2.6,6.9-6.6,6.9
			C200.7,355.7,198.1,353.4,198.1,348.9z"/>
	</g>
	<g class="st1">
		<path class="st0" d="M166.4,399.4c0-0.8,0.6-1.4,1.4-1.4h4.7c3.6,0,5.9,2,5.9,5.1v0c0,3.5-2.8,5.3-6.2,5.3h-3.1v3.7
			c0,0.7-0.6,1.3-1.3,1.3c-0.8,0-1.4-0.6-1.4-1.3V399.4z M172.3,406c2,0,3.3-1.1,3.3-2.8v0c0-1.8-1.3-2.8-3.3-2.8h-3.1v5.5H172.3z"
			/>
		<path class="st0" d="M180.4,405.8L180.4,405.8c0-4.4,3.3-8,8.1-8c4.7,0,8,3.6,8,7.9v0c0,4.3-3.3,8-8.1,8
			C183.7,413.7,180.4,410.1,180.4,405.8z M193.7,405.8L193.7,405.8c0-3-2.2-5.5-5.2-5.5c-3.1,0-5.2,2.4-5.2,5.4v0
			c0,3,2.2,5.5,5.2,5.5C191.6,411.2,193.7,408.8,193.7,405.8z"/>
		<path class="st0" d="M199.8,399.4c0-0.8,0.6-1.4,1.4-1.4h5.5c1.9,0,3.5,0.6,4.4,1.5c0.8,0.8,1.3,2,1.3,3.3v0c0,2.5-1.4,4-3.5,4.6
			l2.9,3.7c0.3,0.3,0.4,0.6,0.4,1c0,0.7-0.6,1.3-1.3,1.3c-0.6,0-1-0.3-1.3-0.7l-3.7-4.8h-3.4v4.1c0,0.7-0.6,1.3-1.3,1.3
			c-0.8,0-1.4-0.6-1.4-1.3V399.4z M206.5,405.7c1.9,0,3.2-1,3.2-2.6v0c0-1.7-1.2-2.6-3.2-2.6h-3.9v5.2H206.5z"/>
	</g>
	<g class="st1">
		<path class="st0" d="M166.6,457.3c0-0.7,0.6-1.3,1.4-1.3c0.7,0,1.3,0.6,1.3,1.3v12.9c0,0.7-0.6,1.3-1.3,1.3
			c-0.8,0-1.4-0.6-1.4-1.3V457.3z"/>
		<path class="st0" d="M177.2,458.5h-3.7c-0.7,0-1.3-0.6-1.3-1.3c0-0.7,0.6-1.3,1.3-1.3h10.2c0.7,0,1.2,0.6,1.2,1.3
			c0,0.7-0.5,1.3-1.2,1.3h-3.8v11.7c0,0.7-0.6,1.3-1.4,1.3s-1.4-0.6-1.4-1.3V458.5z"/>
		<path class="st0" d="M185,469.7l5.7-12.8c0.3-0.7,0.9-1.1,1.6-1.1h0.1c0.8,0,1.3,0.4,1.6,1.1l5.7,12.8c0.1,0.2,0.2,0.4,0.2,0.6
			c0,0.7-0.6,1.3-1.3,1.3c-0.6,0-1.1-0.4-1.3-0.9l-1.3-2.9h-7.5l-1.3,3c-0.2,0.5-0.7,0.9-1.3,0.9c-0.7,0-1.3-0.6-1.3-1.3
			C184.8,470.1,184.9,469.9,185,469.7z M195.1,465.3l-2.7-6.2l-2.7,6.2H195.1z"/>
	</g>
</g>
<polyline class="st4" points="561.8,30.8 578.1,42.3 561.8,53.9 "/>
</svg>
