<?xml version="1.0" encoding="utf-8"?>
<!-- Generator: Adobe Illustrator 16.0.0, SVG Export Plug-In . SVG Version: 6.00 Build 0)  -->
<!DOCTYPE svg PUBLIC "-//W3C//DTD SVG 1.1//EN" "http://www.w3.org/Graphics/SVG/1.1/DTD/svg11.dtd">
<svg version="1.1" id="Layer_1" xmlns="http://www.w3.org/2000/svg" xmlns:xlink="http://www.w3.org/1999/xlink" x="0px" y="0px"
	 width="612px" height="612px" viewBox="0 0 612 612" enable-background="new 0 0 612 612" xml:space="preserve">
<rect y="0" fill="#5F75A0" width="612" height="612"/>
<g>
	<g>
		<path fill="#FFFFFF" d="M134.757,139.306h3.873l7.707,27.186l10.815-27.186h0.783l10.689,27.186l7.838-27.186h3.844l-10.84,37.727
			h-0.7l-11.195-28.545l-11.413,28.545h-0.704L134.757,139.306z"/>
		<path fill="#FFFFFF" d="M212.166,149.129v27.904h-3.54v-4.796c-1.505,1.83-3.193,3.206-5.065,4.129
			c-1.873,0.923-3.92,1.385-6.143,1.385c-3.95,0-7.322-1.432-10.118-4.296s-4.193-6.348-4.193-10.451
			c0-4.018,1.411-7.455,4.232-10.31c2.821-2.855,6.215-4.283,10.182-4.283c2.291,0,4.364,0.487,6.219,1.462
			c1.855,0.975,3.484,2.437,4.886,4.386v-5.129H212.166z M197.816,151.873c-1.998,0-3.843,0.491-5.533,1.473
			c-1.691,0.982-3.036,2.362-4.035,4.138s-1.498,3.655-1.498,5.635c0,1.964,0.503,3.843,1.511,5.636
			c1.008,1.793,2.361,3.189,4.061,4.188s3.522,1.499,5.47,1.499c1.964,0,3.825-0.495,5.584-1.486
			c1.759-0.991,3.112-2.331,4.06-4.022c0.948-1.69,1.422-3.595,1.422-5.713c0-3.227-1.063-5.926-3.189-8.095
			S200.924,151.873,197.816,151.873z"/>
		<path fill="#FFFFFF" d="M220.507,149.129h3.59v5.001c1.437-1.915,3.026-3.347,4.771-4.295c1.744-0.949,3.642-1.424,5.693-1.424
			c2.086,0,3.937,0.53,5.553,1.59c1.616,1.061,2.808,2.488,3.578,4.283c0.77,1.795,1.154,4.591,1.154,8.386v14.362h-3.591v-13.311
			c0-3.214-0.133-5.36-0.399-6.438c-0.416-1.847-1.214-3.235-2.394-4.167c-1.18-0.932-2.719-1.398-4.617-1.398
			c-2.172,0-4.118,0.718-5.836,2.154c-1.719,1.437-2.852,3.215-3.398,5.334c-0.342,1.385-0.513,3.916-0.513,7.592v10.233h-3.59
			V149.129z"/>
		<path fill="#FFFFFF" d="M255.931,138.768h3.59v10.361h5.694v3.104h-5.694v24.8h-3.59v-24.8h-4.898v-3.104h4.898V138.768z"/>
		<path fill="#FFFFFF" d="M288.796,138.768h3.59v10.361h5.694v3.104h-5.694v24.8h-3.59v-24.8h-4.898v-3.104h4.898V138.768z"/>
		<path fill="#FFFFFF" d="M316.938,148.411c4.299,0,7.861,1.556,10.688,4.668c2.568,2.838,3.854,6.198,3.854,10.079
			c0,3.898-1.357,7.305-4.072,10.22c-2.715,2.916-6.205,4.373-10.469,4.373c-4.283,0-7.781-1.458-10.496-4.373
			c-2.715-2.915-4.072-6.322-4.072-10.22c0-3.864,1.284-7.215,3.854-10.054C309.049,149.975,312.621,148.411,316.938,148.411z
			 M316.924,151.924c-2.984,0-5.551,1.103-7.695,3.309s-3.217,4.873-3.217,8.002c0,2.018,0.488,3.898,1.467,5.642
			s2.299,3.09,3.963,4.04c1.664,0.949,3.492,1.423,5.482,1.423s3.818-0.475,5.482-1.423c1.664-0.949,2.986-2.295,3.963-4.04
			c0.979-1.744,1.469-3.625,1.469-5.642c0-3.129-1.078-5.796-3.23-8.002C322.453,153.027,319.893,151.924,316.924,151.924z"/>
		<path fill="#FFFFFF" d="M352.648,138.357h3.591v38.675h-3.591V138.357z"/>
		<path fill="#FFFFFF" d="M387.458,167.774l3.026,1.59c-0.992,1.949-2.139,3.522-3.439,4.719s-2.764,2.107-4.39,2.731
			c-1.626,0.624-3.466,0.936-5.52,0.936c-4.553,0-8.111-1.492-10.679-4.476c-2.567-2.983-3.851-6.356-3.851-10.118
			c0-3.539,1.086-6.694,3.26-9.463c2.755-3.522,6.443-5.284,11.064-5.284c4.757,0,8.556,1.804,11.396,5.412
			c2.02,2.548,3.046,5.728,3.081,9.541H366.3c0.068,3.241,1.104,5.898,3.106,7.971s4.477,3.109,7.421,3.109
			c1.421,0,2.803-0.247,4.147-0.741c1.344-0.494,2.486-1.15,3.428-1.967S386.362,169.597,387.458,167.774z M387.458,160.26
			c-0.479-1.915-1.177-3.445-2.093-4.591s-2.127-2.068-3.634-2.77c-1.507-0.701-3.09-1.051-4.75-1.051
			c-2.739,0-5.093,0.881-7.062,2.642c-1.438,1.282-2.525,3.206-3.262,5.771H387.458z"/>
		<path fill="#FFFFFF" d="M426.165,149.129v27.904h-3.539v-4.796c-1.505,1.83-3.193,3.206-5.065,4.129s-3.92,1.385-6.143,1.385
			c-3.949,0-7.321-1.432-10.117-4.296s-4.193-6.348-4.193-10.451c0-4.018,1.41-7.455,4.231-10.31
			c2.821-2.855,6.215-4.283,10.182-4.283c2.291,0,4.364,0.487,6.22,1.462s3.483,2.437,4.886,4.386v-5.129H426.165z M411.816,151.873
			c-1.998,0-3.843,0.491-5.534,1.473c-1.69,0.982-3.035,2.362-4.034,4.138s-1.499,3.655-1.499,5.635
			c0,1.964,0.504,3.843,1.512,5.636c1.007,1.793,2.361,3.189,4.06,4.188c1.699,0.999,3.522,1.499,5.47,1.499
			c1.964,0,3.825-0.495,5.585-1.486c1.759-0.991,3.112-2.331,4.061-4.022c0.947-1.69,1.421-3.595,1.421-5.713
			c0-3.227-1.062-5.926-3.189-8.095C417.541,152.958,414.924,151.873,411.816,151.873z"/>
		<path fill="#FFFFFF" d="M433.147,149.129h3.668v4.078c1.094-1.607,2.248-2.809,3.462-3.604s2.479-1.193,3.796-1.193
			c0.991,0,2.052,0.317,3.18,0.949l-1.872,3.026c-0.752-0.325-1.385-0.487-1.897-0.487c-1.197,0-2.352,0.492-3.463,1.475
			c-1.111,0.983-1.958,2.509-2.539,4.578c-0.444,1.59-0.666,4.805-0.666,9.643v9.438h-3.668V149.129z"/>
		<path fill="#FFFFFF" d="M451.672,149.129h3.591v5.001c1.436-1.915,3.026-3.347,4.77-4.295c1.744-0.949,3.643-1.424,5.694-1.424
			c2.086,0,3.937,0.53,5.552,1.59c1.616,1.061,2.809,2.488,3.578,4.283c0.77,1.795,1.154,4.591,1.154,8.386v14.362h-3.591v-13.311
			c0-3.214-0.134-5.36-0.399-6.438c-0.416-1.847-1.214-3.235-2.394-4.167c-1.18-0.932-2.72-1.398-4.617-1.398
			c-2.172,0-4.117,0.718-5.836,2.154c-1.719,1.437-2.852,3.215-3.398,5.334c-0.343,1.385-0.513,3.916-0.513,7.592v10.233h-3.591
			V149.129z"/>
		<path fill="#FFFFFF" d="M145.137,244.84h3.591v4.822c1.25-1.778,2.533-3.078,3.851-3.898c1.815-1.094,3.724-1.642,5.726-1.642
			c1.352,0,2.636,0.266,3.851,0.795c1.216,0.53,2.208,1.235,2.979,2.116c0.77,0.881,1.438,2.142,2.002,3.783
			c1.194-2.188,2.687-3.851,4.478-4.988c1.792-1.137,3.719-1.706,5.783-1.706c1.927,0,3.629,0.487,5.104,1.462
			s2.571,2.334,3.288,4.078c0.716,1.744,1.075,4.36,1.075,7.848v15.234h-3.667V257.51c0-2.992-0.213-5.048-0.639-6.168
			c-0.426-1.12-1.155-2.021-2.186-2.706c-1.031-0.684-2.262-1.026-3.694-1.026c-1.738,0-3.327,0.513-4.767,1.539
			c-1.44,1.026-2.493,2.394-3.157,4.104c-0.665,1.71-0.997,4.565-0.997,8.566v10.926h-3.59v-14.285c0-3.368-0.21-5.655-0.628-6.861
			c-0.419-1.205-1.15-2.171-2.193-2.898c-1.043-0.727-2.283-1.09-3.719-1.09c-1.659,0-3.21,0.5-4.655,1.5
			c-1.445,1-2.514,2.347-3.206,4.039c-0.692,1.693-1.039,4.283-1.039,7.771v11.823h-3.591V244.84z"/>
		<path fill="#FFFFFF" d="M207.901,244.122c4.299,0,7.861,1.556,10.688,4.668c2.569,2.838,3.854,6.198,3.854,10.079
			c0,3.898-1.358,7.305-4.072,10.22c-2.715,2.916-6.205,4.373-10.47,4.373c-4.282,0-7.781-1.458-10.495-4.373
			c-2.715-2.915-4.072-6.322-4.072-10.22c0-3.864,1.284-7.215,3.854-10.054C200.014,245.687,203.585,244.122,207.901,244.122z
			 M207.889,247.636c-2.985,0-5.551,1.103-7.696,3.309s-3.217,4.873-3.217,8.002c0,2.018,0.489,3.898,1.467,5.642
			s2.299,3.09,3.964,4.04c1.664,0.949,3.491,1.423,5.482,1.423c1.99,0,3.817-0.475,5.482-1.423c1.664-0.949,2.985-2.295,3.963-4.04
			s1.467-3.625,1.467-5.642c0-3.129-1.077-5.796-3.23-8.002C213.417,248.739,210.857,247.636,207.889,247.636z"/>
		<path fill="#FFFFFF" d="M227.989,244.84h3.667v4.078c1.094-1.607,2.248-2.809,3.462-3.604c1.214-0.795,2.479-1.193,3.796-1.193
			c0.991,0,2.052,0.317,3.18,0.949l-1.873,3.026c-0.752-0.325-1.385-0.487-1.898-0.487c-1.197,0-2.351,0.492-3.462,1.475
			c-1.112,0.983-1.958,2.509-2.539,4.578c-0.445,1.59-0.667,4.805-0.667,9.643v9.438h-3.667V244.84z"/>
		<path fill="#FFFFFF" d="M268.697,263.486l3.026,1.59c-0.993,1.949-2.139,3.522-3.44,4.719s-2.764,2.107-4.389,2.731
			c-1.626,0.624-3.466,0.936-5.52,0.936c-4.552,0-8.111-1.492-10.679-4.476c-2.567-2.983-3.851-6.356-3.851-10.118
			c0-3.539,1.086-6.694,3.26-9.463c2.755-3.522,6.443-5.284,11.064-5.284c4.757,0,8.557,1.804,11.397,5.412
			c2.019,2.548,3.046,5.728,3.08,9.541h-25.108c0.068,3.241,1.104,5.898,3.106,7.971c2.003,2.073,4.477,3.109,7.421,3.109
			c1.42,0,2.803-0.247,4.147-0.741c1.343-0.494,2.486-1.15,3.428-1.967C266.583,266.628,267.602,265.308,268.697,263.486z
			 M268.697,255.971c-0.479-1.915-1.177-3.445-2.093-4.591s-2.127-2.068-3.633-2.77c-1.507-0.701-3.09-1.051-4.75-1.051
			c-2.739,0-5.093,0.881-7.062,2.642c-1.438,1.282-2.525,3.206-3.261,5.771H268.697z"/>
		<path fill="#FFFFFF" d="M290.637,244.84h3.693l8.553,20.261l8.902-20.261h0.652l8.963,20.261l8.717-20.261h3.734l-12.121,27.904
			h-0.666l-8.924-19.979l-8.917,19.979h-0.668L290.637,244.84z"/>
		<path fill="#FFFFFF" d="M351.528,244.122c4.299,0,7.861,1.556,10.688,4.668c2.569,2.838,3.854,6.198,3.854,10.079
			c0,3.898-1.358,7.305-4.072,10.22c-2.715,2.916-6.205,4.373-10.47,4.373c-4.282,0-7.78-1.458-10.495-4.373
			c-2.715-2.915-4.072-6.322-4.072-10.22c0-3.864,1.284-7.215,3.854-10.054C343.641,245.687,347.212,244.122,351.528,244.122z
			 M351.516,247.636c-2.985,0-5.551,1.103-7.695,3.309c-2.146,2.206-3.218,4.873-3.218,8.002c0,2.018,0.489,3.898,1.468,5.642
			c0.978,1.744,2.299,3.09,3.963,4.04c1.664,0.949,3.492,1.423,5.482,1.423s3.817-0.475,5.481-1.423
			c1.665-0.949,2.986-2.295,3.964-4.04s1.468-3.625,1.468-5.642c0-3.129-1.077-5.796-3.23-8.002
			C357.044,248.739,354.483,247.636,351.516,247.636z"/>
		<path fill="#FFFFFF" d="M371.615,244.84h3.668v4.078c1.094-1.607,2.248-2.809,3.462-3.604s2.479-1.193,3.796-1.193
			c0.991,0,2.052,0.317,3.18,0.949l-1.872,3.026c-0.752-0.325-1.385-0.487-1.897-0.487c-1.197,0-2.352,0.492-3.463,1.475
			c-1.111,0.983-1.958,2.509-2.539,4.578c-0.444,1.59-0.666,4.805-0.666,9.643v9.438h-3.668V244.84z"/>
		<path fill="#FFFFFF" d="M416.581,234.069v38.675h-3.539v-4.796c-1.505,1.83-3.193,3.206-5.065,4.129s-3.92,1.385-6.143,1.385
			c-3.949,0-7.322-1.432-10.118-4.296c-2.795-2.864-4.192-6.348-4.192-10.451c0-4.018,1.41-7.455,4.231-10.31
			c2.821-2.855,6.215-4.283,10.182-4.283c2.291,0,4.364,0.487,6.22,1.462c1.854,0.975,3.483,2.437,4.886,4.386v-15.901H416.581z
			 M402.231,247.584c-1.998,0-3.843,0.491-5.533,1.473c-1.691,0.982-3.036,2.362-4.035,4.138s-1.498,3.655-1.498,5.635
			c0,1.964,0.504,3.843,1.511,5.636c1.008,1.793,2.361,3.189,4.061,4.188s3.522,1.499,5.47,1.499c1.964,0,3.825-0.495,5.584-1.486
			s3.112-2.331,4.061-4.022c0.948-1.69,1.422-3.595,1.422-5.713c0-3.227-1.063-5.926-3.189-8.095S405.34,247.584,402.231,247.584z"
			/>
		<path fill="#FFFFFF" d="M439.002,247.893l-2.308,2.385c-1.921-1.863-3.798-2.795-5.631-2.795c-1.167,0-2.165,0.385-2.996,1.154
			c-0.832,0.77-1.247,1.667-1.247,2.693c0,0.906,0.343,1.77,1.027,2.59c0.686,0.838,2.125,1.821,4.318,2.949
			c2.673,1.385,4.489,2.719,5.448,4.001c0.942,1.3,1.414,2.762,1.414,4.386c0,2.292-0.806,4.231-2.415,5.822
			c-1.609,1.59-3.622,2.385-6.036,2.385c-1.61,0-3.146-0.351-4.61-1.052c-1.465-0.701-2.676-1.667-3.635-2.898l2.257-2.565
			c1.834,2.069,3.779,3.104,5.835,3.104c1.439,0,2.665-0.462,3.677-1.385c1.011-0.923,1.517-2.009,1.517-3.257
			c0-1.026-0.334-1.94-1.002-2.744c-0.669-0.786-2.177-1.778-4.524-2.975c-2.519-1.299-4.232-2.582-5.14-3.847
			c-0.908-1.265-1.362-2.709-1.362-4.334c0-2.12,0.723-3.881,2.171-5.283c1.446-1.402,3.274-2.104,5.484-2.104
			C433.812,244.122,436.399,245.379,439.002,247.893z"/>
		<path fill="#FFFFFF" d="M453.73,263.486c-0.018-0.616-0.025-1.077-0.025-1.385c0-1.812,0.256-3.376,0.769-4.693
			c0.376-0.991,0.983-1.992,1.821-3c0.615-0.735,1.723-1.808,3.321-3.219s2.638-2.535,3.116-3.373
			c0.479-0.837,0.718-1.752,0.718-2.744c0-1.795-0.701-3.373-2.103-4.732c-1.402-1.359-3.121-2.039-5.155-2.039
			c-1.967,0-3.607,0.616-4.924,1.847c-1.317,1.231-2.181,3.155-2.591,5.771l-4.744-0.564c0.427-3.505,1.696-6.189,3.809-8.053
			c2.111-1.863,4.902-2.795,8.373-2.795c3.676,0,6.608,1,8.797,3s3.283,4.42,3.283,7.258c0,1.641-0.385,3.154-1.154,4.539
			c-0.77,1.385-2.274,3.069-4.514,5.053c-1.505,1.333-2.488,2.317-2.949,2.949c-0.462,0.633-0.805,1.359-1.026,2.18
			c-0.223,0.821-0.351,2.154-0.385,4.001H453.73z M453.448,272.744v-5.258h5.258v5.258H453.448z"/>
		<path fill="#FFFFFF" d="M194.873,330.729h18.722v7.002h-11.592v6.848h11.592v6.898h-11.592v16.979h-7.13V330.729z"/>
		<path fill="#FFFFFF" d="M232.58,339.834c2.633,0,5.108,0.658,7.425,1.975c2.317,1.317,4.125,3.104,5.424,5.36
			s1.949,4.693,1.949,7.31c0,2.633-0.654,5.096-1.962,7.387s-3.09,4.082-5.347,5.373c-2.257,1.29-4.745,1.936-7.463,1.936
			c-4.001,0-7.417-1.423-10.246-4.27s-4.244-6.305-4.244-10.374c0-4.36,1.598-7.993,4.796-10.9
			C225.715,341.1,228.938,339.834,232.58,339.834z M232.695,346.426c-2.175,0-3.986,0.756-5.434,2.27
			c-1.447,1.513-2.171,3.449-2.171,5.809c0,2.429,0.715,4.395,2.145,5.899c1.43,1.504,3.241,2.257,5.434,2.257
			s4.016-0.761,5.472-2.283c1.456-1.521,2.184-3.479,2.184-5.873c0-2.394-0.715-4.338-2.145-5.834
			C236.75,347.174,234.922,346.426,232.695,346.426z"/>
		<path fill="#FFFFFF" d="M252.591,329.78h7.001v38.676h-7.001V329.78z"/>
		<path fill="#FFFFFF" d="M265.446,329.78h7.001v38.676h-7.001V329.78z"/>
		<path fill="#FFFFFF" d="M292.176,339.834c2.633,0,5.108,0.658,7.425,1.975c2.317,1.317,4.125,3.104,5.424,5.36
			s1.95,4.693,1.95,7.31c0,2.633-0.654,5.096-1.962,7.387s-3.09,4.082-5.347,5.373c-2.257,1.29-4.745,1.936-7.463,1.936
			c-4.001,0-7.417-1.423-10.246-4.27s-4.244-6.305-4.244-10.374c0-4.36,1.598-7.993,4.796-10.9
			C285.311,341.1,288.534,339.834,292.176,339.834z M292.292,346.426c-2.175,0-3.986,0.756-5.434,2.27
			c-1.447,1.513-2.171,3.449-2.171,5.809c0,2.429,0.715,4.395,2.145,5.899c1.43,1.504,3.241,2.257,5.434,2.257
			s4.016-0.761,5.472-2.283c1.456-1.521,2.184-3.479,2.184-5.873c0-2.394-0.715-4.338-2.145-5.834
			C296.346,347.174,294.518,346.426,292.292,346.426z"/>
		<path fill="#FFFFFF" d="M309.866,340.553h6.853l5.611,15.875l6.037-15.875h4.192l5.928,15.695l5.618-15.695h6.897l-10.182,27.903
			h-4.437l-5.95-15.901l-6.13,15.901h-4.386L309.866,340.553z"/>
		<path fill="#FFFFFF" d="M370.16,340.553h7.078v13.438c0,2.616,0.181,4.433,0.54,5.45c0.36,1.018,0.938,1.808,1.735,2.372
			s1.778,0.847,2.944,0.847c1.165,0,2.155-0.278,2.969-0.834c0.814-0.556,1.419-1.372,1.812-2.449
			c0.292-0.804,0.438-2.521,0.438-5.155v-13.669h7.002v11.823c0,4.872-0.385,8.206-1.154,10.002
			c-0.94,2.188-2.325,3.868-4.155,5.039c-1.829,1.171-4.154,1.757-6.976,1.757c-3.061,0-5.535-0.684-7.425-2.052
			c-1.89-1.367-3.219-3.273-3.988-5.719c-0.547-1.692-0.82-4.771-0.82-9.233V340.553z"/>
		<path fill="#FFFFFF" d="M419.049,344.45l-4.334,4.335c-1.762-1.744-3.36-2.616-4.796-2.616c-0.787,0-1.402,0.167-1.847,0.5
			c-0.445,0.334-0.667,0.748-0.667,1.244c0,0.376,0.141,0.723,0.423,1.039s0.979,0.748,2.091,1.295l2.564,1.282
			c2.701,1.334,4.556,2.692,5.565,4.078c1.009,1.385,1.513,3.009,1.513,4.872c0,2.479-0.91,4.549-2.731,6.207
			c-1.82,1.658-4.262,2.487-7.322,2.487c-4.069,0-7.317-1.59-9.745-4.77l4.309-4.693c0.82,0.957,1.782,1.73,2.885,2.32
			c1.104,0.59,2.082,0.885,2.937,0.885c0.924,0,1.667-0.222,2.231-0.666c0.564-0.445,0.847-0.958,0.847-1.539
			c0-1.077-1.018-2.129-3.052-3.154l-2.36-1.181c-4.514-2.273-6.771-5.12-6.771-8.54c0-2.205,0.851-4.091,2.552-5.655
			s3.877-2.347,6.527-2.347c1.812,0,3.518,0.397,5.116,1.192C416.582,341.822,417.938,342.963,419.049,344.45z"/>
		<path fill="#FFFFFF" d="M146.747,435.546c4.299,0,7.861,1.557,10.688,4.668c2.569,2.838,3.854,6.198,3.854,10.079
			c0,3.898-1.358,7.306-4.072,10.221c-2.715,2.915-6.205,4.372-10.47,4.372c-4.282,0-7.781-1.457-10.495-4.372
			c-2.715-2.915-4.072-6.322-4.072-10.221c0-3.864,1.284-7.215,3.854-10.054C138.859,437.11,142.43,435.546,146.747,435.546z
			 M146.734,439.06c-2.985,0-5.551,1.103-7.696,3.309s-3.217,4.873-3.217,8.002c0,2.018,0.489,3.898,1.467,5.643
			c0.978,1.743,2.299,3.09,3.964,4.039c1.664,0.949,3.491,1.423,5.482,1.423c1.99,0,3.817-0.474,5.482-1.423
			c1.664-0.949,2.985-2.296,3.963-4.039c0.978-1.744,1.467-3.625,1.467-5.643c0-3.129-1.077-5.796-3.23-8.002
			C152.263,440.162,149.702,439.06,146.734,439.06z"/>
		<path fill="#FFFFFF" d="M168.194,436.265h3.59v5.001c1.437-1.915,3.026-3.347,4.771-4.296s3.642-1.424,5.693-1.424
			c2.086,0,3.937,0.53,5.553,1.591c1.616,1.06,2.808,2.487,3.578,4.282c0.77,1.796,1.154,4.591,1.154,8.387v14.362h-3.591v-13.311
			c0-3.215-0.133-5.36-0.399-6.438c-0.416-1.847-1.214-3.235-2.394-4.168c-1.18-0.932-2.719-1.397-4.617-1.397
			c-2.172,0-4.118,0.718-5.836,2.154c-1.719,1.437-2.852,3.215-3.398,5.335c-0.342,1.385-0.513,3.915-0.513,7.591v10.233h-3.59
			V436.265z"/>
		<path fill="#FFFFFF" d="M215.345,426.441h3.77v37.727h-3.77V426.441z"/>
		<path fill="#FFFFFF" d="M227.43,436.265h3.59v5.001c1.437-1.915,3.026-3.347,4.771-4.296s3.642-1.424,5.693-1.424
			c2.086,0,3.937,0.53,5.553,1.591c1.616,1.06,2.808,2.487,3.578,4.282c0.77,1.796,1.154,4.591,1.154,8.387v14.362h-3.591v-13.311
			c0-3.215-0.133-5.36-0.399-6.438c-0.416-1.847-1.214-3.235-2.394-4.168c-1.18-0.932-2.719-1.397-4.617-1.397
			c-2.172,0-4.118,0.718-5.836,2.154c-1.719,1.437-2.852,3.215-3.398,5.335c-0.342,1.385-0.513,3.915-0.513,7.591v10.233h-3.59
			V436.265z"/>
		<path fill="#FFFFFF" d="M273.754,439.316l-2.308,2.385c-1.92-1.863-3.797-2.795-5.631-2.795c-1.166,0-2.165,0.385-2.996,1.153
			c-0.832,0.77-1.247,1.667-1.247,2.693c0,0.906,0.342,1.77,1.028,2.59c0.685,0.838,2.125,1.821,4.318,2.95
			c2.673,1.385,4.489,2.718,5.449,4.001c0.942,1.299,1.413,2.761,1.413,4.385c0,2.292-0.805,4.232-2.415,5.822
			s-3.622,2.385-6.036,2.385c-1.61,0-3.146-0.351-4.61-1.051c-1.464-0.701-2.676-1.667-3.635-2.898l2.257-2.564
			c1.833,2.068,3.779,3.103,5.835,3.103c1.439,0,2.665-0.461,3.676-1.385c1.011-0.923,1.517-2.009,1.517-3.257
			c0-1.026-0.334-1.94-1.002-2.744c-0.668-0.786-2.176-1.778-4.523-2.976c-2.519-1.299-4.232-2.581-5.141-3.847
			c-0.908-1.265-1.362-2.71-1.362-4.334c0-2.12,0.723-3.881,2.17-5.283s3.275-2.104,5.485-2.104
			C268.565,435.546,271.151,436.803,273.754,439.316z"/>
		<path fill="#FFFFFF" d="M283.506,425.903h3.59v10.361h5.694v3.103h-5.694v24.801h-3.59v-24.801h-4.898v-3.103h4.898V425.903z"/>
		<path fill="#FFFFFF" d="M326.24,436.265v27.903h-3.539v-4.796c-1.506,1.83-3.193,3.206-5.066,4.129
			c-1.871,0.924-3.92,1.385-6.143,1.385c-3.949,0-7.321-1.432-10.117-4.296c-2.795-2.863-4.193-6.348-4.193-10.45
			c0-4.019,1.411-7.455,4.232-10.311c2.821-2.855,6.215-4.283,10.182-4.283c2.291,0,4.363,0.487,6.219,1.462
			s3.484,2.437,4.887,4.386v-5.129H326.24z M311.891,439.009c-1.998,0-3.842,0.491-5.533,1.473
			c-1.691,0.982-3.036,2.361-4.035,4.138s-1.498,3.654-1.498,5.636c0,1.964,0.503,3.843,1.511,5.636
			c1.008,1.793,2.361,3.189,4.061,4.188c1.698,0.999,3.522,1.499,5.47,1.499c1.963,0,3.824-0.496,5.584-1.486
			s3.113-2.331,4.061-4.021c0.947-1.691,1.422-3.596,1.422-5.713c0-3.228-1.062-5.927-3.189-8.096S314.998,439.009,311.891,439.009z
			"/>
		<path fill="#FFFFFF" d="M358.638,436.265h3.591V458.5c0,3.916-0.343,6.779-1.026,8.592c-0.94,2.564-2.573,4.539-4.898,5.925
			c-2.325,1.385-5.121,2.077-8.387,2.077c-2.394,0-4.544-0.339-6.45-1.016c-1.906-0.678-3.458-1.587-4.654-2.727
			c-1.197-1.142-2.3-2.809-3.309-5.004h3.898c1.061,1.847,2.431,3.215,4.108,4.104c1.677,0.889,3.758,1.334,6.239,1.334
			c2.448,0,4.516-0.456,6.201-1.367c1.687-0.912,2.89-2.059,3.608-3.438s1.078-3.608,1.078-6.685v-1.436
			c-1.353,1.71-3.004,3.022-4.955,3.937c-1.951,0.915-4.022,1.372-6.213,1.372c-2.567,0-4.98-0.637-7.239-1.911
			c-2.26-1.273-4.005-2.987-5.237-5.142s-1.849-4.522-1.849-7.104c0-2.581,0.642-4.988,1.926-7.22
			c1.283-2.23,3.06-3.996,5.327-5.296c2.268-1.299,4.659-1.949,7.175-1.949c2.088,0,4.035,0.433,5.841,1.295
			c1.806,0.864,3.547,2.287,5.225,4.271V436.265z M348.046,439.009c-2.035,0-3.924,0.491-5.668,1.475s-3.112,2.343-4.104,4.077
			c-0.992,1.736-1.488,3.612-1.488,5.63c0,3.061,1.026,5.591,3.078,7.592c2.052,2,4.71,3,7.977,3c3.299,0,5.954-0.991,7.963-2.975
			s3.014-4.591,3.014-7.822c0-2.104-0.462-3.979-1.385-5.63c-0.924-1.649-2.231-2.953-3.924-3.911
			C351.815,439.487,349.995,439.009,348.046,439.009z"/>
		<path fill="#FFFFFF" d="M368.825,436.265h3.668v4.077c1.094-1.606,2.248-2.808,3.462-3.604c1.214-0.795,2.479-1.192,3.796-1.192
			c0.991,0,2.052,0.316,3.18,0.949l-1.872,3.026c-0.752-0.324-1.385-0.487-1.897-0.487c-1.197,0-2.352,0.491-3.463,1.475
			s-1.958,2.51-2.539,4.578c-0.444,1.59-0.666,4.805-0.666,9.643v9.438h-3.668V436.265z"/>
		<path fill="#FFFFFF" d="M414.047,436.265v27.903h-3.539v-4.796c-1.505,1.83-3.193,3.206-5.065,4.129
			c-1.872,0.924-3.92,1.385-6.143,1.385c-3.949,0-7.321-1.432-10.117-4.296c-2.796-2.863-4.193-6.348-4.193-10.45
			c0-4.019,1.41-7.455,4.231-10.311s6.215-4.283,10.182-4.283c2.291,0,4.364,0.487,6.22,1.462s3.483,2.437,4.886,4.386v-5.129
			H414.047z M399.698,439.009c-1.998,0-3.843,0.491-5.534,1.473c-1.69,0.982-3.035,2.361-4.034,4.138s-1.499,3.654-1.499,5.636
			c0,1.964,0.504,3.843,1.512,5.636c1.007,1.793,2.361,3.189,4.06,4.188c1.699,0.999,3.522,1.499,5.47,1.499
			c1.964,0,3.825-0.496,5.585-1.486c1.759-0.99,3.112-2.331,4.061-4.021c0.947-1.691,1.421-3.596,1.421-5.713
			c0-3.228-1.062-5.927-3.189-8.096C405.423,440.093,402.806,439.009,399.698,439.009z"/>
		<path fill="#FFFFFF" d="M422.363,436.265h3.59v4.821c1.25-1.778,2.533-3.078,3.852-3.898c1.814-1.094,3.724-1.642,5.727-1.642
			c1.352,0,2.636,0.266,3.851,0.795c1.216,0.53,2.209,1.235,2.979,2.116c0.771,0.881,1.438,2.142,2.003,3.783
			c1.194-2.188,2.687-3.852,4.478-4.988s3.719-1.706,5.782-1.706c1.928,0,3.63,0.487,5.104,1.462
			c1.476,0.975,2.571,2.334,3.288,4.078s1.074,4.36,1.074,7.848v15.234h-3.667v-15.234c0-2.991-0.213-5.048-0.64-6.168
			c-0.426-1.119-1.154-2.021-2.186-2.706c-1.03-0.684-2.262-1.025-3.693-1.025c-1.738,0-3.327,0.513-4.768,1.539
			c-1.439,1.025-2.492,2.394-3.156,4.104c-0.665,1.71-0.997,4.564-0.997,8.565v10.926h-3.591v-14.285
			c0-3.368-0.209-5.655-0.628-6.86c-0.419-1.206-1.15-2.172-2.193-2.898s-2.282-1.09-3.719-1.09c-1.658,0-3.21,0.5-4.654,1.5
			c-1.445,1-2.514,2.347-3.206,4.04c-0.692,1.692-1.039,4.282-1.039,7.771v11.823h-3.59V436.265z"/>
		<path fill="#FFFFFF" d="M475.868,458.525c0.872,0,1.616,0.308,2.231,0.924c0.615,0.615,0.924,1.368,0.924,2.257
			c0,0.872-0.309,1.62-0.924,2.244s-1.359,0.936-2.231,0.936s-1.615-0.312-2.231-0.936c-0.615-0.624-0.923-1.372-0.923-2.244
			c0-0.889,0.308-1.642,0.923-2.257C474.253,458.833,474.996,458.525,475.868,458.525z"/>
	</g>
</g>
</svg>
