<?xml version="1.0" encoding="utf-8"?>
<!-- Generator: Adobe Illustrator 16.0.0, SVG Export Plug-In . SVG Version: 6.00 Build 0)  -->
<!DOCTYPE svg PUBLIC "-//W3C//DTD SVG 1.1//EN" "http://www.w3.org/Graphics/SVG/1.1/DTD/svg11.dtd">
<svg version="1.1" id="Layer_1" xmlns="http://www.w3.org/2000/svg" xmlns:xlink="http://www.w3.org/1999/xlink" x="0px" y="0px"
	 width="612px" height="612px" viewBox="0 0 612 612" style="enable-background:new 0 0 612 612;" xml:space="preserve">
<style type="text/css">
<![CDATA[
	.st0{enable-background:new    ;}
	.st1{opacity:0.6;enable-background:new    ;}
	.st2{fill:#FFFFFF;}
	.st3{fill:#312F32;}
	.st4{fill:#6AB487;}
	.st5{fill:#6BD598;}
]]>
</style>
<rect class="st5" width="612" height="612"/>
<path class="st1" d="M45,102c-14.8-0.1-20.6,3.6-19.1,19.4c4.6,51.7,30,326.3,36.4,422.5c0.7,11.2,4.4,15.4,15.6,15.3
	c20.2-0.2,343.2,4.9,446.2,10.1c13.6,0.7,16.9-4.4,17.3-17.3c1.5-53.9,11.4-338.3,15.4-440.1c0.5-12.2-2.4-15-13.8-15.1
	C506.6,96.4,105.8,102.4,45,102z"/>
<path class="st1" d="M65.9,17.3c-1.6,0.2-11.2,77.5-11.2,77.5s1,7.1-9.1,7.1l4.8,13.6h66.8v-14.1c0,0-4.8,0.2-9.5-6.3L68.5,20
	C68.5,20,67.5,17.1,65.9,17.3z"/>
<path class="st2" d="M57.9,89.1c-14.8-0.1-20.6,3.6-19.1,19.4c4.6,51.7,30,326.3,36.4,422.5c0.7,11.2,4.4,15.4,15.6,15.3
	c20.2-0.2,343.2,4.9,446.2,10.1c13.6,0.7,16.9-4.4,17.3-17.3c1.5-53.9,11.4-338.3,15.4-440.1c0.5-12.2-2.4-15-13.8-15.1
	C519.5,83.5,118.7,89.5,57.9,89.1z"/>
<path class="st2" d="M65.5,18.9v63c0,0,1,7.1-9.1,7.1v13.6h66.8v-14c0,0-4.8,0.2-9.5-6.3L68.3,18.9C68.3,18.9,65.7,14.8,65.5,18.9z"
	/>
<g>
	<g class="st0">
		<path class="st3" d="M251.8,160.9c0-0.5,0.5-1,1-1s1,0.5,1,1v11.8h17.5v-11.8c0-0.5,0.5-1,1-1c0.5,0,1,0.5,1,1v25.6
			c0,0.5-0.5,1-1,1c-0.5,0-1-0.5-1-1v-11.9h-17.5v11.9c0,0.5-0.5,1-1,1s-1-0.5-1-1V160.9z"/>
		<path class="st3" d="M281.4,186.3V161c0-0.5,0.5-1,1-1h17.6c0.5,0,0.9,0.4,0.9,0.9s-0.4,0.9-0.9,0.9h-16.6v10.7h14.9
			c0.5,0,0.9,0.4,0.9,0.9s-0.4,0.9-0.9,0.9h-14.9v11h16.8c0.5,0,0.9,0.4,0.9,0.9c0,0.5-0.4,0.9-0.9,0.9h-17.8
			C281.9,187.3,281.4,186.9,281.4,186.3z"/>
		<path class="st3" d="M307.6,160.9c0-0.5,0.5-1,1-1s1,0.5,1,1v24.6h15.2c0.5,0,0.9,0.4,0.9,0.9c0,0.5-0.4,0.9-0.9,0.9h-16.3
			c-0.5,0-1-0.5-1-1V160.9z"/>
		<path class="st3" d="M331.7,160.9c0-0.5,0.5-1,1-1s1,0.5,1,1v24.6H349c0.5,0,0.9,0.4,0.9,0.9c0,0.5-0.4,0.9-0.9,0.9h-16.3
			c-0.5,0-1-0.5-1-1V160.9z"/>
		<path class="st3" d="M353.1,173.7L353.1,173.7c0-7.5,5.5-14.2,13.8-14.2c8.3,0,13.7,6.6,13.7,14v0.1c0,7.4-5.5,14.1-13.8,14.1
			C358.5,187.8,353.1,181.2,353.1,173.7z M378.4,173.7L378.4,173.7c0-6.8-4.9-12.4-11.7-12.4c-6.7,0-11.6,5.5-11.6,12.2v0.1
			c0,6.7,4.9,12.3,11.7,12.3C373.6,186,378.4,180.5,378.4,173.7z"/>
	</g>
	<g class="st0">
		<path class="st3" d="M251.8,219c0-0.5,0.5-1,1-1h10.3c3.1,0,5.6,0.9,7.1,2.4c1.1,1.1,1.8,2.6,1.8,4.3v0.1c0,3.7-2.4,5.6-4.6,6.5
			c3.3,0.9,6.2,2.7,6.2,6.5v0.1c0,4.6-3.9,7.4-9.8,7.4h-10.8c-0.5,0-1-0.5-1-1V219z M262.8,230.6c4.1,0,7-2,7-5.6v-0.1
			c0-3-2.5-5-6.8-5h-9.2v10.7H262.8z M263.7,243.4c4.7,0,7.6-2.1,7.6-5.6v-0.1c0-3.4-2.9-5.3-8.3-5.3h-9.2v11H263.7z"/>
		<path class="st3" d="M278.7,231.7L278.7,231.7c0-7.5,5.5-14.2,13.8-14.2c8.3,0,13.7,6.6,13.7,14v0.1c0,7.4-5.5,14.1-13.8,14.1
			S278.7,239.2,278.7,231.7z M304.1,231.7L304.1,231.7c0-6.8-4.9-12.4-11.7-12.4s-11.6,5.5-11.6,12.2v0.1c0,6.7,4.9,12.3,11.7,12.3
			C299.3,244,304.1,238.5,304.1,231.7z"/>
		<path class="st3" d="M313.1,218.9c0-0.5,0.5-1,1-1h0.3c0.4,0,0.7,0.2,1,0.6l18.4,23.4v-23c0-0.5,0.4-1,1-1c0.5,0,1,0.4,1,1v25.7
			c0,0.5-0.4,0.9-0.8,0.9h-0.2c-0.4,0-0.7-0.3-1-0.7L315,221v23.5c0,0.5-0.4,1-1,1c-0.5,0-1-0.4-1-1V218.9z"/>
		<path class="st3" d="M341.6,241.2c-0.1-0.1-0.2-0.4-0.2-0.5c0-0.5,0.5-1,1-1c0.4,0,0.7,0.3,0.8,0.5c1.6,2.5,3.4,3.7,6.4,3.7
			c3.4,0,5.9-2.5,5.9-7.3v-17.7c0-0.5,0.5-1,1-1c0.5,0,1,0.5,1,1v17.6c0,3.2-1,5.6-2.5,7.1c-1.4,1.4-3.4,2.2-5.6,2.2
			C345.8,245.7,343.3,243.8,341.6,241.2z"/>
		<path class="st3" d="M364.1,231.7L364.1,231.7c0-7.5,5.5-14.2,13.8-14.2s13.7,6.6,13.7,14v0.1c0,7.4-5.5,14.1-13.8,14.1
			S364.1,239.2,364.1,231.7z M389.5,231.7L389.5,231.7c0-6.8-4.9-12.4-11.7-12.4s-11.6,5.5-11.6,12.2v0.1c0,6.7,4.9,12.3,11.7,12.3
			S389.5,238.5,389.5,231.7z"/>
		<path class="st3" d="M398,234v-15.1c0-0.5,0.5-1,1-1s1,0.5,1,1v14.9c0,6.4,3.5,10.1,9.2,10.1c5.5,0,9.1-3.4,9.1-9.9v-15.1
			c0-0.5,0.5-1,1-1c0.5,0,1,0.5,1,1v14.9c0,7.8-4.6,12-11.2,12C402.7,245.7,398,241.6,398,234z"/>
		<path class="st3" d="M428.1,219c0-0.5,0.5-1,1-1h10.5c3.4,0,6,1.1,7.7,2.7c1.3,1.3,2.1,3.1,2.1,5.1v0.1c0,4.6-3.4,7.2-8,7.8
			l7.8,10.1c0.2,0.2,0.3,0.5,0.3,0.7c0,0.5-0.5,1.1-1.1,1.1c-0.4,0-0.7-0.2-0.9-0.5l-8.4-10.9h-8.9v10.5c0,0.5-0.5,1-1,1
			c-0.5,0-1-0.5-1-1V219z M439.3,232.2c4.6,0,8-2.3,8-6.2v-0.1c0-3.7-2.9-6-7.8-6h-9.3v12.3H439.3z"/>
	</g>
	<g class="st0">
		<path class="st3" d="M251.8,276.9c0-0.5,0.5-1,1-1s1,0.5,1,1v11.8h17.5v-11.8c0-0.5,0.5-1,1-1c0.5,0,1,0.5,1,1v25.6
			c0,0.5-0.5,1-1,1c-0.5,0-1-0.5-1-1v-11.9h-17.5v11.9c0,0.5-0.5,1-1,1s-1-0.5-1-1V276.9z"/>
		<path class="st3" d="M280.2,289.7L280.2,289.7c0-7.5,5.5-14.2,13.8-14.2c8.3,0,13.7,6.6,13.7,14v0.1c0,7.4-5.5,14.1-13.8,14.1
			S280.2,297.2,280.2,289.7z M305.6,289.7L305.6,289.7c0-6.8-4.9-12.4-11.7-12.4s-11.6,5.5-11.6,12.2v0.1c0,6.7,4.9,12.3,11.7,12.3
			C300.7,302,305.6,296.5,305.6,289.7z"/>
		<path class="st3" d="M314.6,276.9c0-0.5,0.5-1,1-1c0.5,0,1,0.5,1,1v24.6h15.2c0.5,0,0.9,0.4,0.9,0.9c0,0.5-0.4,0.9-0.9,0.9h-16.3
			c-0.5,0-1-0.5-1-1V276.9z"/>
		<path class="st3" d="M337,302l11.7-25.3c0.3-0.6,0.7-1,1.4-1h0.1c0.7,0,1.1,0.4,1.4,1l11.6,25.2c0.1,0.2,0.2,0.4,0.2,0.6
			c0,0.5-0.4,0.9-1,0.9c-0.5,0-0.8-0.4-1-0.8l-3.2-7H342l-3.2,7.1c-0.2,0.5-0.5,0.7-1,0.7c-0.5,0-0.9-0.4-0.9-0.9
			C336.8,302.5,336.9,302.2,337,302z M357.2,293.8L350,278l-7.2,15.8H357.2z"/>
	</g>
	<g class="st0">
		<path class="st3" d="M251.8,334.9c0-0.5,0.5-1,1-1s1,0.5,1,1v11.8h17.5v-11.8c0-0.5,0.5-1,1-1c0.5,0,1,0.5,1,1v25.6
			c0,0.5-0.5,1-1,1c-0.5,0-1-0.5-1-1v-11.9h-17.5v11.9c0,0.5-0.5,1-1,1s-1-0.5-1-1V334.9z"/>
		<path class="st3" d="M279.7,360l11.7-25.3c0.3-0.6,0.7-1,1.4-1h0.1c0.7,0,1.1,0.4,1.4,1l11.6,25.2c0.1,0.2,0.2,0.4,0.2,0.6
			c0,0.5-0.4,0.9-1,0.9c-0.5,0-0.8-0.4-1-0.8l-3.2-7h-16.1l-3.2,7.1c-0.2,0.5-0.5,0.7-1,0.7c-0.5,0-0.9-0.4-0.9-0.9
			C279.6,360.5,279.6,360.2,279.7,360z M299.9,351.8l-7.2-15.8l-7.2,15.8H299.9z"/>
		<path class="st3" d="M312.2,334.9c0-0.5,0.5-1,1-1c0.5,0,1,0.5,1,1v24.6h15.2c0.5,0,0.9,0.4,0.9,0.9c0,0.5-0.4,0.9-0.9,0.9h-16.3
			c-0.5,0-1-0.5-1-1V334.9z"/>
		<path class="st3" d="M336.4,334.9c0-0.5,0.5-1,1-1s1,0.5,1,1v24.6h15.2c0.5,0,0.9,0.4,0.9,0.9c0,0.5-0.4,0.9-0.9,0.9h-16.3
			c-0.5,0-1-0.5-1-1V334.9z"/>
		<path class="st3" d="M357.8,347.7L357.8,347.7c0-7.5,5.5-14.2,13.8-14.2c8.3,0,13.7,6.6,13.7,14v0.1c0,7.4-5.5,14.1-13.8,14.1
			C363.2,361.8,357.8,355.2,357.8,347.7z M383.1,347.7L383.1,347.7c0-6.8-4.9-12.4-11.7-12.4c-6.7,0-11.6,5.5-11.6,12.2v0.1
			c0,6.7,4.9,12.3,11.7,12.3C378.3,360,383.1,354.5,383.1,347.7z"/>
	</g>
	<g class="st0">
		<path class="st3" d="M250.6,405.7L250.6,405.7c0-7.5,5.5-14.2,13.8-14.2c8.3,0,13.7,6.6,13.7,14v0.1c0,7.4-5.5,14.1-13.8,14.1
			S250.6,413.2,250.6,405.7z M275.9,405.7L275.9,405.7c0-6.8-4.9-12.4-11.7-12.4s-11.6,5.5-11.6,12.2v0.1c0,6.7,4.9,12.3,11.7,12.3
			C271.1,418,275.9,412.5,275.9,405.7z"/>
		<path class="st3" d="M284.9,392.9c0-0.5,0.5-1,1-1s1,0.5,1,1v24.6h15.2c0.5,0,0.9,0.4,0.9,0.9c0,0.5-0.4,0.9-0.9,0.9H286
			c-0.5,0-1-0.5-1-1V392.9z"/>
		<path class="st3" d="M307.4,418l11.7-25.3c0.3-0.6,0.7-1,1.4-1h0.1c0.7,0,1.1,0.4,1.4,1l11.6,25.2c0.1,0.2,0.2,0.4,0.2,0.6
			c0,0.5-0.4,0.9-1,0.9c-0.5,0-0.8-0.4-1-0.8l-3.2-7h-16.1l-3.2,7.1c-0.2,0.5-0.5,0.7-1,0.7c-0.5,0-0.9-0.4-0.9-0.9
			C307.2,418.5,307.2,418.2,307.4,418z M327.6,409.8l-7.2-15.8l-7.2,15.8H327.6z M319.9,388.9c0-0.2,0.1-0.3,0.2-0.4l2.4-3.6
			c0.3-0.5,0.6-0.7,1.1-0.7c0.7,0,1.6,0.5,1.6,0.9c0,0.2-0.2,0.5-0.4,0.7l-3.1,3c-0.5,0.4-0.7,0.5-1.2,0.5
			C320.1,389.2,319.9,389.1,319.9,388.9z"/>
	</g>
	<g class="st0">
		<path class="st3" d="M250.6,463.7L250.6,463.7c0-7.8,5.8-14.2,13.7-14.2c4.5,0,7.4,1.6,10,3.8c0.2,0.2,0.4,0.5,0.4,0.8
			c0,0.5-0.5,1-1.1,1c-0.3,0-0.5-0.1-0.7-0.3c-2.3-2.1-4.9-3.5-8.7-3.5c-6.6,0-11.5,5.3-11.5,12.2v0.1c0,6.9,5,12.3,11.5,12.3
			c3.7,0,6.3-1.3,8.9-3.8c0.2-0.2,0.4-0.3,0.7-0.3c0.5,0,1,0.5,1,1c0,0.3-0.2,0.5-0.3,0.7c-2.8,2.6-5.8,4.3-10.3,4.3
			C256.4,477.8,250.6,471.6,250.6,463.7z"/>
		<path class="st3" d="M280.8,450.9c0-0.5,0.5-1,1-1s1,0.5,1,1v25.6c0,0.5-0.5,1-1,1s-1-0.5-1-1V450.9z"/>
		<path class="st3" d="M289.5,476l11.7-25.3c0.3-0.6,0.7-1,1.4-1h0.1c0.7,0,1.1,0.4,1.4,1l11.6,25.2c0.1,0.2,0.2,0.4,0.2,0.6
			c0,0.5-0.4,0.9-1,0.9c-0.5,0-0.8-0.4-1-0.8l-3.2-7h-16.1l-3.2,7.1c-0.2,0.5-0.5,0.7-1,0.7c-0.5,0-0.9-0.4-0.9-0.9
			C289.4,476.5,289.4,476.2,289.5,476z M309.7,467.8l-7.2-15.8l-7.2,15.8H309.7z"/>
		<path class="st3" d="M319.3,463.7L319.3,463.7c0-7.5,5.5-14.2,13.8-14.2s13.7,6.6,13.7,14v0.1c0,7.4-5.5,14.1-13.8,14.1
			S319.3,471.2,319.3,463.7z M344.7,463.7L344.7,463.7c0-6.8-4.9-12.4-11.7-12.4s-11.6,5.5-11.6,12.2v0.1c0,6.7,4.9,12.3,11.7,12.3
			S344.7,470.5,344.7,463.7z"/>
	</g>
	<g class="st0">
		<path class="st4" d="M160.5,180.1v-12.7c0-0.8,0.6-1.4,1.4-1.4h9c0.7,0,1.2,0.5,1.2,1.2c0,0.7-0.5,1.2-1.2,1.2h-7.6v4h6.6
			c0.7,0,1.2,0.6,1.2,1.2c0,0.7-0.6,1.2-1.2,1.2h-6.6v4.1h7.7c0.7,0,1.2,0.5,1.2,1.2c0,0.7-0.6,1.2-1.2,1.2h-9.1
			C161.1,181.4,160.5,180.8,160.5,180.1z"/>
		<path class="st4" d="M175.2,167.3c0-0.7,0.6-1.4,1.4-1.4h0.3c0.7,0,1,0.3,1.4,0.8l7.7,10v-9.5c0-0.7,0.6-1.3,1.3-1.3
			c0.7,0,1.3,0.6,1.3,1.3v12.9c0,0.7-0.6,1.3-1.3,1.3h-0.1c-0.6,0-1-0.3-1.4-0.8l-7.9-10.3v9.8c0,0.7-0.6,1.3-1.3,1.3
			c-0.7,0-1.3-0.6-1.3-1.3V167.3z"/>
		<path class="st4" d="M191.9,173.8L191.9,173.8c0-4.4,3.3-8,7.9-8c2.3,0,3.9,0.5,5.3,1.6c0.3,0.2,0.6,0.6,0.6,1.1
			c0,0.7-0.6,1.3-1.3,1.3c-0.4,0-0.6-0.2-0.8-0.3c-1-0.7-2.1-1.2-3.7-1.2c-2.8,0-5,2.5-5,5.4v0c0,3.2,2.1,5.5,5.2,5.5
			c1.5,0,2.8-0.5,3.7-1.2v-2.9h-3c-0.7,0-1.2-0.5-1.2-1.2s0.6-1.2,1.2-1.2h4.3c0.8,0,1.4,0.6,1.4,1.4v4.1c0,0.8-0.3,1.3-0.9,1.7
			c-1.3,0.9-3.2,1.7-5.5,1.7C195.1,181.7,191.9,178.3,191.9,173.8z"/>
	</g>
	<g class="st0">
		<path class="st4" d="M160.5,225.4c0-0.8,0.6-1.4,1.4-1.4h9c0.7,0,1.2,0.5,1.2,1.2c0,0.7-0.5,1.2-1.2,1.2h-7.6v4.2h6.6
			c0.7,0,1.2,0.5,1.2,1.2c0,0.7-0.6,1.2-1.2,1.2h-6.6v5c0,0.7-0.6,1.3-1.3,1.3c-0.8,0-1.4-0.6-1.4-1.3V225.4z"/>
		<path class="st4" d="M174.9,225.4c0-0.8,0.6-1.4,1.4-1.4h5.5c1.9,0,3.5,0.6,4.4,1.5c0.8,0.8,1.3,2,1.3,3.3v0c0,2.5-1.4,4-3.5,4.6
			l2.9,3.7c0.3,0.3,0.4,0.6,0.4,1c0,0.7-0.6,1.3-1.3,1.3c-0.6,0-1-0.3-1.3-0.7l-3.7-4.8h-3.4v4.1c0,0.7-0.6,1.3-1.3,1.3
			c-0.8,0-1.4-0.6-1.4-1.3V225.4z M181.6,231.7c1.9,0,3.2-1,3.2-2.6v0c0-1.7-1.2-2.6-3.2-2.6h-3.9v5.2H181.6z"/>
		<path class="st4" d="M189.9,237.7l5.7-12.8c0.3-0.7,0.9-1.1,1.6-1.1h0.1c0.8,0,1.3,0.4,1.6,1.1l5.7,12.8c0.1,0.2,0.2,0.4,0.2,0.6
			c0,0.7-0.6,1.3-1.3,1.3c-0.6,0-1.1-0.4-1.3-0.9l-1.3-2.9h-7.5l-1.3,3c-0.2,0.5-0.7,0.9-1.3,0.9c-0.7,0-1.3-0.6-1.3-1.3
			C189.8,238.1,189.8,237.9,189.9,237.7z M200,233.3l-2.7-6.2l-2.7,6.2H200z"/>
	</g>
	<g class="st0">
		<path class="st4" d="M160.1,295.7c-0.3-0.2-0.5-0.6-0.5-1c0-0.7,0.6-1.3,1.3-1.3c0.4,0,0.6,0.1,0.8,0.2c1.3,1,2.6,1.6,4.3,1.6
			s2.7-0.8,2.7-1.9v0c0-1.1-0.6-1.7-3.5-2.4c-3.3-0.8-5.1-1.8-5.1-4.6v0c0-2.6,2.2-4.5,5.3-4.5c1.9,0,3.5,0.5,4.9,1.4
			c0.3,0.2,0.6,0.6,0.6,1.1c0,0.7-0.6,1.3-1.3,1.3c-0.3,0-0.5-0.1-0.7-0.2c-1.2-0.8-2.3-1.2-3.5-1.2c-1.6,0-2.5,0.8-2.5,1.8v0
			c0,1.2,0.7,1.7,3.7,2.4c3.3,0.8,4.9,2,4.9,4.5v0c0,2.9-2.3,4.6-5.5,4.6C163.8,297.7,161.8,297,160.1,295.7z"/>
		<path class="st4" d="M174.6,283.4c0-0.8,0.6-1.4,1.4-1.4h4.7c3.6,0,5.9,2,5.9,5.1v0c0,3.5-2.8,5.3-6.2,5.3h-3.1v3.7
			c0,0.7-0.6,1.3-1.3,1.3c-0.8,0-1.4-0.6-1.4-1.3V283.4z M180.4,290c2,0,3.3-1.1,3.3-2.8v0c0-1.8-1.3-2.8-3.3-2.8h-3.1v5.5H180.4z"
			/>
		<path class="st4" d="M187.2,295.7l5.7-12.8c0.3-0.7,0.9-1.1,1.6-1.1h0.1c0.8,0,1.3,0.4,1.6,1.1l5.7,12.8c0.1,0.2,0.2,0.4,0.2,0.6
			c0,0.7-0.6,1.3-1.3,1.3c-0.6,0-1.1-0.4-1.3-0.9l-1.3-2.9h-7.5l-1.3,3c-0.2,0.5-0.7,0.9-1.3,0.9c-0.7,0-1.3-0.6-1.3-1.3
			C187,296.1,187,295.9,187.2,295.7z M197.2,291.3l-2.7-6.2l-2.7,6.2H197.2z"/>
	</g>
	<g class="st0">
		<path class="st4" d="M160.5,341.4c0-0.8,0.6-1.4,1.4-1.4h4.4c4.8,0,8.2,3.3,8.2,7.7v0c0,4.3-3.3,7.7-8.2,7.7h-4.4
			c-0.8,0-1.4-0.6-1.4-1.4V341.4z M166.2,353c3.2,0,5.3-2.2,5.3-5.2v0c0-3-2.1-5.2-5.3-5.2h-3V353H166.2z"/>
		<path class="st4" d="M177.7,354.1v-12.7c0-0.8,0.6-1.4,1.4-1.4h9c0.7,0,1.2,0.5,1.2,1.2c0,0.7-0.5,1.2-1.2,1.2h-7.6v4h6.6
			c0.7,0,1.2,0.6,1.2,1.2c0,0.7-0.6,1.2-1.2,1.2h-6.6v4.1h7.7c0.7,0,1.2,0.5,1.2,1.2c0,0.7-0.6,1.2-1.2,1.2h-9.1
			C178.3,355.4,177.7,354.8,177.7,354.1z"/>
		<path class="st4" d="M192.2,348.9v-7.6c0-0.7,0.6-1.3,1.4-1.3c0.7,0,1.3,0.6,1.3,1.3v7.5c0,2.9,1.5,4.4,3.9,4.4
			c2.4,0,3.9-1.4,3.9-4.3v-7.6c0-0.7,0.6-1.3,1.4-1.3c0.7,0,1.3,0.6,1.3,1.3v7.5c0,4.6-2.6,6.9-6.6,6.9
			C194.7,355.7,192.2,353.4,192.2,348.9z"/>
	</g>
	<g class="st0">
		<path class="st4" d="M160.5,399.4c0-0.8,0.6-1.4,1.4-1.4h4.7c3.6,0,5.9,2,5.9,5.1v0c0,3.5-2.8,5.3-6.2,5.3h-3.1v3.7
			c0,0.7-0.6,1.3-1.3,1.3c-0.8,0-1.4-0.6-1.4-1.3V399.4z M166.3,406c2,0,3.3-1.1,3.3-2.8v0c0-1.8-1.3-2.8-3.3-2.8h-3.1v5.5H166.3z"
			/>
		<path class="st4" d="M174.5,405.8L174.5,405.8c0-4.4,3.3-8,8.1-8c4.7,0,8,3.6,8,7.9v0c0,4.3-3.3,8-8.1,8
			C177.8,413.7,174.5,410.1,174.5,405.8z M187.8,405.8L187.8,405.8c0-3-2.2-5.5-5.2-5.5c-3.1,0-5.2,2.4-5.2,5.4v0
			c0,3,2.2,5.5,5.2,5.5C185.6,411.2,187.8,408.8,187.8,405.8z"/>
		<path class="st4" d="M193.9,399.4c0-0.8,0.6-1.4,1.4-1.4h5.5c1.9,0,3.5,0.6,4.4,1.5c0.8,0.8,1.3,2,1.3,3.3v0c0,2.5-1.4,4-3.5,4.6
			l2.9,3.7c0.3,0.3,0.4,0.6,0.4,1c0,0.7-0.6,1.3-1.3,1.3c-0.6,0-1-0.3-1.3-0.7l-3.7-4.8h-3.4v4.1c0,0.7-0.6,1.3-1.3,1.3
			c-0.8,0-1.4-0.6-1.4-1.3V399.4z M200.6,405.7c1.9,0,3.2-1,3.2-2.6v0c0-1.7-1.2-2.6-3.2-2.6h-3.9v5.2H200.6z"/>
	</g>
	<g class="st0">
		<path class="st4" d="M160.6,457.3c0-0.7,0.6-1.3,1.4-1.3c0.7,0,1.3,0.6,1.3,1.3v12.9c0,0.7-0.6,1.3-1.3,1.3
			c-0.8,0-1.4-0.6-1.4-1.3V457.3z"/>
		<path class="st4" d="M171.2,458.5h-3.7c-0.7,0-1.3-0.6-1.3-1.3c0-0.7,0.6-1.3,1.3-1.3h10.2c0.7,0,1.2,0.6,1.2,1.3
			c0,0.7-0.5,1.3-1.2,1.3H174v11.7c0,0.7-0.6,1.3-1.4,1.3s-1.4-0.6-1.4-1.3V458.5z"/>
		<path class="st4" d="M179.1,469.7l5.7-12.8c0.3-0.7,0.9-1.1,1.6-1.1h0.1c0.8,0,1.3,0.4,1.6,1.1l5.7,12.8c0.1,0.2,0.2,0.4,0.2,0.6
			c0,0.7-0.6,1.3-1.3,1.3c-0.6,0-1.1-0.4-1.3-0.9l-1.3-2.9h-7.5l-1.3,3c-0.2,0.5-0.7,0.9-1.3,0.9c-0.7,0-1.3-0.6-1.3-1.3
			C178.9,470.1,179,469.9,179.1,469.7z M189.2,465.3l-2.7-6.2l-2.7,6.2H189.2z"/>
	</g>
</g>
<polyline class="st2" points="559.8,30.8 576.1,42.3 559.8,53.9 "/>
</svg>
