<?xml version="1.0" encoding="utf-8"?>
<!-- Generator: Adobe Illustrator 16.0.0, SVG Export Plug-In . SVG Version: 6.00 Build 0)  -->
<!DOCTYPE svg PUBLIC "-//W3C//DTD SVG 1.1//EN" "http://www.w3.org/Graphics/SVG/1.1/DTD/svg11.dtd">
<svg version="1.1" id="Layer_1" xmlns="http://www.w3.org/2000/svg" xmlns:xlink="http://www.w3.org/1999/xlink" x="0px" y="0px"
	 width="384px" height="384px" viewBox="0 0 384 384" style="enable-background:new 0 0 384 384;" xml:space="preserve">
<style type="text/css">
<![CDATA[
	.st0{fill:none;stroke:#000000;stroke-width:6.6318;stroke-miterlimit:10;}
	.st1{clip-path:url(#SVGID_2_);fill:#5ED395;stroke:#000000;stroke-width:6.6318;stroke-miterlimit:10;}
	.st2{fill:#5F75A0;}
	.st3{fill:#5F75A0;stroke:#000000;stroke-width:6.6318;stroke-miterlimit:10;}
]]>
</style>
<g>
	<path class="st2" d="M342.6,114.7c0.2,3.4,0.2,6.7,0.2,10.1c0,102.8-78.2,221.1-221.1,221.1C77.8,345.9,37.1,333,2.6,311
		c6.1,0.7,12.3,1.1,18.6,1.1c36.4,0,69.8-12.4,96.4-33.2c-34-0.6-62.7-23.1-72.6-54c4.8,0.9,9.6,1.4,14.7,1.4c7,0,14-0.9,20.5-2.7
		c-35.6-7.1-62.3-38.6-62.3-76.2c0-0.3,0-0.6,0-0.9c10.4,5.7,22.5,9.3,35.2,9.7c-20.9-13.9-34.6-37.7-34.6-64.7
		c0-14.2,3.8-27.5,10.5-39c38.3,47,95.6,77.9,160.1,81.1c-1.3-5.7-1.9-11.6-1.9-17.7c0-43,34.7-77.7,77.7-77.7
		c22.3,0,42.5,9.4,56.6,24.5c17.7-3.5,34.4-9.9,49.3-18.9c-5.7,18.2-18.1,33.3-34.1,42.9c15.7-1.8,30.7-6,44.6-12.2
		C371,90.1,357.8,103.8,342.6,114.7z"/>
</g>
</svg>
