<?xml version="1.0" encoding="utf-8"?>
<!-- Generator: Adobe Illustrator 16.0.0, SVG Export Plug-In . SVG Version: 6.00 Build 0)  -->
<!DOCTYPE svg PUBLIC "-//W3C//DTD SVG 1.1//EN" "http://www.w3.org/Graphics/SVG/1.1/DTD/svg11.dtd">
<svg version="1.1" id="Layer_1" xmlns="http://www.w3.org/2000/svg" xmlns:xlink="http://www.w3.org/1999/xlink" x="0px" y="0px"
	 width="200px" height="200px" viewBox="0 0 200 200" style="enable-background:new 0 0 200 200;" xml:space="preserve">
<style type="text/css">
<![CDATA[
	.st0{fill-rule:evenodd;clip-rule:evenodd;fill:#FFFFFF;}
]]>
</style>
<path class="st0" d="M100.1,199.3c-25.4,0-50.8,0-76.2,0c-2.8,0-5.5-0.4-8.1-1.3c-8.4-3-14-10.5-15-18.6c-0.1-1.2-0.2-2.4-0.2-3.6
	c0-50.6,0-101.1,0-151.7c0-6.1,1.9-11.5,6.1-16c3.9-4.2,8.7-6.7,14.5-7.3c1.1-0.1,2.3-0.2,3.4-0.2c50.3,0,100.5,0,150.8,0
	c2.2,0,4.3,0.2,6.5,0.7c9.3,2.3,16.1,10,17.3,19.6c0.1,0.6,0.1,1.2,0.1,1.9c0,0.9,0,1.9,0,2.8c0,50.2,0,100.4,0,150.6
	c0,3.3-0.5,6.4-1.9,9.3c-3.5,7.7-9.5,12.2-17.9,13.5c-1.2,0.2-2.5,0.2-3.7,0.2c-20,0-40,0-60,0C110.6,199.3,105.3,199.3,100.1,199.3
	z M159.3,84.9c0,0.1-0.1,0.2-0.1,0.2c0,0.3,0.1,0.6,0.2,0.9c0.8,3.6,1.4,7.2,1.6,10.9c0.2,4.6,0,9.1-0.8,13.6
	c-1.8,10.2-5.9,19.5-12.4,27.6c-11.1,13.7-25.4,21.3-42.9,22.9c-5.8,0.5-11.7,0.1-17.4-1.1c-20.4-4.3-37.3-18.8-44.7-38.3
	c-2.1-5.6-3.3-11.3-3.8-17.2c-0.3-3.9-0.2-7.8,0.3-11.6c0.3-2.2,0.8-4.4,1.2-6.6c0.1-0.4,0.3-0.9,0-1.3c-0.2,0-0.3-0.1-0.5-0.1
	c-5.2,0-10.4,0-15.7,0c-0.2,0-0.5,0.1-0.8,0.2c0,0.6,0,1.2,0,1.8c0,27,0,54.1,0,81.1c0,0.5,0,0.9,0,1.4c0.2,3.7,3,6.7,6.6,7.1
	c0.7,0.1,1.3,0.1,2,0.1c45.2,0,90.4,0,135.6,0c0.6,0,1.2,0,1.9-0.1c3.8-0.4,6.5-3.4,6.7-7.2c0-0.6,0-1.1,0-1.7c0-26.8,0-53.7,0-80.5
	c0-0.4,0-0.8,0-1.2c0-0.3-0.1-0.6-0.1-0.8C174.8,84.7,160.8,84.7,159.3,84.9z M100.1,61.8C78.6,61.9,61.8,79.1,61.8,100
	c0,21.4,17.4,38.2,38.2,38.2c21.3,0,38.2-17.4,38.2-38.2C138.2,79.8,121.9,62,100.1,61.8z M176.4,42.8L176.4,42.8c0-2.5,0-5,0-7.4
	c0-1.5,0-3.1,0-4.6c-0.2-3.3-2.6-6.1-5.8-6.8c-0.8-0.2-1.6-0.3-2.5-0.3c-7.2,0-14.4,0-21.5,0c-0.4,0-0.7,0-1.1,0
	c-3.7,0.2-6.5,2.8-7.2,6.4c-0.1,0.7-0.1,1.3-0.1,2c0,7.1,0,14.3,0,21.4c0,0.3,0,0.6,0,0.9c0.2,4.7,4.1,7.5,7.6,7.4
	c0.3,0,0.6,0,0.9,0c7,0,14.1,0,21.1,0c0.5,0,0.9,0,1.4,0c2.4-0.1,4.3-1.2,5.8-3.2c1-1.4,1.4-2.9,1.4-4.7
	C176.4,50.3,176.4,46.5,176.4,42.8z"/>
</svg>
