<?xml version="1.0" encoding="utf-8"?>
<!-- Generator: Adobe Illustrator 16.0.0, SVG Export Plug-In . SVG Version: 6.00 Build 0)  -->
<!DOCTYPE svg PUBLIC "-//W3C//DTD SVG 1.1//EN" "http://www.w3.org/Graphics/SVG/1.1/DTD/svg11.dtd">
<svg version="1.1" id="Layer_1" xmlns="http://www.w3.org/2000/svg" xmlns:xlink="http://www.w3.org/1999/xlink" x="0px" y="0px"
	 width="612px" height="612px" viewBox="0 0 612 612" style="enable-background:new 0 0 612 612;" xml:space="preserve">
<style type="text/css">
<![CDATA[
	.st0{fill:#EB6D82;}
	.st1{fill:#FFD350;}
	.st2{fill:#FFFFFF;}
	.st3{fill:#6BD598;}
]]>
</style>
<g>
	<circle class="st3" cx="306" cy="306" r="275.8"/>
</g>
<g>
	<path d="M449.2,247.2c-7.1-5.7-13.1-10.1-18.8-13.9c-12.2-8.2-26-14-43.5-18.1c-24-5.7-51.2-8.7-80.9-8.8
		c-29.7,0.1-56.9,3.1-80.9,8.8c-17.5,4.2-31.3,9.9-43.5,18.1c-5.7,3.8-11.7,8.2-18.8,13.9c-9.5,7.5-21.7,17.7-31.5,29.7
		c-5.9,7.2-13.4,17.7-10.1,25.3l0.2,0.5c2.4,7,12.1,24.5,31.7,40.5c14.5,11.8,32.1,21.2,52.4,27.9c25.6,8.5,75.1,13,100.5,13
		c24.6,0,75-4.5,100.5-13c20.3-6.7,37.9-16.1,52.4-27.9c19.7-16,29.4-33.5,31.7-40.5l0.2-0.5c3.3-7.6-4.2-18.1-10.1-25.3
		C470.9,264.9,458.7,254.7,449.2,247.2z"/>
</g>
<path class="st1" d="M171.9,369.7c0,0,105.6,62.8,269.8,5.5c0,0-51.8-73.4-132.2-34.8C309.5,340.5,226.8,299.2,171.9,369.7z"/>
<path d="M298.9,355.6c0,0,14.4-29.8,64.4-32.7l-8.1-23.2C355.2,299.7,311,315.5,298.9,355.6z"/>
<g>
	<path class="st2" d="M303.1,241.4c0,4.4-3.5,7.9-7.9,7.9h-51.8c-4.4,0-7.9-3.5-7.9-7.9v-45.1c0-4.4,3.5-7.9,7.9-7.9h51.8
		c4.4,0,7.9,3.5,7.9,7.9V241.4z"/>
	<path class="st2" d="M230.4,233.9c0,4.4-3.5,7.9-7.9,7.9h-51.8c-4.4,0-7.9-3.5-7.9-7.9v-45.1c0-4.4,3.5-7.9,7.9-7.9h51.8
		c4.4,0,7.9,3.5,7.9,7.9V233.9z"/>
	<path class="st2" d="M308.9,241.4c0,4.4,3.5,7.9,7.9,7.9h51.8c4.4,0,7.9-3.5,7.9-7.9v-45.1c0-4.4-3.5-7.9-7.9-7.9h-51.8
		c-4.4,0-7.9,3.5-7.9,7.9V241.4z"/>
	<path class="st2" d="M381.6,233.9c0,4.4,3.5,7.9,7.9,7.9h51.8c4.4,0,7.9-3.5,7.9-7.9v-45.1c0-4.4-3.5-7.9-7.9-7.9h-51.8
		c-4.4,0-7.9,3.5-7.9,7.9V233.9z"/>
</g>
<path class="st0" d="M513.7,242.2c-20.4-45.4-74.8-75.5-118.4-99.6l-1.2-0.7c-18-10-32.4-16.1-48.3-16.1c-9.3,0-19.2,2.1-31,6.5
	c-2.6,1-5.4,1.5-8.3,1.5h-1c-2.9,0-5.7-0.5-8.3-1.5c-11.8-4.4-21.6-6.5-31-6.5c-16,0-30.3,6.2-48.3,16.1l-1.2,0.7
	c-43.7,24.1-98,54.2-118.4,99.6c-9.9,22-12,49-6.3,80.3c5.9,32.3,18.5,60.8,28.1,79.1c14.7,28.1,40.6,49.9,76.7,64.8
	c31.4,12.9,69.1,19.8,109.2,20c40.1-0.2,77.9-7.1,109.2-20c36.2-14.8,62-36.6,76.7-64.8c9.6-18.3,22.2-46.8,28.1-79.1
	C525.7,291.1,523.6,264.1,513.7,242.2z M490.8,302.2l-0.2,0.5c-2.4,7-12.1,24.5-31.7,40.5c-14.5,11.8-32.1,21.2-52.4,27.9
	c-25.6,8.5-75.9,13-100.5,13c-25.4,0-75-4.5-100.5-13c-20.3-6.7-37.9-16.1-52.4-27.9c-19.7-16-29.4-33.5-31.7-40.5l-0.2-0.5
	c-3.3-7.6,4.2-18.1,10.1-25.3c9.8-12,22-22.2,31.5-29.7c7.1-5.7,13.1-10.1,18.8-13.9c12.2-8.2,26-14,43.5-18.1
	c24-5.7,51.2-8.7,80.9-8.8c29.7,0.1,56.9,3.1,80.9,8.8c17.5,4.2,31.3,9.9,43.5,18.1c5.7,3.8,11.7,8.2,18.8,13.9
	c9.5,7.5,21.7,17.7,31.5,29.7C486.6,284.1,494.1,294.6,490.8,302.2z"/>
<path d="M309.9,492.4c0.3,0,0.6,0,0.9,0c38.7-0.7,75.1-7.6,105.7-20.2c37.7-15.5,64.7-38.4,80.2-68.1c9.7-18.4,22.4-47.3,28.4-80.1
	c5.9-32.7,3.6-61.1-6.9-84.6c-9.5-21.2-26.7-41-52.4-60.3c-21.8-16.5-46.1-29.9-67.5-41.7l-1.2-0.7c-18.5-10.2-34.5-17.1-52.3-17.1
	c-10.5,0-21.3,2.2-34,7c-1.3,0.5-2.7,0.7-4.2,0.7h-1c-1.6,0-2.9-0.2-4.2-0.7c-12.8-4.8-23.6-7-34-7c-17.8,0-33.8,6.8-52.3,17.1
	l-1.2,0.7c-21.4,11.8-45.7,25.3-67.5,41.7c-25.7,19.4-42.8,39.1-52.4,60.3C83.3,262.9,81,291.3,86.9,324c6,32.8,18.7,61.6,28.4,80.1
	c15.6,29.7,42.6,52.6,80.2,68.1c30.4,12.5,66.6,19.4,105,20.2C300.5,492.3,309.7,492.4,309.9,492.4z M514.3,322
	c-5.7,31.4-18,59.2-27.3,77c-14.3,27.4-39.5,48.6-74.7,63c-30.5,12.5-67.2,19.2-106.3,19.4c-39.1-0.2-75.8-6.9-106.3-19.4
	c-35.2-14.5-60.3-35.7-74.7-63c-9.3-17.8-21.6-45.5-27.3-77c-5.5-30.4-3.5-56.7,6.1-78.1c19.9-44.2,72.8-73.5,115.2-96.9l1.2-0.7
	c17.5-9.7,31.5-15.7,47-15.7c9.1,0,18.7,2,30.2,6.3c2.5,0.9,5.2,1.4,8.1,1.4h1c2.9,0,5.6-0.5,8.1-1.4c11.5-4.3,21.1-6.3,30.2-6.3
	c15.5,0,29.5,6,47,15.7l1.2,0.7c42.5,23.5,95.4,52.7,115.2,96.9C517.8,265.3,519.8,291.6,514.3,322z"/>
<path d="M482.1,270.7c-10-12.3-22.1-22.6-31.6-30.2c-7-5.6-12.9-10-18.5-13.8c-12.7-8.6-26.9-14.6-44.8-18.9
	c-24.1-5.8-51.4-8.8-81.2-8.8H306h-0.1c-29.7,0-57.1,3-81.2,8.8c-17.9,4.3-32.1,10.3-44.8,18.9c-5.6,3.8-11.5,8.2-18.5,13.8
	c-9.5,7.6-21.6,17.9-31.6,30.2c-5.1,6.3-17.1,21.2-11.2,35.4c0.9,2.6,8.6,22.9,32.8,43c14.7,12.3,32.6,22,53.2,29
	c25.5,8.6,65.7,14.2,101.4,14.2c35.1,0,75.9-5.5,101.4-14.2c20.6-7,38.5-16.7,53.2-29c24.2-20.2,31.9-40.4,32.8-43
	C499.2,291.9,487.2,277.1,482.1,270.7z M483.2,301.9l-0.2,0.5c-2.3,6.7-11.6,23.4-30.4,38.8c-13.9,11.3-30.8,20.3-50.2,26.8
	c-24.5,8.1-72.7,12.4-96.3,12.4c-24.4,0-71.8-4.3-96.3-12.4c-19.5-6.5-36.4-15.5-50.2-26.8c-18.9-15.3-28.1-32.1-30.4-38.8l-0.2-0.5
	c-3.2-7.3,4-17.3,9.7-24.2c9.4-11.5,21.1-21.3,30.2-28.5c6.8-5.4,12.6-9.6,18-13.3c11.7-7.9,24.9-13.4,41.7-17.4
	c23-5.5,49.1-8.4,77.5-8.5c28.4,0.1,54.5,3,77.5,8.5c16.7,4,30,9.5,41.7,17.4c5.5,3.7,11.2,7.9,18,13.3c9.1,7.2,20.8,17,30.2,28.5
	C479.1,284.6,486.3,294.6,483.2,301.9z"/>
</svg>
