<?xml version="1.0" encoding="utf-8"?>
<!-- Generator: Adobe Illustrator 16.0.0, SVG Export Plug-In . SVG Version: 6.00 Build 0)  -->
<!DOCTYPE svg PUBLIC "-//W3C//DTD SVG 1.1//EN" "http://www.w3.org/Graphics/SVG/1.1/DTD/svg11.dtd">
<svg version="1.1" id="Layer_1" xmlns="http://www.w3.org/2000/svg" xmlns:xlink="http://www.w3.org/1999/xlink" x="0px" y="0px"
	 width="640px" height="640px" viewBox="0 0 640 640" style="enable-background:new 0 0 640 640;" xml:space="preserve">
<style type="text/css">
<![CDATA[
	.st0{opacity:0.6;fill-rule:evenodd;clip-rule:evenodd;}
	.st1{fill-rule:evenodd;clip-rule:evenodd;fill:#FFFFFF;}
]]>
</style>
<path class="st0" d="M47.1,106.6c-15.4-0.1-21.5,3.8-20,20.3c4.9,54,31.4,341.3,38.1,441.8c0.8,11.7,4.6,16.1,16.4,16
	c21.2-0.2,358.9,5.1,466.6,10.5c14.2,0.7,17.7-4.6,18.1-18.1c1.5-56.4,12-353.8,16.1-460.2c0.5-12.8-2.6-15.7-14.4-15.8
	C529.8,100.8,110.6,107.1,47.1,106.6z"/>
<path class="st0" d="M68.9,18.1c-1.7,0.3-11.7,81.1-11.7,81.1s1,7.5-9.5,7.5l5.1,14.2h69.9v-14.8c0,0-5,0.2-10-6.6L71.6,20.9
	C71.6,20.9,70.6,17.8,68.9,18.1z"/>
<path class="st1" d="M60.6,93.2c-15.4-0.1-21.5,3.8-20,20.3c4.9,54,31.4,341.3,38.1,441.8c0.8,11.7,4.6,16.1,16.4,16
	c21.2-0.2,358.9,5.1,466.6,10.5c14.2,0.7,17.7-4.6,18.1-18.1c1.5-56.4,12-353.8,16.1-460.2c0.5-12.8-2.6-15.7-14.4-15.8
	C543.3,87.3,124.1,93.6,60.6,93.2z"/>
<path class="st1" d="M68.5,19.8v65.9c0,0,1,7.5-9.5,7.5v14.2h69.9V92.6c0,0-5,0.2-10-6.6L71.4,19.8C71.4,19.8,68.7,15.5,68.5,19.8z"
	/>
</svg>
