<?xml version="1.0" encoding="utf-8"?>
<!-- Generator: Adobe Illustrator 16.0.0, SVG Export Plug-In . SVG Version: 6.00 Build 0)  -->
<!DOCTYPE svg PUBLIC "-//W3C//DTD SVG 1.1//EN" "http://www.w3.org/Graphics/SVG/1.1/DTD/svg11.dtd">
<svg version="1.1" id="Layer_1" xmlns="http://www.w3.org/2000/svg" xmlns:xlink="http://www.w3.org/1999/xlink" x="0px" y="0px"
	 width="612px" height="100px" viewBox="0 0 612 100" style="enable-background:new 0 0 612 100;" xml:space="preserve">
<g>
	<path d="M17.3,9.5h6.2v17.8h9.8v5.3h-9.8v42.7h-6.2V32.7H8.8v-5.3h8.4V9.5z"/>
	<path d="M51.6,8.8h6.2V36c2.5-3.3,5.3-5.8,8.3-7.4c3-1.6,6.3-2.5,9.8-2.5c3.6,0,6.8,0.9,9.6,2.7c2.8,1.8,4.8,4.3,6.2,7.4
		c1.3,3.1,2,7.9,2,14.5v24.7h-6.2V52.5c0-5.5-0.2-9.2-0.7-11.1c-0.8-3.2-2.2-5.6-4.2-7.2c-2-1.6-4.7-2.4-7.9-2.4
		c-3.7,0-7.1,1.2-10,3.7c-3,2.5-4.9,5.5-5.9,9.2c-0.6,2.4-0.9,6.7-0.9,13.1v17.6h-6.2V8.8z"/>
	<path d="M153.2,59.5l5.2,2.7c-1.7,3.4-3.7,6.1-5.9,8.1c-2.2,2.1-4.8,3.6-7.6,4.7c-2.8,1.1-6,1.6-9.5,1.6c-7.8,0-14-2.6-18.4-7.7
		c-4.4-5.1-6.6-10.9-6.6-17.4c0-6.1,1.9-11.5,5.6-16.3c4.7-6.1,11.1-9.1,19-9.1c8.2,0,14.7,3.1,19.6,9.3c3.5,4.4,5.2,9.9,5.3,16.4
		h-43.2c0.1,5.6,1.9,10.2,5.3,13.7c3.4,3.6,7.7,5.4,12.8,5.4c2.4,0,4.8-0.4,7.1-1.3c2.3-0.9,4.3-2,5.9-3.4
		C149.6,64.9,151.3,62.6,153.2,59.5z M153.2,46.5c-0.8-3.3-2-5.9-3.6-7.9c-1.6-2-3.7-3.6-6.3-4.8c-2.6-1.2-5.3-1.8-8.2-1.8
		c-4.7,0-8.8,1.5-12.2,4.5c-2.5,2.2-4.3,5.5-5.6,9.9H153.2z"/>
	<path d="M205.3,27.3v5.3c2.2-2.2,4.5-3.8,7.1-4.9c2.5-1.1,5.2-1.6,8.1-1.6c6.3,0,11.6,2.4,16,7.1c4.4,4.7,6.6,10.8,6.6,18.2
		c0,7.2-2.3,13.1-6.8,18c-4.5,4.8-9.9,7.2-16.1,7.2c-2.8,0-5.3-0.5-7.7-1.5c-2.4-1-4.8-2.6-7.1-4.8V93h-12V27.3H205.3z M218,37.2
		c-3.8,0-6.9,1.3-9.4,3.9c-2.5,2.6-3.8,6-3.8,10.2c0,4.3,1.2,7.7,3.8,10.4c2.5,2.6,5.7,4,9.4,4c3.7,0,6.8-1.3,9.3-4
		c2.5-2.7,3.8-6.1,3.8-10.2c0-4.1-1.2-7.5-3.7-10.1C224.9,38.6,221.8,37.2,218,37.2z"/>
	<path d="M282.2,26.1c4.5,0,8.8,1.1,12.8,3.4c4,2.3,7.1,5.3,9.3,9.2c2.2,3.9,3.4,8.1,3.4,12.6c0,4.5-1.1,8.8-3.4,12.7
		c-2.3,3.9-5.3,7-9.2,9.2c-3.9,2.2-8.2,3.3-12.8,3.3c-6.9,0-12.8-2.4-17.6-7.4c-4.9-4.9-7.3-10.9-7.3-17.9c0-7.5,2.8-13.8,8.3-18.8
		C270.4,28.3,275.9,26.1,282.2,26.1z M282.4,37.5c-3.7,0-6.9,1.3-9.4,3.9c-2.5,2.6-3.7,5.9-3.7,10c0,4.2,1.2,7.6,3.7,10.2
		c2.5,2.6,5.6,3.9,9.4,3.9s6.9-1.3,9.4-3.9c2.5-2.6,3.8-6,3.8-10.1c0-4.1-1.2-7.5-3.7-10C289.4,38.7,286.3,37.5,282.4,37.5z"/>
	<path d="M325.3,8.8h12.1v66.6h-12.1V8.8z"/>
	<path d="M352,27.3h12.3l12.5,30.1l13.8-30.1h12.4L372.8,93h-12.4l9.9-21.2L352,27.3z"/>
	<path d="M451.6,27.3h12v41.2c0,8.1-1.6,14.1-4.9,17.9c-4.4,5.2-11,7.8-19.8,7.8c-4.7,0-8.7-0.6-11.9-1.8c-3.2-1.2-5.9-2.9-8.1-5.2
		c-2.2-2.3-3.8-5.1-4.9-8.3h13.3c1.2,1.4,2.7,2.4,4.5,3.1c1.9,0.7,4,1,6.6,1c3.2,0,5.8-0.5,7.8-1.5c2-1,3.4-2.3,4.2-3.9
		c0.8-1.6,1.2-4.3,1.2-8.2c-2.1,2.1-4.3,3.6-6.7,4.6c-2.3,0.9-5,1.4-7.9,1.4c-6.4,0-11.9-2.3-16.3-7c-4.4-4.7-6.7-10.5-6.7-17.7
		c0-7.6,2.4-13.7,7.1-18.4c4.3-4.2,9.4-6.3,15.3-6.3c2.8,0,5.4,0.5,7.8,1.5c2.5,1,4.9,2.7,7.4,5V27.3z M439.1,37.4
		c-3.8,0-6.9,1.3-9.4,3.8c-2.5,2.5-3.7,5.7-3.7,9.6c0,4,1.3,7.3,3.8,9.8c2.5,2.6,5.7,3.8,9.5,3.8c3.7,0,6.8-1.2,9.2-3.8
		c2.4-2.5,3.6-5.8,3.6-9.8c0-4-1.2-7.3-3.7-9.8C446.1,38.6,443,37.4,439.1,37.4z"/>
	<path d="M483.5,8.8h12.1v66.6h-12.1V8.8z"/>
	<path d="M538.1,26.1c4.5,0,8.8,1.1,12.8,3.4c4,2.3,7.1,5.3,9.3,9.2c2.2,3.9,3.4,8.1,3.4,12.6c0,4.5-1.1,8.8-3.4,12.7
		c-2.3,3.9-5.3,7-9.2,9.2c-3.9,2.2-8.2,3.3-12.8,3.3c-6.9,0-12.8-2.4-17.6-7.4c-4.9-4.9-7.3-10.9-7.3-17.9c0-7.5,2.8-13.8,8.3-18.8
		C526.3,28.3,531.9,26.1,538.1,26.1z M538.3,37.5c-3.7,0-6.9,1.3-9.4,3.9c-2.5,2.6-3.7,5.9-3.7,10c0,4.2,1.2,7.6,3.7,10.2
		c2.5,2.6,5.6,3.9,9.4,3.9c3.8,0,6.9-1.3,9.4-3.9c2.5-2.6,3.8-6,3.8-10.1c0-4.1-1.2-7.5-3.7-10C545.3,38.7,542.2,37.5,538.3,37.5z"
		/>
	<path d="M584,9.6H596v17.7h7.2v10.4H596v37.7H584V37.7h-6.2V27.3h6.2V9.6z"/>
</g>
</svg>
